<?xml version="1.0" encoding="utf-8"?>
<!-- Generator: Adobe Illustrator 22.0.1, SVG Export Plug-In . SVG Version: 6.00 Build 0)  -->
<svg version="1.1" id="Capa_1" xmlns="http://www.w3.org/2000/svg" xmlns:xlink="http://www.w3.org/1999/xlink" x="0px" y="0px"
	 viewBox="0 0 40 40" style="enable-background:new 0 0 40 40;" xml:space="preserve">
<style type="text/css">
	.st0{fill-rule:evenodd;clip-rule:evenodd;fill:#51B748;}
	.st1{fill:#FFFFFF;}
	.st2{fill-rule:evenodd;clip-rule:evenodd;fill:#EA2E30;}
	.st3{fill-rule:evenodd;clip-rule:evenodd;fill:#ED2F28;}
	.st4{fill-rule:evenodd;clip-rule:evenodd;fill:#2877BC;}
	.st5{fill-rule:evenodd;clip-rule:evenodd;fill:#46C8F5;}
	.st6{fill-rule:evenodd;clip-rule:evenodd;fill:none;stroke:#FFFFFF;stroke-width:0.5;stroke-miterlimit:10;}
	.st7{fill-rule:evenodd;clip-rule:evenodd;fill:#FFFFFF;}
	.st8{fill-rule:evenodd;clip-rule:evenodd;}
	.st9{fill-rule:evenodd;clip-rule:evenodd;fill:none;stroke:#000000;stroke-width:1.3825;stroke-miterlimit:22.9256;}
	.st10{clip-path:url(#SVGID_2_);fill:url(#SVGID_3_);}
	.st11{clip-path:url(#SVGID_5_);fill:#46C8F5;}
	.st12{fill:#2877BC;}
	.st13{clip-path:url(#SVGID_7_);fill:#FFFFFF;}
	.st14{fill:#D0D2D3;}
	.st15{fill:#ED2F28;}
	.st16{clip-path:url(#SVGID_9_);fill:#51B748;}
	.st17{clip-path:url(#SVGID_12_);fill:url(#SVGID_13_);}
	.st18{fill:#EA2E30;}
	.st19{fill:#030000;}
	.st20{fill:#F79738;}
</style>
<g>
	<path class="st1" d="M20,38.4C9.8,38.4,1.6,30.2,1.6,20S9.8,1.6,20,1.6S38.4,9.8,38.4,20S30.2,38.4,20,38.4z M20,2.3
		C10.3,2.3,2.3,10.3,2.3,20c0,9.7,7.9,17.7,17.7,17.7S37.7,29.7,37.7,20C37.7,10.3,29.7,2.3,20,2.3z"/>
	<g>
		<g>
			<path class="st1" d="M25.4,20.3c-0.8-0.2-0.4-0.6-0.4-0.6s0.8-1.4-0.2-2.3c-1.2-1.2-4.2,0.2-4.2,0.2c-1.1,0.4-0.8-0.2-0.7-1
				c0-1-0.4-2.8-3.4-1.7c-3,1-5.6,4.7-5.6,4.7c-1.8,2.4-1.6,4.3-1.6,4.3c0.5,4.1,4.8,5.2,8.2,5.5c3.6,0.3,8.4-1.2,9.9-4.3
				C28.9,21.7,26.2,20.4,25.4,20.3z M17.8,28c-3.6,0.2-6.4-1.6-6.4-4c0-2.4,2.9-4.3,6.4-4.4c3.6-0.2,6.4,1.3,6.4,3.7
				C24.3,25.6,21.4,27.8,17.8,28z"/>
			<path class="st1" d="M17.1,21.1c-3.6,0.4-3.2,3.8-3.2,3.8s0,1.1,1,1.6c2.1,1.1,4.2,0.4,5.3-1C21.3,24.1,20.7,20.7,17.1,21.1z
				 M16.2,25.8c-0.7,0.1-1.2-0.3-1.2-0.9c0-0.6,0.5-1.1,1.1-1.2c0.8-0.1,1.3,0.4,1.3,0.9C17.4,25.2,16.9,25.7,16.2,25.8z M18.3,24
				c-0.2,0.2-0.5,0.1-0.6-0.1c-0.1-0.2-0.1-0.5,0.2-0.7c0.3-0.2,0.5-0.1,0.7,0.1C18.6,23.5,18.5,23.8,18.3,24z"/>
		</g>
		<path class="st1" d="M30.6,18.4c0-0.1,0-0.1,0-0.2c0-0.3,0.1-0.6,0.1-1c0-3.5-2.9-6.4-6.4-6.4c-0.5,0-0.9,0.4-0.9,0.9
			c0,0.5,0.4,0.9,0.9,0.9c2.5,0,4.6,2.1,4.6,4.6c0,0.3,0,0.6-0.1,0.8l0,0c0,0,0,0.1,0,0.1c0,0.5,0.4,0.9,0.9,0.9
			C30.1,19.1,30.5,18.8,30.6,18.4L30.6,18.4C30.6,18.4,30.6,18.4,30.6,18.4z"/>
		<path class="st1" d="M27.8,17.6c0-0.1,0-0.2,0-0.3c0-2-1.6-3.5-3.5-3.5c-0.4,0-0.7,0.3-0.7,0.7c0,0.4,0.3,0.7,0.7,0.7
			c1.1,0,2.1,0.9,2.1,2.1c0,0.1,0,0.2,0,0.3l0,0c0,0,0,0.1,0,0.1c0,0.4,0.3,0.7,0.7,0.7c0.4,0,0.7-0.3,0.7-0.6l0,0
			C27.8,17.7,27.8,17.6,27.8,17.6C27.8,17.6,27.8,17.6,27.8,17.6C27.8,17.6,27.8,17.6,27.8,17.6z"/>
	</g>
</g>
</svg>
