<?xml version="1.0" encoding="utf-8"?>
<!-- Generator: Adobe Illustrator 22.0.1, SVG Export Plug-In . SVG Version: 6.00 Build 0)  -->
<svg version="1.1" id="Capa_1" xmlns="http://www.w3.org/2000/svg" xmlns:xlink="http://www.w3.org/1999/xlink" x="0px" y="0px"
	 viewBox="0 0 40 40" style="enable-background:new 0 0 40 40;" xml:space="preserve">
<style type="text/css">
	.st0{fill-rule:evenodd;clip-rule:evenodd;fill:#51B748;}
	.st1{fill:#FFFFFF;}
	.st2{fill-rule:evenodd;clip-rule:evenodd;fill:#EA2E30;}
	.st3{fill-rule:evenodd;clip-rule:evenodd;fill:#ED2F28;}
	.st4{fill-rule:evenodd;clip-rule:evenodd;fill:#2877BC;}
	.st5{fill-rule:evenodd;clip-rule:evenodd;fill:#46C8F5;}
	.st6{fill-rule:evenodd;clip-rule:evenodd;fill:none;stroke:#FFFFFF;stroke-width:0.5;stroke-miterlimit:10;}
	.st7{fill-rule:evenodd;clip-rule:evenodd;fill:#FFFFFF;}
	.st8{fill-rule:evenodd;clip-rule:evenodd;}
	.st9{fill-rule:evenodd;clip-rule:evenodd;fill:none;stroke:#000000;stroke-width:1.3825;stroke-miterlimit:22.9256;}
	.st10{clip-path:url(#SVGID_2_);fill:url(#SVGID_3_);}
	.st11{clip-path:url(#SVGID_5_);fill:#46C8F5;}
	.st12{fill:#2877BC;}
	.st13{clip-path:url(#SVGID_7_);fill:#FFFFFF;}
	.st14{fill:#D0D2D3;}
	.st15{fill:#ED2F28;}
	.st16{clip-path:url(#SVGID_9_);fill:#51B748;}
	.st17{clip-path:url(#SVGID_12_);fill:url(#SVGID_13_);}
	.st18{fill:#EA2E30;}
	.st19{fill:#030000;}
	.st20{fill:#F79738;}
</style>
<g>
	<g>
		<g>
			<path class="st1" d="M24.4,16.5c0.1,0,0.2,0,0.3,0c-0.6-3.2-3.9-5.6-7.9-5.6c-4.4,0-8,3-8,6.7c0,2.2,1.2,4.1,3.1,5.3
				c0,0,0.1,0,0.1,0l-0.8,2.4l2.9-1.5c0,0,0.1,0,0.1,0c0.8,0.2,1.6,0.3,2.5,0.3c0.2,0,0.4,0,0.5,0c-0.2-0.5-0.3-1-0.3-1.6
				C17.1,19.2,20.4,16.5,24.4,16.5z M19.6,14.1c0.6,0,1.1,0.5,1.1,1.1c0,0.6-0.5,1.1-1.1,1.1c-0.6,0-1.1-0.5-1.1-1.1
				C18.5,14.6,19,14.1,19.6,14.1z M14,16.3c-0.6,0-1.1-0.5-1.1-1.1c0-0.6,0.5-1.1,1.1-1.1c0.6,0,1.1,0.5,1.1,1.1
				C15.2,15.8,14.7,16.3,14,16.3z"/>
		</g>
		<path class="st1" d="M17.7,22.6c0,3.1,3,5.6,6.7,5.6c0.7,0,1.5-0.1,2.1-0.3c0,0,0.1,0,0.1,0l2.4,1.2l-0.7-2c0,0,0,0,0.1,0
			c1.6-1,2.6-2.7,2.6-4.5c0-3.1-3-5.6-6.7-5.6C20.7,17,17.7,19.5,17.7,22.6z M25.8,20.7c0-0.5,0.4-0.9,0.9-0.9
			c0.5,0,0.9,0.4,0.9,0.9c0,0.5-0.4,0.9-0.9,0.9C26.2,21.6,25.8,21.2,25.8,20.7z M21.1,20.7c0-0.5,0.4-0.9,0.9-0.9
			c0.5,0,0.9,0.4,0.9,0.9c0,0.5-0.4,0.9-0.9,0.9C21.6,21.6,21.1,21.2,21.1,20.7z"/>
	</g>
	<path class="st1" d="M20,38.4C9.8,38.4,1.6,30.2,1.6,20S9.8,1.6,20,1.6S38.4,9.8,38.4,20S30.2,38.4,20,38.4z M20,2.3
		C10.3,2.3,2.3,10.3,2.3,20c0,9.7,7.9,17.7,17.7,17.7S37.7,29.7,37.7,20C37.7,10.3,29.7,2.3,20,2.3z"/>
</g>
</svg>
