<?xml version="1.0" encoding="utf-8"?>
<!-- Generator: Adobe Illustrator 22.0.1, SVG Export Plug-In . SVG Version: 6.00 Build 0)  -->
<svg version="1.1" id="Capa_1" xmlns="http://www.w3.org/2000/svg" xmlns:xlink="http://www.w3.org/1999/xlink" x="0px" y="0px"
	 viewBox="0 0 40 40" style="enable-background:new 0 0 40 40;" xml:space="preserve">
<style type="text/css">
	.st0{fill-rule:evenodd;clip-rule:evenodd;fill:#51B748;}
	.st1{fill:#FFFFFF;}
	.st2{fill-rule:evenodd;clip-rule:evenodd;fill:#EA2E30;}
	.st3{fill-rule:evenodd;clip-rule:evenodd;fill:#ED2F28;}
	.st4{fill-rule:evenodd;clip-rule:evenodd;fill:#2877BC;}
	.st5{fill-rule:evenodd;clip-rule:evenodd;fill:#46C8F5;}
	.st6{fill-rule:evenodd;clip-rule:evenodd;fill:none;stroke:#FFFFFF;stroke-width:0.5;stroke-miterlimit:10;}
	.st7{fill-rule:evenodd;clip-rule:evenodd;fill:#FFFFFF;}
	.st8{fill-rule:evenodd;clip-rule:evenodd;}
	.st9{fill-rule:evenodd;clip-rule:evenodd;fill:none;stroke:#000000;stroke-width:1.3825;stroke-miterlimit:22.9256;}
	.st10{clip-path:url(#SVGID_2_);fill:url(#SVGID_3_);}
	.st11{clip-path:url(#SVGID_5_);fill:#46C8F5;}
	.st12{fill:#2877BC;}
	.st13{clip-path:url(#SVGID_7_);fill:#FFFFFF;}
	.st14{fill:#D0D2D3;}
	.st15{fill:#ED2F28;}
	.st16{clip-path:url(#SVGID_9_);fill:#51B748;}
	.st17{clip-path:url(#SVGID_12_);fill:url(#SVGID_13_);}
	.st18{fill:#EA2E30;}
	.st19{fill:#030000;}
	.st20{fill:#F79738;}
</style>
<g>
	<path class="st1" d="M20,38.4C9.8,38.4,1.6,30.2,1.6,20S9.8,1.6,20,1.6S38.4,9.8,38.4,20S30.2,38.4,20,38.4z M20,2.3
		C10.3,2.3,2.3,10.3,2.3,20S10.3,37.7,20,37.7S37.7,29.7,37.7,20S29.7,2.3,20,2.3z"/>
	<g>
		
			<rect x="4.2" y="10.5" transform="matrix(0.9987 -5.071590e-02 5.071590e-02 0.9987 -0.522 1.0024)" class="st1" width="30.6" height="0.6"/>
		
			<rect x="5.2" y="28.9" transform="matrix(0.9985 -5.460590e-02 5.460590e-02 0.9985 -1.5612 1.1726)" class="st1" width="30.9" height="0.6"/>
		<g>
			<polygon class="st1" points="13.2,17.6 11.4,15.4 9.1,15.5 10.8,17.7 			"/>
			<polygon class="st1" points="13.2,20.3 11.4,18.1 9.1,18.2 10.8,20.4 			"/>
			<polygon class="st1" points="19.1,20.7 16.5,20.9 16.5,14.7 14.4,14.8 14.4,21 8.1,21.3 8.1,22.7 12.5,22.5 10.6,25 8.2,25.2 
				8.2,26.6 12.2,26.3 12.2,26.3 15.2,22.3 19.1,22.1 			"/>
			<polygon class="st1" points="15.4,22.7 17.1,26 19.4,25.9 17.7,22.6 			"/>
			<polygon class="st1" points="20.5,19.6 20.5,21 22,20.9 22,20.9 25.9,18.9 29.9,20.4 29.9,20.4 31.5,20.3 31.5,18.9 30.4,19 
				27.8,18 31.3,16.3 31.3,16 31.3,15.3 31.3,14.7 31.3,13.9 29.2,14 29.2,14 24.2,14.3 24.2,14.2 22.5,13.4 20.4,16.9 22.2,17.6 
				23.3,15.7 29.2,15.4 29.2,15.7 25.9,17.3 23.4,16.4 22.5,17.7 24,18.2 21.5,19.5 			"/>
			<polygon class="st1" points="20.5,25.9 22.6,25.7 24,23 21.9,23.1 			"/>
			<polygon class="st1" points="31.5,20.7 27,21 27,20.3 24.9,20.4 24.9,21.1 20.5,21.4 20.5,22.8 24.9,22.5 24.9,25.6 27,25.5 
				27,22.4 31.5,22.1 			"/>
			<polygon class="st1" points="30.3,22.6 28.2,22.7 29.7,25.3 31.9,25.2 			"/>
		</g>
	</g>
</g>
</svg>
