<?xml version="1.0" encoding="utf-8"?>
<!-- Generator: Adobe Illustrator 22.0.1, SVG Export Plug-In . SVG Version: 6.00 Build 0)  -->
<svg version="1.1" id="Capa_1" xmlns="http://www.w3.org/2000/svg" xmlns:xlink="http://www.w3.org/1999/xlink" x="0px" y="0px"
	 viewBox="0 0 40 40" style="enable-background:new 0 0 40 40;" xml:space="preserve">
<style type="text/css">
	.st0{fill-rule:evenodd;clip-rule:evenodd;fill:#51B748;}
	.st1{fill:#FFFFFF;}
	.st2{fill-rule:evenodd;clip-rule:evenodd;fill:#EA2E30;}
	.st3{fill-rule:evenodd;clip-rule:evenodd;fill:#ED2F28;}
	.st4{fill-rule:evenodd;clip-rule:evenodd;fill:#2877BC;}
	.st5{fill-rule:evenodd;clip-rule:evenodd;fill:#46C8F5;}
	.st6{fill-rule:evenodd;clip-rule:evenodd;fill:none;stroke:#FFFFFF;stroke-width:0.5;stroke-miterlimit:10;}
	.st7{fill-rule:evenodd;clip-rule:evenodd;fill:#FFFFFF;}
	.st8{fill-rule:evenodd;clip-rule:evenodd;}
	.st9{fill-rule:evenodd;clip-rule:evenodd;fill:none;stroke:#000000;stroke-width:1.3825;stroke-miterlimit:22.9256;}
	.st10{clip-path:url(#SVGID_2_);fill:url(#SVGID_3_);}
	.st11{clip-path:url(#SVGID_5_);fill:#46C8F5;}
	.st12{fill:#2877BC;}
	.st13{clip-path:url(#SVGID_7_);fill:#FFFFFF;}
	.st14{fill:#D0D2D3;}
	.st15{fill:#ED2F28;}
	.st16{clip-path:url(#SVGID_9_);fill:#51B748;}
	.st17{clip-path:url(#SVGID_12_);fill:url(#SVGID_13_);}
	.st18{fill:#EA2E30;}
	.st19{fill:#030000;}
	.st20{fill:#F79738;}
</style>
<g>
	<path class="st1" d="M20,38.4C9.8,38.4,1.6,30.2,1.6,20S9.8,1.6,20,1.6S38.4,9.8,38.4,20S30.2,38.4,20,38.4z M20,2.3
		C10.3,2.3,2.3,10.3,2.3,20c0,9.7,7.9,17.7,17.7,17.7c9.7,0,17.7-7.9,17.7-17.7C37.7,10.3,29.7,2.3,20,2.3z"/>
	<path class="st1" d="M12.3,20h3.3c0.1-1.1,0-3.5,0-5.2H14c-0.5,1-0.9,1.8-1.7,2.1c-0.7,0.3-1,0.1-1.3,0.1c0.4,0,1.6-4.5,2.2-5.3
		c0.6-0.9,1.7-0.9,1.7-0.9c-0.1,1-0.6,2.2-0.7,2.6h6.1l0,1.4H17c0,1.7,0.1,4,0,5.2h3.8l0,1.4l-3.9,0c0,0.3-0.1,1-0.1,1.3
		c0,0,2,2.1,3.1,3.5v2.4c-1.2-1.5-3.6-4.4-3.6-4.4c-1.5,3.7-3.5,5-3.5,5h-2.3c0,0,4.4-4.8,4.8-7.8h-4.6L12.3,20z M21.6,13.3h7.7
		v13.9l-3.1,0l-2.3,1.9l-0.9-1.9h-1.3V13.3z M27.9,14.7H23v10.9h0.3l0.8,1.7l2.1-1.7h1.6V14.7z"/>
</g>
</svg>
