<?xml version="1.0" encoding="utf-8"?>
<!-- Generator: Adobe Illustrator 22.0.1, SVG Export Plug-In . SVG Version: 6.00 Build 0)  -->
<svg version="1.1" id="Capa_1" xmlns="http://www.w3.org/2000/svg" xmlns:xlink="http://www.w3.org/1999/xlink" x="0px" y="0px"
	 viewBox="0 0 40 40" style="enable-background:new 0 0 40 40;" xml:space="preserve">
<style type="text/css">
	.st0{fill-rule:evenodd;clip-rule:evenodd;fill:#51B748;}
	.st1{fill:#FFFFFF;}
	.st2{fill-rule:evenodd;clip-rule:evenodd;fill:#EA2E30;}
	.st3{fill-rule:evenodd;clip-rule:evenodd;fill:#ED2F28;}
	.st4{fill-rule:evenodd;clip-rule:evenodd;fill:#2877BC;}
	.st5{fill-rule:evenodd;clip-rule:evenodd;fill:#46C8F5;}
	.st6{fill-rule:evenodd;clip-rule:evenodd;fill:none;stroke:#FFFFFF;stroke-width:0.5;stroke-miterlimit:10;}
	.st7{fill-rule:evenodd;clip-rule:evenodd;fill:#FFFFFF;}
	.st8{fill-rule:evenodd;clip-rule:evenodd;}
	.st9{fill-rule:evenodd;clip-rule:evenodd;fill:none;stroke:#000000;stroke-width:1.3825;stroke-miterlimit:22.9256;}
	.st10{clip-path:url(#SVGID_2_);fill:url(#SVGID_3_);}
	.st11{clip-path:url(#SVGID_5_);fill:#46C8F5;}
	.st12{fill:#2877BC;}
	.st13{clip-path:url(#SVGID_7_);fill:#FFFFFF;}
	.st14{fill:#D0D2D3;}
	.st15{fill:#ED2F28;}
	.st16{clip-path:url(#SVGID_9_);fill:#51B748;}
	.st17{clip-path:url(#SVGID_12_);fill:url(#SVGID_13_);}
	.st18{fill:#EA2E30;}
	.st19{fill:#030000;}
	.st20{fill:#F79738;}
</style>
<g>
	<path class="st1" d="M20,38.4C9.8,38.4,1.6,30.2,1.6,20S9.8,1.6,20,1.6S38.4,9.8,38.4,20S30.2,38.4,20,38.4z M20,2.3
		C10.3,2.3,2.3,10.3,2.3,20c0,9.7,7.9,17.7,17.7,17.7c9.7,0,17.7-7.9,17.7-17.7C37.7,10.3,29.7,2.3,20,2.3z"/>
	<path class="st7" d="M27.2,16.3c0.2,5.2-3.7,11-10.5,11c-2.1,0-4-0.6-5.7-1.7c2,0.2,3.9-0.3,5.5-1.5c-1.6,0-3-1.1-3.5-2.6
		c0.6,0.1,1.2,0.1,1.7-0.1c-1.8-0.4-3-2-3-3.7c0.5,0.3,1.1,0.4,1.7,0.5c-1.6-1.1-2.1-3.3-1.1-4.9c1.8,2.2,4.6,3.7,7.6,3.9
		c-0.5-2.3,1.2-4.5,3.6-4.5c1.1,0,2,0.4,2.7,1.2c0.8-0.2,1.6-0.5,2.4-0.9c-0.3,0.9-0.9,1.6-1.6,2c0.7-0.1,1.5-0.3,2.1-0.6
		C28.5,15.1,27.9,15.8,27.2,16.3z"/>
</g>
</svg>
