<?xml version="1.0" encoding="utf-8"?>
<!-- Generator: Adobe Illustrator 22.0.1, SVG Export Plug-In . SVG Version: 6.00 Build 0)  -->
<svg version="1.1" id="Capa_1" xmlns="http://www.w3.org/2000/svg" xmlns:xlink="http://www.w3.org/1999/xlink" x="0px" y="0px"
	 viewBox="0 0 40 40" style="enable-background:new 0 0 40 40;" xml:space="preserve">
<style type="text/css">
	.st0{fill-rule:evenodd;clip-rule:evenodd;fill:#51B748;}
	.st1{fill:#FFFFFF;}
	.st2{fill-rule:evenodd;clip-rule:evenodd;fill:#EA2E30;}
	.st3{fill-rule:evenodd;clip-rule:evenodd;fill:#ED2F28;}
	.st4{fill-rule:evenodd;clip-rule:evenodd;fill:#2877BC;}
	.st5{fill-rule:evenodd;clip-rule:evenodd;fill:#46C8F5;}
	.st6{fill-rule:evenodd;clip-rule:evenodd;fill:none;stroke:#FFFFFF;stroke-width:0.5;stroke-miterlimit:10;}
	.st7{fill-rule:evenodd;clip-rule:evenodd;fill:#FFFFFF;}
	.st8{fill-rule:evenodd;clip-rule:evenodd;}
	.st9{fill-rule:evenodd;clip-rule:evenodd;fill:none;stroke:#000000;stroke-width:1.3825;stroke-miterlimit:22.9256;}
	.st10{clip-path:url(#SVGID_2_);fill:url(#SVGID_3_);}
	.st11{clip-path:url(#SVGID_5_);fill:#46C8F5;}
	.st12{fill:#2877BC;}
	.st13{clip-path:url(#SVGID_7_);fill:#FFFFFF;}
	.st14{fill:#D0D2D3;}
	.st15{fill:#ED2F28;}
	.st16{clip-path:url(#SVGID_9_);fill:#51B748;}
	.st17{clip-path:url(#SVGID_12_);fill:url(#SVGID_13_);}
	.st18{fill:#EA2E30;}
	.st19{fill:#030000;}
	.st20{fill:#F79738;}
</style>
<g>
	<path class="st1" d="M20,38.4C9.8,38.4,1.6,30.2,1.6,20S9.8,1.6,20,1.6S38.4,9.8,38.4,20S30.2,38.4,20,38.4z M20,2.3
		C10.3,2.3,2.3,10.3,2.3,20c0,9.7,7.9,17.7,17.7,17.7S37.7,29.7,37.7,20C37.7,10.3,29.7,2.3,20,2.3z"/>
	<path class="st7" d="M19.8,11c-2.2,0-2.6,0-3.5,0.1c-1,0-1.6,0.2-2.2,0.4c-0.6,0.2-1.1,0.5-1.6,1c-0.5,0.5-0.8,1-1,1.6
		c-0.2,0.6-0.4,1.2-0.4,2.2c0,1-0.1,1.3-0.1,3.7s0,2.8,0.1,3.7c0,1,0.2,1.6,0.4,2.2c0.2,0.6,0.5,1.1,1,1.6c0.5,0.5,1,0.8,1.6,1
		c0.6,0.2,1.2,0.4,2.2,0.4c1,0,1.3,0.1,3.7,0.1s2.8,0,3.7-0.1c1,0,1.6-0.2,2.2-0.4c0.6-0.2,1.1-0.5,1.6-1c0.5-0.5,0.8-1,1-1.6
		c0.2-0.6,0.4-1.2,0.4-2.2c0-0.9,0.1-1.3,0.1-3.5v-0.4c0-2.2,0-2.6-0.1-3.5c0-1-0.2-1.6-0.4-2.2c-0.2-0.6-0.5-1.1-1-1.6
		c-0.5-0.5-1-0.8-1.6-1c-0.6-0.2-1.2-0.4-2.2-0.4c-0.9,0-1.3-0.1-3.5-0.1H19.8L19.8,11z M25.9,15.2c0,0.6-0.5,1.1-1.1,1.1
		c-0.6,0-1.1-0.5-1.1-1.1c0-0.6,0.5-1.1,1.1-1.1C25.4,14.1,25.9,14.6,25.9,15.2L25.9,15.2z M20,23c-1.7,0-3-1.3-3-3s1.3-3,3-3
		s3,1.3,3,3S21.7,23,20,23L20,23z M20,15.4c2.6,0,4.6,2.1,4.6,4.6c0,2.6-2.1,4.6-4.6,4.6s-4.6-2.1-4.6-4.6
		C15.4,17.4,17.4,15.4,20,15.4L20,15.4z M20,12.6c2.4,0,2.7,0,3.6,0.1c0.9,0,1.4,0.2,1.7,0.3c0.4,0.2,0.7,0.4,1,0.7
		c0.3,0.3,0.5,0.6,0.7,1c0.1,0.3,0.3,0.8,0.3,1.7c0,1,0.1,1.2,0.1,3.6s0,2.7-0.1,3.6c0,0.9-0.2,1.4-0.3,1.7c-0.2,0.4-0.4,0.7-0.7,1
		c-0.3,0.3-0.6,0.5-1,0.7c-0.3,0.1-0.8,0.3-1.7,0.3c-1,0-1.2,0.1-3.6,0.1s-2.7,0-3.6-0.1c-0.9,0-1.4-0.2-1.7-0.3
		c-0.4-0.2-0.7-0.4-1-0.7c-0.3-0.3-0.5-0.6-0.7-1c-0.1-0.3-0.3-0.8-0.3-1.7c0-1-0.1-1.2-0.1-3.6s0-2.7,0.1-3.6
		c0-0.9,0.2-1.4,0.3-1.7c0.2-0.4,0.4-0.7,0.7-1c0.3-0.3,0.6-0.5,1-0.7c0.3-0.1,0.8-0.3,1.7-0.3C17.3,12.6,17.6,12.6,20,12.6z"/>
</g>
</svg>
