<?xml version="1.0" encoding="utf-8"?>
<!-- Generator: Adobe Illustrator 22.0.1, SVG Export Plug-In . SVG Version: 6.00 Build 0)  -->
<svg version="1.1" id="图层_1" xmlns="http://www.w3.org/2000/svg" xmlns:xlink="http://www.w3.org/1999/xlink" x="0px" y="0px"
	 viewBox="0 0 107 107" style="enable-background:new 0 0 107 107;" xml:space="preserve">
<style type="text/css">
	.st0{fill:#FFFFFF;}
</style>
<g>
	<path class="st0" d="M81.2,40.5h-3.8v-5.9c0-0.2-0.1-0.5-0.2-0.6c-0.2-0.2-1.6-2-6-2.8v-0.7c0-0.6-0.5-1.1-1.1-1.1h-5.4
		c-0.6,0-1.1,0.5-1.1,1.1v0.7c-3,0.5-6,1.6-9.6,3.6c-14.5-8-22.7-1.3-23-1c-0.2,0.2-0.4,0.5-0.4,0.8v5.9h-3.8
		c-0.6,0-1.1,0.5-1.1,1.1v35.8c0,0.6,0.5,1.1,1.1,1.1h54.4c0.6,0,1.1-0.5,1.1-1.1V41.6C82.3,41,81.8,40.5,81.2,40.5z M65.8,31.6h3.3
		v16l-0.8-1c-0.2-0.3-0.5-0.4-0.8-0.4s-0.6,0.1-0.8,0.4l-0.8,1L65.8,31.6L65.8,31.6z M64.3,51.7c0.4,0.2,0.9,0,1.2-0.3l1.9-2.4
		l1.9,2.4c0.2,0.3,0.5,0.4,0.8,0.4c0.1,0,0.2,0,0.4-0.1c0.4-0.2,0.7-0.6,0.7-1V33.4c2.4,0.5,3.6,1.3,4.1,1.7v35.7
		c-10.8-1.6-17.3,1.2-20.2,3V36.7c3.3-1.8,5.9-2.8,8.6-3.3v17.3C63.6,51.2,63.9,51.6,64.3,51.7z M32.7,35.2
		c1.7-1.1,8.7-4.8,20.2,1.5v37.1c-2.3-1.4-6.9-3.5-14-3.5c-1.9,0-3.9,0.1-6.2,0.5V35.2z M27.9,42.7h2.7v29.4c0,0.3,0.1,0.6,0.4,0.8
		c0.2,0.2,0.6,0.3,0.9,0.2C44.4,71,51,75,52.7,76.4H27.9V42.7z M80.1,76.4H55.2c1.7-1.3,8.3-5.4,20.9-3.2c0.3,0.1,0.6,0,0.9-0.2
		c0.2-0.2,0.4-0.5,0.4-0.8V42.7h2.7V76.4z"/>
	<path class="st0" d="M36.8,40.1c0.1,0,7.6-2.1,12.5,2.5c0.2,0.2,0.5,0.3,0.7,0.3c0.3,0,0.6-0.1,0.8-0.3c0.4-0.4,0.4-1.1,0-1.5
		C45,35.5,36.5,37.9,36.2,38c-0.6,0.2-0.9,0.8-0.7,1.3C35.6,39.9,36.2,40.3,36.8,40.1z"/>
	<path class="st0" d="M36.8,44.4c0.1,0,7.6-2.1,12.5,2.5c0.2,0.2,0.5,0.3,0.7,0.3c0.3,0,0.6-0.1,0.8-0.3c0.4-0.4,0.4-1.1,0-1.5
		c-5.8-5.5-14.2-3.2-14.6-3.1c-0.6,0.2-0.9,0.8-0.7,1.3C35.6,44.2,36.2,44.5,36.8,44.4z"/>
	<path class="st0" d="M54,0.5C24.5,0.5,0.5,24.5,0.5,54s24,53.5,53.5,53.5s53.5-24,53.5-53.5S83.5,0.5,54,0.5z M54,105.5
		C25.6,105.5,2.5,82.4,2.5,54S25.6,2.5,54,2.5s51.5,23.1,51.5,51.5S82.4,105.5,54,105.5z"/>
</g>
</svg>
