<?xml version="1.0" encoding="utf-8"?>
<!-- Generator: Adobe Illustrator 22.0.1, SVG Export Plug-In . SVG Version: 6.00 Build 0)  -->
<svg version="1.1" id="图层_1" xmlns="http://www.w3.org/2000/svg" xmlns:xlink="http://www.w3.org/1999/xlink" x="0px" y="0px"
	 viewBox="0 0 107 107" style="enable-background:new 0 0 107 107;" xml:space="preserve">
<style type="text/css">
	.st0{fill:#FFFFFF;}
</style>
<g>
	<path class="st0" d="M79.3,56.1c0.5-0.9,0.7-1.9,0.7-3V35.7c0-3.6-3-6.6-6.6-6.6H56c-3.6,0-6.6,3-6.6,6.6v3
		c-9.8,1.8-18,9.2-21.5,19.6c-0.1,0.2-0.1,0.5,0,0.7C32,71,42.5,79,54,79s22-8,26.1-20c0.1-0.2,0.1-0.5,0-0.7
		C79.8,57.5,79.6,56.8,79.3,56.1z M56,31.2h17.3c2.5,0,4.5,2,4.5,4.5V53c0,2.5-2,4.5-4.5,4.5H56c-2.5,0-4.5-2-4.5-4.5V39.7
		c0-0.1,0-0.1,0-0.2l0,0v-3.7C51.6,33.2,53.6,31.2,56,31.2z M56,59.6h10.5c-0.5,6.4-6,11.5-12.6,11.5c-7,0-12.6-5.6-12.6-12.5
		c0-5.2,3.3-9.8,8.1-11.7V53C49.4,56.7,52.4,59.6,56,59.6z M54,76.8c-10.5,0-20.1-7.3-23.9-18.2c3.3-9.3,10.6-16,19.4-17.7v3.7
		c-6.1,1.9-10.2,7.6-10.2,14c0,8.1,6.6,14.7,14.8,14.7c7.8,0,14.2-6.1,14.7-13.7h4.7c1.6,0,3.2-0.6,4.3-1.6c0.1,0.2,0.2,0.4,0.2,0.6
		C74.1,69.5,64.5,76.8,54,76.8z"/>
	<path class="st0" d="M54,0.5C24.5,0.5,0.5,24.5,0.5,54s24,53.5,53.5,53.5s53.5-24,53.5-53.5S83.5,0.5,54,0.5z M54,105.5
		C25.6,105.5,2.5,82.4,2.5,54S25.6,2.5,54,2.5s51.5,23.1,51.5,51.5S82.4,105.5,54,105.5z"/>
</g>
</svg>
