<?xml version="1.0" encoding="utf-8"?>
<!-- Generator: Adobe Illustrator 22.0.1, SVG Export Plug-In . SVG Version: 6.00 Build 0)  -->
<svg version="1.1" id="图层_1" xmlns="http://www.w3.org/2000/svg" xmlns:xlink="http://www.w3.org/1999/xlink" x="0px" y="0px"
	 viewBox="0 0 107 107" style="enable-background:new 0 0 107 107;" xml:space="preserve">
<style type="text/css">
	.st0{fill:#FFFFFF;}
</style>
<g>
	<path class="st0" d="M53.1,28.1c-14.3,0-25.9,11.6-25.9,25.9s11.6,25.9,25.9,25.9S79,68.3,79,54C79.1,39.7,67.4,28.1,53.1,28.1z
		 M53.1,77.8C40,77.8,29.3,67.1,29.3,54S40,30.2,53.1,30.2S76.9,40.9,76.9,54C76.9,67.1,66.2,77.8,53.1,77.8z"/>
	<path class="st0" d="M73.4,32.1c-0.4-0.4-1.1-0.4-1.5,0.1c-0.4,0.4-0.4,1.1,0.1,1.5c3.2,3,5.7,6.7,7.1,10.8c0.2,0.4,0.6,0.7,1,0.7
		c0.1,0,0.2,0,0.4-0.1c0.6-0.2,0.9-0.8,0.7-1.4C79.6,39.3,76.9,35.3,73.4,32.1z"/>
	<path class="st0" d="M78.5,31.9c-0.4-0.4-1.1-0.4-1.5,0.1c-0.4,0.4-0.4,1.1,0.1,1.5c1.9,1.8,3.4,4.1,4.3,6.5c0.2,0.4,0.6,0.7,1,0.7
		c0.1,0,0.2,0,0.4-0.1c0.6-0.2,0.9-0.8,0.7-1.4C82.4,36.5,80.7,33.9,78.5,31.9z"/>
	<path class="st0" d="M28.3,65.9c-0.3-0.5-0.9-0.8-1.4-0.5s-0.8,0.9-0.5,1.4c2,4.3,5,8,8.8,10.9c0.2,0.1,0.4,0.2,0.7,0.2
		s0.6-0.1,0.9-0.4c0.4-0.5,0.3-1.1-0.2-1.5C33,73.4,30.2,69.9,28.3,65.9z"/>
	<path class="st0" d="M26.6,70.7c-0.3-0.5-0.9-0.8-1.4-0.5s-0.8,0.9-0.5,1.4c1.3,2.7,3.2,5.1,5.6,6.9c0.2,0.1,0.4,0.2,0.7,0.2
		c0.3,0,0.6-0.1,0.9-0.4c0.4-0.5,0.3-1.1-0.2-1.5C29.4,75.2,27.7,73.1,26.6,70.7z"/>
	<path class="st0" d="M53.1,32.2C43,32.2,34.3,39.1,32,48.9c-0.1,0.3,0,0.7,0.2,0.9c0.2,0.3,0.5,0.4,0.8,0.4l0,0h40.2
		c0.3,0,0.6-0.2,0.8-0.4c0.2-0.3,0.3-0.6,0.2-0.9C71.9,39.1,63.2,32.2,53.1,32.2z M34.4,48.1C37,40,44.5,34.4,53.1,34.4
		S69.2,40,71.8,48.1L34.4,48.1z"/>
	<path class="st0" d="M58.2,56.5c0-2.8-2.3-5-5-5c-2.8,0-5,2.3-5,5s2.3,5,5,5C55.9,61.6,58.2,59.3,58.2,56.5z M53.1,59.4
		c-1.6,0-2.9-1.3-2.9-2.9c0-1.6,1.3-2.9,2.9-2.9c1.6,0,2.9,1.3,2.9,2.9C56,58.1,54.7,59.4,53.1,59.4z"/>
	<path class="st0" d="M32.5,55.5c-0.3,0-0.6,0.2-0.7,0.4c-0.2,0.2-0.3,0.5-0.2,0.8c1,9.7,8,17.5,17.5,19.4c0.1,0,0.1,0,0.2,0
		c0.3,0,0.6-0.1,0.8-0.4c0.2-0.2,0.3-0.4,0.3-0.7c0-0.4,0.4-9.6-3.6-14.9C42.6,54.8,32.9,55.5,32.5,55.5z M33.8,57.6L33.8,57.6
		c2.5,0,8.5,0.4,11.2,3.9c2.7,3.6,3.1,9.6,3.2,12.2C40.6,71.7,35,65.4,33.8,57.6z"/>
	<path class="st0" d="M59.7,60.2c-3.9,5.3-3.6,14.5-3.6,14.9c0,0.3,0.1,0.5,0.3,0.7s0.5,0.4,0.8,0.4c0.1,0,0.1,0,0.2,0
		c9.4-1.9,16.5-9.8,17.5-19.4c0-0.3-0.1-0.6-0.2-0.8c-0.2-0.2-0.5-0.4-0.7-0.4C73.5,55.5,63.8,54.8,59.7,60.2z M58.3,73.7
		c0.1-2.6,0.5-8.6,3.2-12.2c2.6-3.5,8.7-3.9,11.2-3.9C71.4,65.4,65.8,71.7,58.3,73.7z"/>
	<path class="st0" d="M54,0.5C24.5,0.5,0.5,24.5,0.5,54s24,53.5,53.5,53.5s53.5-24,53.5-53.5S83.5,0.5,54,0.5z M54,105.5
		C25.6,105.5,2.5,82.4,2.5,54S25.6,2.5,54,2.5s51.5,23.1,51.5,51.5S82.4,105.5,54,105.5z"/>
</g>
</svg>
