<?xml version="1.0" encoding="utf-8"?>
<!-- Generator: Adobe Illustrator 22.0.1, SVG Export Plug-In . SVG Version: 6.00 Build 0)  -->
<svg version="1.1" id="图层_1" xmlns="http://www.w3.org/2000/svg" xmlns:xlink="http://www.w3.org/1999/xlink" x="0px" y="0px"
	 viewBox="0 0 107 107" style="enable-background:new 0 0 107 107;" xml:space="preserve">
<style type="text/css">
	.st0{fill:#FFFFFF;}
</style>
<g>
	<path class="st0" d="M73.7,58.3c2.7-2.4,4.3-5.9,4.3-9.6c0-7.1-5.8-12.9-12.9-12.9s-12.9,5.8-12.9,12.9c0,3.3,1.3,6.4,3.5,8.8
		c-7,3.2-11.5,10.2-11.5,17.9c0,0.6,0.5,1.1,1.1,1.1s1.1-0.5,1.1-1.1c0-7.4,4.7-14.1,11.7-16.5c0,0,0,0,0.1,0s0.1-0.1,0.2-0.1
		c0.1,0,0.1-0.1,0.2-0.1c0,0,0,0,0.1,0c0,0,0-0.1,0.1-0.1c0-0.1,0.1-0.1,0.1-0.2c0-0.1,0-0.1,0-0.2c0-0.1,0-0.1,0-0.2
		c0-0.1,0-0.1,0-0.2v-0.1c0,0,0,0,0-0.1s-0.1-0.1-0.1-0.2c0-0.1-0.1-0.1-0.1-0.2c0,0,0,0,0-0.1c-2.5-2-3.9-5.1-3.9-8.3
		c0-5.9,4.8-10.7,10.7-10.7s10.7,4.8,10.7,10.7c0,3.6-1.8,6.9-4.7,8.9c0,0,0,0-0.1,0.1s-0.1,0.1-0.2,0.2l-0.1,0.1c0,0,0,0.1-0.1,0.1
		c0,0.1,0,0.1,0,0.2v0.1c0,0.1,0,0.2,0,0.3c0,0,0,0,0,0.1s0.1,0.2,0.1,0.4l0,0l0,0c0,0.1,0.1,0.1,0.2,0.2c0,0,0.1,0,0.1,0.1
		c0.1,0,0.1,0.1,0.2,0.1c6.2,2.9,10.2,9.1,10.2,15.9c0,0.6,0.5,1.1,1.1,1.1s1.1-0.5,1.1-1.1C83.6,68.3,79.8,61.8,73.7,58.3z"/>
	<path class="st0" d="M38.9,53.7c0-0.1,0-0.1,0-0.2c0-0.1,0-0.1,0-0.2v-0.1c0,0,0,0,0-0.1s-0.1-0.1-0.1-0.2c0-0.1-0.1-0.1-0.1-0.2
		c0,0,0,0,0-0.1c-2.5-2-3.9-5.1-3.9-8.3c0-5.9,4.8-10.7,10.7-10.7c2.9,0,5.6,1.1,7.6,3.1c0.4,0.4,1.1,0.4,1.5,0s0.4-1.1,0-1.5
		c-2.4-2.4-5.7-3.8-9.1-3.8c-7.1,0-12.9,5.8-12.9,12.9c0,3.3,1.3,6.4,3.5,8.8c-7,3.2-11.5,10.2-11.5,17.9c0,0.6,0.5,1.1,1.1,1.1
		s1.1-0.5,1.1-1.1c0-7.4,4.7-14.1,11.7-16.5l0,0c0.1,0,0.1-0.1,0.2-0.1c0.1-0.1,0.2-0.1,0.2-0.2c0,0,0,0,0.1,0c0,0,0-0.1,0.1-0.1
		c0-0.1,0.1-0.1,0.1-0.2C38.9,53.8,38.9,53.8,38.9,53.7z"/>
	<path class="st0" d="M54,0.5C24.5,0.5,0.5,24.5,0.5,54s24,53.5,53.5,53.5s53.5-24,53.5-53.5S83.5,0.5,54,0.5z M54,105.5
		C25.6,105.5,2.5,82.4,2.5,54S25.6,2.5,54,2.5s51.5,23.1,51.5,51.5S82.4,105.5,54,105.5z"/>
</g>
</svg>
