<?xml version="1.0" encoding="utf-8"?>
<!-- Generator: Adobe Illustrator 22.0.1, SVG Export Plug-In . SVG Version: 6.00 Build 0)  -->
<svg version="1.1" id="图层_1" xmlns="http://www.w3.org/2000/svg" xmlns:xlink="http://www.w3.org/1999/xlink" x="0px" y="0px"
	 viewBox="0 0 107 107" style="enable-background:new 0 0 107 107;" xml:space="preserve">
<style type="text/css">
	.st0{fill:#FFFFFF;}
</style>
<g>
	<path class="st0" d="M69.2,63.3L62.9,70l-3.4-3.4c-0.4-0.4-1.1-0.4-1.5,0s-0.4,1.1,0,1.5l4.2,4.2c0.2,0.2,0.5,0.3,0.8,0.3l0,0
		c0.3,0,0.6-0.1,0.8-0.3l7.1-7.5c0.4-0.4,0.4-1.1,0-1.5C70.3,62.9,69.6,62.9,69.2,63.3z"/>
	<circle class="st0" cx="41.7" cy="38.8" r="1.1"/>
	<path class="st0" d="M45.3,39.9H62c0.6,0,1.1-0.5,1.1-1.1s-0.5-1.1-1.1-1.1H45.3c-0.6,0-1.1,0.5-1.1,1.1
		C44.3,39.4,44.7,39.9,45.3,39.9z"/>
	<path class="st0" d="M41.7,45.3c-0.6,0-1.1,0.5-1.1,1.1s0.5,1.1,1.1,1.1s1.1-0.5,1.1-1.1S42.3,45.3,41.7,45.3z"/>
	<path class="st0" d="M45.3,47.5H62c0.6,0,1.1-0.5,1.1-1.1s-0.5-1.1-1.1-1.1H45.3c-0.6,0-1.1,0.5-1.1,1.1
		C44.3,47,44.7,47.5,45.3,47.5z"/>
	<path class="st0" d="M42.5,54.8c0.4-0.4,0.4-1.1-0.1-1.5c-0.4-0.4-1.1-0.4-1.5,0.1s-0.4,1.1,0.1,1.5C41.4,55.3,42.1,55.2,42.5,54.8
		z"/>
	<path class="st0" d="M45.3,55.1H62c0.6,0,1.1-0.5,1.1-1.1s-0.5-1-1.1-1H45.3c-0.6,0-1.1,0.5-1.1,1.1S44.7,55.1,45.3,55.1z"/>
	<path class="st0" d="M41.7,60.3c-0.6,0-1.1,0.5-1.1,1.1s0.5,1.1,1.1,1.1s1.1-0.5,1.1-1.1S42.3,60.3,41.7,60.3z"/>
	<path class="st0" d="M69.2,57.6V35.3c0-2.4-1.9-4.3-4.3-4.3H37.7c-2.4,0-4.3,1.9-4.3,4.3v32.4c0,2.4,1.9,4.3,4.3,4.3h17.8
		c1.8,3,5.1,4.9,8.8,4.9c5.7,0,10.3-4.6,10.3-10.3C74.6,62.8,72.4,59.4,69.2,57.6z M37.7,69.9c-1.2,0-2.1-0.9-2.1-2.1V35.3
		c0-1.2,0.9-2.1,2.1-2.1H65c1.2,0,2.1,0.9,2.1,2.1v21.4c-0.9-0.3-1.8-0.4-2.8-0.4c-3.3,0-6.2,1.6-8.1,4H45.3c-0.6,0-1.1,0.5-1.1,1.1
		s0.5,1.1,1.1,1.1h9.5c-0.6,1.3-0.9,2.7-0.9,4.2c0,1.1,0.2,2.2,0.5,3.2L37.7,69.9L37.7,69.9z M64.3,74.8c-4.5,0-8.2-3.7-8.2-8.2
		s3.7-8.2,8.2-8.2s8.2,3.7,8.2,8.2C72.4,71.1,68.8,74.8,64.3,74.8z"/>
	<path class="st0" d="M54,0.5C24.5,0.5,0.5,24.5,0.5,54s24,53.5,53.5,53.5s53.5-24,53.5-53.5S83.5,0.5,54,0.5z M54,105.5
		C25.6,105.5,2.5,82.4,2.5,54S25.6,2.5,54,2.5s51.5,23.1,51.5,51.5S82.4,105.5,54,105.5z"/>
</g>
</svg>
