<?xml version="1.0" encoding="utf-8"?>
<!-- Generator: Adobe Illustrator 22.0.1, SVG Export Plug-In . SVG Version: 6.00 Build 0)  -->
<svg version="1.1" id="图层_1" xmlns="http://www.w3.org/2000/svg" xmlns:xlink="http://www.w3.org/1999/xlink" x="0px" y="0px"
	 viewBox="0 0 107 107" style="enable-background:new 0 0 107 107;" xml:space="preserve">
<style type="text/css">
	.st0{fill:#FFFFFF;}
</style>
<g>
	<path class="st0" d="M70.3,47.9c0-0.7-0.3-1.3-0.7-1.8L61.5,38c-0.9-0.9-2.6-0.9-3.6,0l-18,18c-0.5,0.5-0.7,1.1-0.7,1.8
		s0.3,1.3,0.7,1.8l8.1,8.1c0.5,0.5,1.1,0.7,1.8,0.7s1.3-0.3,1.8-0.7l18-18C70,49.2,70.3,48.6,70.3,47.9z M68,48.2l-18,18
		c-0.1,0.1-0.4,0.1-0.5,0l-8.1-8.1c-0.1-0.1-0.1-0.2-0.1-0.3s0-0.2,0.1-0.3l18-18c0.1-0.1,0.2-0.1,0.3-0.1s0.2,0,0.3,0.1l8.1,8.1
		c0.1,0.1,0.1,0.2,0.1,0.3C68.1,48,68.1,48.1,68,48.2z"/>
	<path class="st0" d="M72.5,45.2c0.2,0.2,0.5,0.3,0.8,0.3s0.6-0.1,0.8-0.3l3.7-3.7c1.6-1.6,1.6-4.2,0-5.8l-6-6l0,0
		c-1.6-1.6-4.2-1.6-5.8,0l-3.7,3.7c-0.4,0.4-0.4,1.1,0,1.5L72.5,45.2z M67.3,31.2c0.8-0.8,2-0.8,2.8,0l0,0l6,6c0.8,0.8,0.8,2,0,2.8
		l-2.9,3l-8.8-8.8L67.3,31.2z"/>
	<path class="st0" d="M38.7,62.1c-0.6-0.6-1.5-0.9-2.4-0.7s-1.5,0.9-1.8,1.8l-3.1,11.7c-0.1,0.4,0,0.8,0.3,1
		c0.2,0.2,0.5,0.3,0.8,0.3c0.1,0,0.2,0,0.3,0l11.7-3.1c0.9-0.2,1.5-0.9,1.8-1.8c0.2-0.9,0-1.8-0.6-2.4L38.7,62.1z M44.1,70.8
		c0,0.1-0.1,0.2-0.3,0.3l-9.9,2.7l2.7-9.9c0-0.2,0.2-0.2,0.3-0.3H37c0.1,0,0.2,0,0.2,0.1l6.8,6.8C44.1,70.6,44.1,70.7,44.1,70.8z"/>
	<path class="st0" d="M40.4,52.1c0.3,0,0.6-0.1,0.8-0.3c0.4-0.4,0.4-1.1,0-1.5L39,48.1l5-5c0.4-0.4,0.4-1.1,0-1.5s-1.1-0.4-1.5,0
		l-5,5l-1.9-1.9l3.2-3.2c0.4-0.4,0.4-1.1,0-1.5s-1.1-0.4-1.5,0L34,43.1l-2.7-2.7l8.1-8.1c0.8-0.8,1.9-1.2,3-1.2s2.2,0.4,3,1.2
		l6.9,6.9c0.4,0.4,1.1,0.4,1.5,0s0.4-1.1,0-1.5l-6.9-6.9c-1.2-1.2-2.8-1.9-4.5-1.9s-3.3,0.7-4.5,1.9L29,39.6
		c-0.2,0.2-0.3,0.5-0.3,0.8s0.1,0.6,0.3,0.8l10.7,10.7C39.9,52,40.2,52.1,40.4,52.1z"/>
	<path class="st0" d="M69.7,53.6c-0.4-0.4-1.1-0.4-1.5,0s-0.4,1.1,0,1.5l7.7,7.7c0.8,0.8,1.2,1.9,1.2,3c0,1.1-0.4,2.2-1.2,3
		l-8.1,8.1l-2.6-2.6l3.2-3.2c0.4-0.4,0.4-1.1,0-1.5s-1.1-0.4-1.5,0l-3.2,3.2l-1.9-1.9l5-5c0.4-0.4,0.4-1.1,0-1.5s-1.1-0.4-1.5,0
		l-5,5l-3.2-3.2c-0.4-0.4-1.1-0.4-1.5,0s-0.4,1.1,0,1.5l7.4,7.4l0,0l0,0l4.1,4.1c0.2,0.2,0.5,0.3,0.8,0.3s0.6-0.1,0.8-0.3l8.8-8.8
		c1.2-1.2,1.9-2.8,1.9-4.5s-0.7-3.3-1.9-4.5L69.7,53.6z"/>
	<path class="st0" d="M54,0.5C24.5,0.5,0.5,24.5,0.5,54s24,53.5,53.5,53.5s53.5-24,53.5-53.5S83.5,0.5,54,0.5z M54,105.5
		C25.6,105.5,2.5,82.4,2.5,54S25.6,2.5,54,2.5s51.5,23.1,51.5,51.5S82.4,105.5,54,105.5z"/>
</g>
</svg>
