<?xml version="1.0" encoding="utf-8"?>
<!-- Generator: Adobe Illustrator 22.0.1, SVG Export Plug-In . SVG Version: 6.00 Build 0)  -->
<svg version="1.1" id="图层_1" xmlns="http://www.w3.org/2000/svg" xmlns:xlink="http://www.w3.org/1999/xlink" x="0px" y="0px"
	 viewBox="0 0 107 107" style="enable-background:new 0 0 107 107;" xml:space="preserve">
<style type="text/css">
	.st0{fill:#FFFFFF;}
</style>
<g>
	<path class="st0" d="M69.2,49c0.2-0.2,0.4-0.4,0.4-0.7c0.4-3.9-0.8-7.7-3.3-10.7s-6-4.9-9.9-5.2c-0.9-0.1-1.9-0.1-2.8,0v-6
		c0-0.6-0.5-1.1-1.1-1.1s-1.1,0.5-1.1,1.1v6.4c-5.8,1.5-10.3,6.4-11,12.7c0,0.3,0.1,0.6,0.2,0.8c0.2,0.2,0.4,0.4,0.7,0.4l0.6,0.1
		c-5,3.7-8.1,9.7-8.1,16c0,11,8.9,19.9,19.9,19.9s19.9-8.9,19.9-19.9c0-5.1-1.9-9.8-5.3-13.5C68.9,49.2,69,49.2,69.2,49z M56.3,34.5
		c3.3,0.3,6.3,1.9,8.4,4.5c1.9,2.3,2.9,5.1,2.8,8l-24.6-2.4C44,38.4,49.8,33.9,56.3,34.5z M54,80.5c-9.8,0-17.8-8-17.8-17.8
		c0-6.4,3.5-12.3,9-15.5c0.1-0.1,0.2-0.1,0.2-0.2l19.8,2c4.2,3.4,6.6,8.4,6.6,13.8C71.8,72.6,63.8,80.5,54,80.5z"/>
	<path class="st0" d="M56,36.7c-2.1,0-3.8,1.7-3.8,3.8s1.7,3.8,3.8,3.8s3.8-1.7,3.8-3.8S58.1,36.7,56,36.7z M56,42.1
		c-0.9,0-1.6-0.7-1.6-1.6c0-0.9,0.7-1.6,1.6-1.6c0.9,0,1.6,0.7,1.6,1.6C57.6,41.4,56.9,42.1,56,42.1z"/>
	<path class="st0" d="M53.8,50.3c-7,0-12.7,5.7-12.7,12.7s5.7,12.7,12.7,12.7S66.5,70,66.5,63C66.5,56,60.8,50.3,53.8,50.3z
		 M53.8,73.5c-5.8,0-10.6-4.7-10.6-10.6c0-5.8,4.7-10.6,10.6-10.6c5.8,0,10.6,4.7,10.6,10.6C64.4,68.8,59.6,73.5,53.8,73.5z"/>
	<path class="st0" d="M60.3,61.9c-0.6,0-1.1,0.5-1.1,1.1c0,3-2.4,5.4-5.4,5.4S48.4,66,48.4,63s2.4-5.4,5.4-5.4
		c0.6,0,1.1-0.5,1.1-1.1s-0.5-1.1-1.1-1.1c-4.2,0-7.5,3.4-7.5,7.5c0,4.2,3.4,7.5,7.5,7.5c4.2,0,7.5-3.4,7.5-7.5
		C61.4,62.4,60.9,61.9,60.3,61.9z"/>
	<path class="st0" d="M54,0.5C24.5,0.5,0.5,24.5,0.5,54s24,53.5,53.5,53.5s53.5-24,53.5-53.5S83.5,0.5,54,0.5z M54,105.5
		C25.6,105.5,2.5,82.4,2.5,54S25.6,2.5,54,2.5s51.5,23.1,51.5,51.5S82.4,105.5,54,105.5z"/>
</g>
</svg>
