<?xml version="1.0" encoding="utf-8"?>
<!-- Generator: Adobe Illustrator 22.0.1, SVG Export Plug-In . SVG Version: 6.00 Build 0)  -->
<svg version="1.1" id="图层_1" xmlns="http://www.w3.org/2000/svg" xmlns:xlink="http://www.w3.org/1999/xlink" x="0px" y="0px"
	 viewBox="0 0 107 107" style="enable-background:new 0 0 107 107;" xml:space="preserve">
<style type="text/css">
	.st0{fill:#FFFFFF;}
</style>
<g>
	<path class="st0" d="M73.3,36.2H68c-0.4-0.7-1-1.2-1.7-1.6c0-0.1,0-0.3,0-0.4c0-2.4-1.8-4.4-4.2-4.6c-0.8-1.5-2.3-2.5-4.1-2.5
		c-1.5,0-2.7,0.7-3.6,1.7c-0.9-1-2.1-1.7-3.6-1.7c-1.8,0-3.3,1-4.1,2.5c-2.3,0.2-4.2,2.2-4.2,4.6c0,0.1,0,0.3,0,0.4
		c-0.5,0.4-1.1,1-1.5,1.6h-6.3c-3.6,0-6.5,2.9-6.5,6.5v26.1c0,3.6,2.9,6.5,6.5,6.5h18.8v3.3h-10c-0.6,0-1.1,0.5-1.1,1.1
		s0.5,1.1,1.1,1.1h22.9c0.6,0,1.1-0.5,1.1-1.1s-0.5-1.1-1.1-1.1H55.6v-3.3h17.8c3.6,0,6.5-2.9,6.5-6.5V42.7
		C79.9,39.1,76.9,36.2,73.3,36.2z M58.1,29.3c1.4,0,2.5,1.1,2.5,2.5s-1.1,2.5-2.5,2.5c-0.6,0-1.1,0.5-1.1,1.1s0.5,1.1,1.1,1.1
		c2.5,0,4.6-2,4.7-4.6c0.9,0.4,1.5,1.3,1.5,2.3c0,1.4-1.1,2.5-2.5,2.5c-0.6,0-1.1,0.5-1.1,1.1s0.5,1.1,1.1,1.1
		c1.7,0,3.1-0.9,3.9-2.2c0.6,0.5,1,1.2,1,2c0,1-0.6,2-1.6,2.4c-0.5,0.2-0.8,0.7-0.6,1.2c0,0.6-0.3,1.1-0.8,1.3C62.7,42,61,41,59,41
		c-0.6,0-1.1,0.5-1.1,1.1s0.5,1.1,1.1,1.1c1.8,0,3.4,1.5,3.4,3.4c0,1.8-1.5,3.4-3.4,3.4c-1.8,0-3.4-1.5-3.4-3.4V31.8
		C55.6,30.4,56.8,29.3,58.1,29.3z M58.8,55.2c0.3,0,0.6,0.3,0.6,0.6s-0.3,0.6-0.6,0.6s-0.6-0.2-0.6-0.6
		C58.2,55.5,58.5,55.2,58.8,55.2z M43.4,36.7c0.8,1.3,2.3,2.2,3.9,2.2c0.6,0,1.1-0.5,1.1-1.1s-0.5-1.1-1.1-1.1
		c-1.4,0-2.5-1.1-2.5-2.5c0-1,0.6-1.9,1.5-2.3c0.1,2.5,2.1,4.6,4.7,4.6c0.6,0,1.1-0.5,1.1-1.1s-0.5-1.1-1.1-1.1
		c-1.4,0-2.5-1.1-2.5-2.5s1.1-2.5,2.5-2.5s2.5,1.1,2.5,2.5v14.7c0,1.8-1.5,3.4-3.4,3.4s-3.4-1.5-3.4-3.4c0-1.8,1.5-3.4,3.4-3.4
		c0.6,0,1.1-0.5,1.1-1.1s-0.5-1.1-1.1-1.1c-2,0-3.7,1-4.7,2.6c-0.2-0.1-0.4-0.2-0.5-0.4c-0.2-0.3-0.3-0.6-0.3-0.9
		c0.1-0.5-0.1-1.1-0.6-1.3c-1-0.4-1.6-1.3-1.6-2.4C42.4,37.9,42.8,37.2,43.4,36.7z M51.1,55.8c0,0.3-0.3,0.6-0.6,0.6
		s-0.6-0.2-0.6-0.6c0-0.3,0.3-0.6,0.6-0.6C50.9,55.2,51.1,55.5,51.1,55.8z M34.7,38.4h5.6c0,0.1,0,0.2,0,0.4c0,1.7,0.9,3.2,2.3,4
		c0.1,0.7,0.3,1.4,0.8,1.9c0.4,0.5,0.9,0.8,1.4,1c0,0.3-0.1,0.6-0.1,0.9l0,0h-2.9c-0.4-1.3-1.6-2.2-3.1-2.2c-1.8,0-3.3,1.5-3.3,3.3
		c0,1.4,0.9,2.6,2.2,3.1v1c-1.3,0.4-2.2,1.6-2.2,3.1c0,1.8,1.5,3.3,3.3,3.3s3.3-1.5,3.3-3.3c0-1.4-0.9-2.6-2.2-3.1v-1
		c0.9-0.3,1.7-1.1,2-2h3.4c0.8,1.8,2.4,3.1,4.5,3.3v1.3c-1,0.4-1.6,1.4-1.6,2.5c0,1.5,1.2,2.7,2.7,2.7s2.7-1.2,2.7-2.7
		c0-1.1-0.7-2.1-1.6-2.5v-1.5c1.2-0.3,2.2-1.1,2.9-2c0.8,1,1.9,1.8,3.1,2.1v1.4c-1,0.4-1.6,1.4-1.6,2.5c0,1.5,1.2,2.7,2.7,2.7
		c1.1,0,2.1-0.7,2.5-1.6h2.1c0.3,0.9,1.1,1.7,2,2v1c-1,0.4-1.6,1.4-1.6,2.5c0,1.5,1.2,2.7,2.7,2.7s2.7-1.2,2.7-2.7
		c0-1.1-0.7-2.1-1.6-2.5v-1c1.3-0.4,2.2-1.6,2.2-3.1c0-1.8-1.5-3.3-3.3-3.3c-1.4,0-2.6,0.9-3.1,2.2h-2.1c-0.3-0.6-0.8-1.1-1.4-1.4
		V52c1.9-0.3,3.5-1.6,4.2-3.3h2.6c0.4,1.3,1.6,2.2,3.1,2.2c1.8,0,3.3-1.5,3.3-3.3s-1.5-3.3-3.3-3.3c-1.4,0-2.6,0.9-3.1,2.2h-2.1l0,0
		c0-0.3,0-0.6-0.1-0.9c1.2-0.5,2.1-1.6,2.2-2.9c1.4-0.8,2.3-2.3,2.3-4c0-0.1,0-0.2,0-0.4h4.5c2.4,0,4.4,2,4.4,4.4v24H30.3v-24
		C30.3,40.3,32.3,38.4,34.7,38.4z M38.6,53.6c0.6,0,1.1,0.5,1.1,1.1s-0.5,1.1-1.1,1.1s-1.1-0.5-1.1-1.1S38,53.6,38.6,53.6z
		 M38.6,48.7c-0.6,0-1.1-0.5-1.1-1.1s0.5-1.1,1.1-1.1s1.1,0.5,1.1,1.1S39.2,48.7,38.6,48.7z M66.4,61.8c0.3,0,0.6,0.2,0.6,0.6
		S66.7,63,66.4,63c-0.3,0-0.6-0.2-0.6-0.6S66.1,61.8,66.4,61.8z M66.4,56.9c-0.6,0-1.1-0.5-1.1-1.1s0.5-1.1,1.1-1.1s1.1,0.5,1.1,1.1
		S67,56.9,66.4,56.9z M68.5,47.6c0-0.6,0.5-1.1,1.1-1.1s1.1,0.5,1.1,1.1s-0.5,1.1-1.1,1.1S68.5,48.2,68.5,47.6z M73.3,73.2H34.7
		c-2.4,0-4.4-2-4.4-4.4l0,0h47.4l0,0C77.7,71.3,75.7,73.2,73.3,73.2z"/>
	<path class="st0" d="M54,0.5C24.5,0.5,0.5,24.5,0.5,54s24,53.5,53.5,53.5s53.5-24,53.5-53.5S83.5,0.5,54,0.5z M54,105.5
		C25.6,105.5,2.5,82.4,2.5,54S25.6,2.5,54,2.5s51.5,23.1,51.5,51.5S82.4,105.5,54,105.5z"/>
</g>
</svg>
