<?xml version="1.0" encoding="utf-8"?>
<!-- Generator: Adobe Illustrator 22.0.1, SVG Export Plug-In . SVG Version: 6.00 Build 0)  -->
<svg version="1.1" id="图层_1" xmlns="http://www.w3.org/2000/svg" xmlns:xlink="http://www.w3.org/1999/xlink" x="0px" y="0px"
	 viewBox="0 0 107 107" style="enable-background:new 0 0 107 107;" xml:space="preserve">
<style type="text/css">
	.st0{fill:#FFFFFF;}
</style>
<g>
	<path class="st0" d="M70.1,48.1c0-0.2,0.1-0.5,0.1-0.7c0-3.1-2.4-5.6-5.4-5.8c-1-1.9-2.9-3.2-5.2-3.2c-2,0-3.7,1-4.7,2.5
		c-1.1-1.5-2.8-2.5-4.7-2.5c-2.3,0-4.2,1.3-5.2,3.2c-3,0.2-5.4,2.7-5.4,5.8c0,0.2,0,0.5,0.1,0.7c-2,1-3.2,3-3.2,5.2
		c0,2.1,1.1,4.1,3,5.1c0,0.9,0.4,1.8,1,2.5c0.5,0.6,1.2,1.1,1.9,1.3c-0.1,0.5-0.1,0.9-0.1,1.4c0,3.8,3.1,6.9,6.9,6.9
		c2.5,0,4.6-1.3,5.8-3.2c1.2,1.9,3.4,3.2,5.8,3.2c3.8,0,6.9-3.1,6.9-6.9c0-0.5,0-0.9-0.1-1.4c1.7-0.5,2.8-2.1,2.9-3.8
		c1.8-1,3-2.9,3-5.1C73.3,51,72,49,70.1,48.1z M49,68.3c-2.6,0-4.8-2.1-4.8-4.8c0-2.6,2.1-4.8,4.8-4.8c0.6,0,1.1-0.5,1.1-1.1
		s-0.5-1.1-1.1-1.1c-2.6,0-4.8,1.4-6,3.5c-0.4-0.1-0.8-0.3-1.1-0.7s-0.5-0.9-0.5-1.4c0.2-0.5-0.1-1.1-0.6-1.3
		c-1.4-0.6-2.3-1.9-2.3-3.4c0-1.3,0.7-2.5,1.7-3.1c1,1.8,2.9,3,5.1,3c0.6,0,1.1-0.5,1.1-1.1s-0.5-1.1-1.1-1.1c-2,0-3.7-1.6-3.7-3.7
		c0-1.7,1.1-3,2.6-3.5c0,0.1,0,0.2,0,0.3c0,3.2,2.6,5.8,5.8,5.8c0.6,0,1.1-0.5,1.1-1.1s-0.5-1.1-1.1-1.1c-2,0-3.7-1.6-3.7-3.7
		c0-2,1.6-3.7,3.7-3.7c2,0,3.7,1.6,3.7,3.7v19.4C53.7,66.2,51.6,68.3,49,68.3z M68.8,56.7c-0.5,0.2-0.8,0.8-0.6,1.3
		c0,1-0.6,1.9-1.5,2.1c-1.2-2.1-3.4-3.5-6-3.5c-0.6,0-1.1,0.5-1.1,1.1s0.5,1.1,1.1,1.1c2.6,0,4.8,2.1,4.8,4.8c0,2.6-2.1,4.8-4.8,4.8
		c-2.6,0-4.8-2.1-4.8-4.8V44.2c0-2,1.6-3.7,3.7-3.7c2,0,3.7,1.6,3.7,3.7c0,2-1.6,3.7-3.7,3.7c-0.6,0-1.1,0.5-1.1,1.1
		s0.5,1.1,1.1,1.1c3.2,0,5.8-2.6,5.8-5.8c0-0.1,0-0.2,0-0.3c1.5,0.5,2.6,1.8,2.6,3.5c0,2-1.6,3.7-3.7,3.7c-0.6,0-1.1,0.5-1.1,1.1
		s0.5,1.1,1.1,1.1c2.2,0,4.1-1.2,5.1-3c1.1,0.7,1.7,1.8,1.7,3.1C71.1,54.8,70.2,56.1,68.8,56.7z"/>
	<path class="st0" d="M70,30.2H38.5c-0.6,0-0.6,0-8.7,7.9c-0.2,0.2-0.3,0.5-0.3,0.8v30.5c0,4.7,3.8,8.5,8.5,8.5h32
		c4.7,0,8.5-3.8,8.5-8.5V38.7C78.5,34,74.7,30.2,70,30.2z M76.4,69.3c0,3.5-2.8,6.3-6.3,6.3H38c-3.5,0-6.3-2.8-6.3-6.3v-30
		c2.5-2.4,6.2-6,7.2-6.9H70c3.5,0,6.3,2.8,6.3,6.3L76.4,69.3L76.4,69.3z"/>
	<path class="st0" d="M54,0.5C24.5,0.5,0.5,24.5,0.5,54s24,53.5,53.5,53.5s53.5-24,53.5-53.5S83.5,0.5,54,0.5z M54,105.5
		C25.6,105.5,2.5,82.4,2.5,54S25.6,2.5,54,2.5s51.5,23.1,51.5,51.5S82.4,105.5,54,105.5z"/>
</g>
</svg>
