<?xml version="1.0" encoding="utf-8"?>
<!-- Generator: Adobe Illustrator 22.1.0, SVG Export Plug-In . SVG Version: 6.00 Build 0)  -->
<svg version="1.1" id="图层_1" xmlns="http://www.w3.org/2000/svg" xmlns:xlink="http://www.w3.org/1999/xlink" x="0px" y="0px"
	 viewBox="0 0 1024 1280" style="enable-background:new 0 0 1024 1280;" xml:space="preserve">
<style type="text/css">
	.st0{fill:#FFFFFF;}
</style>
<g>
	<g>
		<path class="st0" d="M554.4,768.8L539,722.1l-17.5,5.7l-2.1-6.3l42-13.8l2.1,6.3l-17.5,5.8l15.4,46.7L554.4,768.8z"/>
		<path class="st0" d="M600.8,739.9l7-1.4c0.2,4.3-0.7,8-2.9,11.1c-2.2,3.1-5.5,5.4-9.9,6.9c-5.6,1.8-10.6,1.6-15.1-0.8
			c-4.4-2.4-7.7-6.7-9.7-12.9c-2.1-6.5-2.1-12,0-16.7c2.2-4.7,5.9-7.9,11.2-9.6c5.1-1.7,9.9-1.3,14.3,1.1s7.6,6.8,9.7,13.1
			c0.1,0.4,0.3,1,0.5,1.7l-28.6,9.4c1.6,4.1,3.9,7,6.8,8.5c2.9,1.5,5.9,1.8,9.1,0.7c2.4-0.8,4.2-2.1,5.5-3.9
			C600,745.4,600.7,742.9,600.8,739.9z M576,736.4l21.4-7.1c-1.4-3.1-3-5.3-4.8-6.5c-2.9-1.8-6-2.2-9.3-1.1c-3,1-5.2,2.8-6.5,5.5
			C575.3,729.9,575.1,733,576,736.4z"/>
		<path class="st0" d="M641.6,724.5l6.7-1.3c0.8,4.6,0.1,8.7-2,12.1c-2.1,3.4-5.2,5.9-9.4,7.2c-5.3,1.7-10,1.4-14.4-1
			c-4.3-2.4-7.5-6.8-9.7-13.2c-1.4-4.1-1.9-8-1.5-11.6c0.4-3.6,1.7-6.6,4-9.1c2.3-2.5,5.1-4.3,8.4-5.3c4.2-1.4,7.9-1.4,11.3-0.2
			c3.3,1.2,6,3.7,8.1,7.3l-6,3.1c-1.5-2.4-3.2-4-5.1-4.8c-2-0.8-4-0.8-6.2-0.1c-3.3,1.1-5.6,3.1-6.8,6.2c-1.3,3-1.1,7.1,0.6,12.2
			c1.7,5.2,3.9,8.6,6.7,10.3c2.7,1.7,5.7,2,8.9,1c2.6-0.8,4.4-2.3,5.6-4.5C642,730.7,642.3,727.9,641.6,724.5z"/>
		<path class="st0" d="M659.7,734.1l-17.4-53l6.5-2.1l6.3,19c1.9-4.5,5.1-7.5,9.8-9.1c2.8-0.9,5.5-1.2,8-0.8c2.5,0.4,4.5,1.5,6,3.2
			c1.6,1.7,3,4.4,4.2,8.2l8,24.3l-6.5,2.1l-8-24.3c-1.1-3.3-2.6-5.4-4.5-6.4c-1.9-1-4.1-1.1-6.7-0.3c-1.9,0.6-3.6,1.7-4.9,3.3
			c-1.4,1.6-2.1,3.3-2.3,5.3c-0.2,1.9,0.3,4.4,1.2,7.4l6.9,21L659.7,734.1z"/>
		<path class="st0" d="M702.4,720.1l-12.6-38.4l5.9-1.9l1.8,5.5c1.4-5.1,4.8-8.6,10.1-10.3c2.3-0.8,4.6-1,6.8-0.9
			c2.2,0.2,4,0.8,5.4,1.8s2.6,2.4,3.6,4.1c0.6,1.1,1.5,3.2,2.4,6.2l7.8,23.6l-6.5,2.1l-7.7-23.3c-0.9-2.7-1.8-4.5-2.7-5.7
			c-0.9-1.1-2.2-1.9-3.7-2.3c-1.5-0.4-3.2-0.3-4.9,0.3c-2.8,0.9-4.9,2.6-6.3,5c-1.4,2.4-1.3,6.1,0.3,11l6.9,21L702.4,720.1z"/>
		<path class="st0" d="M736.3,687.7c-2.3-7.1-2.1-13,0.7-17.7c2.4-3.9,5.9-6.7,10.7-8.2c5.3-1.7,10.2-1.4,14.6,0.9
			c4.5,2.4,7.7,6.6,9.7,12.7c1.6,4.9,2.2,9.1,1.6,12.4c-0.5,3.3-2,6.2-4.3,8.7c-2.3,2.5-5.1,4.3-8.5,5.4c-5.4,1.8-10.3,1.5-14.7-0.9
			C741.7,698.6,738.4,694.1,736.3,687.7z M743,685.5c1.6,4.9,3.9,8.2,6.9,10c3,1.7,6.1,2.1,9.3,1c3.2-1.1,5.5-3.2,6.8-6.3
			c1.3-3.2,1.2-7.3-0.5-12.3c-1.6-4.7-3.8-8-6.8-9.7c-3-1.7-6-2.1-9.3-1c-3.3,1.1-5.6,3.2-6.9,6.3
			C741.2,676.5,741.3,680.5,743,685.5z"/>
		<path class="st0" d="M787.5,692.1l-17.4-53l6.5-2.1l17.4,53L787.5,692.1z"/>
		<path class="st0" d="M796.9,667.7c-2.3-7.1-2.1-13,0.7-17.7c2.4-3.9,5.9-6.7,10.7-8.2c5.3-1.7,10.2-1.4,14.6,0.9
			c4.5,2.4,7.7,6.6,9.7,12.7c1.6,4.9,2.2,9.1,1.6,12.4c-0.5,3.3-2,6.2-4.3,8.7c-2.3,2.5-5.1,4.3-8.5,5.4c-5.4,1.8-10.3,1.5-14.7-0.9
			C802.3,678.6,799,674.2,796.9,667.7z M803.5,665.5c1.6,4.9,3.9,8.2,6.9,10c3,1.7,6.1,2.1,9.3,1c3.2-1.1,5.5-3.2,6.8-6.3
			s1.2-7.3-0.5-12.3c-1.6-4.7-3.8-8-6.8-9.7c-3-1.7-6-2.1-9.3-1c-3.3,1.1-5.6,3.2-6.9,6.3C801.8,656.6,801.9,660.6,803.5,665.5z"/>
		<path class="st0" d="M848.1,675.6l6.6-1.1c0.9,1.9,2.1,3,3.6,3.5c2,0.7,4.4,0.5,7.2-0.4c3-1,5.1-2.4,6.4-4.1
			c1.2-1.7,1.8-3.8,1.7-6.2c-0.1-1.4-0.9-4.3-2.3-8.5c-1.7,4.3-4.7,7.1-9,8.5c-5.3,1.7-10,1.2-14.1-1.7c-4.1-2.9-7.1-6.9-8.8-12.3
			c-1.2-3.7-1.7-7.3-1.4-10.8c0.3-3.5,1.4-6.6,3.4-9.1c2-2.5,4.6-4.3,8-5.5c4.5-1.5,8.9-0.9,13,1.8l-1.5-4.6l6-2l10.9,33.2
			c2,6,2.8,10.4,2.4,13.3c-0.4,2.9-1.7,5.5-3.8,7.8c-2.2,2.3-5.2,4.1-9,5.4c-4.6,1.5-8.6,1.7-12.1,0.6
			C851.8,682.5,849.4,679.8,848.1,675.6z M845.9,650.8c1.7,5,3.9,8.4,6.6,10c2.8,1.7,5.6,2,8.7,1c3-1,5.1-3,6.4-5.9
			s1.1-6.9-0.5-11.8c-1.5-4.7-3.8-7.9-6.6-9.6c-2.9-1.7-5.8-2.1-8.7-1.1c-2.9,1-5,2.9-6.2,6C844.2,642.4,844.4,646.2,845.9,650.8z"
			/>
		<path class="st0" d="M895.5,672.9l-2.7-5.9c1.5-0.1,2.9-0.3,3.9-0.6c1.4-0.5,2.5-1.1,3.2-1.9c0.7-0.8,1.2-1.7,1.5-2.7
			c0.2-0.8,0.3-2.6,0.4-5.5c0-0.4,0-1,0.1-1.8l-27.2-33.7l7-2.3l15.3,19.6c2,2.5,3.9,5.1,5.7,8c-0.2-3.2-0.3-6.4-0.2-9.6l0.8-25.1
			l6.5-2.1l-1.7,43.8c-0.2,4.7-0.4,8-0.8,9.9c-0.5,2.5-1.3,4.5-2.4,6c-1.2,1.5-2.8,2.6-4.9,3.3C898.7,672.7,897.2,672.9,895.5,672.9
			z"/>
	</g>
	<g>
		<g>
			<path class="st0" d="M112.8,653.2l33.3-11.2c10.1-3.4,19.1-5.8,27-7.2c7.9-1.4,16.2-0.7,24.8,2c7.6,2.5,14.2,6.4,19.9,11.9
				c5.7,5.4,10.6,11.4,14.7,18c4.1,6.5,7.5,13,10.1,19.3c2.6,6.4,4.6,11.6,6,15.8c5.8,17.2,8.9,33,9.5,47.5
				c0.6,14.5-2.4,27.4-9,38.9c-2.4,3.9-6,8-11,12.2c-4.9,4.3-11.8,7.9-20.7,10.8L171,826.8L112.8,653.2z M195.7,784.7l10.4-3.5
				c0.9-0.3,2.2-0.8,4-1.5c1.8-0.7,3.6-1.8,5.3-3.2c1.7-1.4,3.3-3.2,4.7-5.3c1.4-2.1,2.1-4.8,2.2-8.1c0-2.9-0.4-6.4-1.1-10.6
				c-0.7-4.2-1.6-8.4-2.7-12.7c-1-4.3-2.2-8.4-3.4-12.3c-1.2-3.9-2.2-7.1-3.1-9.5c-4.4-13.2-8.5-23.4-12.2-30.7
				c-3.7-7.3-7.2-12.5-10.6-15.7c-3.4-3.2-6.8-4.9-10.2-5c-3.4-0.1-7,0.5-10.8,1.8l-10.4,3.5L195.7,784.7z"/>
			<path class="st0" d="M300,718.5c3.5,11.6,7.1,20.1,10.9,25.6c3.8,5.5,8.8,7.2,15,5.1c4.9-1.6,7.5-4.6,8-9c0.5-4.4,0-10-1.2-16.7
				l28.1-6.8c1.5,5.5,2.2,11.2,2.4,17c0.1,5.8-0.8,11.5-2.6,16.8c-1.9,5.4-5,10.2-9.3,14.6c-4.3,4.3-10.2,7.8-17.7,10.3
				c-8.5,2.8-16.2,3.7-23.2,2.6c-6.9-1.1-13.2-4-18.8-8.5c-5.6-4.5-10.5-10.6-14.9-18.2c-4.4-7.6-8.2-16.4-11.5-26.2
				c-2.6-7.8-4.6-16-6-24.5c-1.4-8.5-1.5-16.6-0.2-24.3c1.3-7.7,4.2-14.5,8.7-20.6c4.5-6.1,11.5-10.7,20.9-13.8
				c5.4-1.8,10.4-2.6,14.9-2.5c4.6,0.1,8.8,0.9,12.6,2.3c3.8,1.4,7.3,3.3,10.5,5.8c3.1,2.4,5.9,5.1,8.4,7.9c2.7,3,5.2,6.4,7.4,10.3
				c2.2,3.9,4.1,7.9,5.9,12.1c1.8,4.1,3.4,8.1,4.7,12c1.4,3.9,2.6,7.2,3.5,10L300,718.5z M318.5,688.8c-3.5-10-7-16.8-10.3-20.4
				c-3.3-3.6-7-4.7-11-3.4c-3.1,1-5.2,2.8-6.3,5.3c-1.1,2.5-1.7,5.3-1.7,8.4c0,3.1,0.4,6.3,1.2,9.7c0.8,3.4,1.6,6.4,2.3,9.1
				L318.5,688.8z"/>
			<path class="st0" d="M392.5,687.5c3.5,11.6,7.1,20.1,10.9,25.6c3.8,5.5,8.8,7.2,15,5.1c4.9-1.6,7.5-4.6,8-9
				c0.5-4.4,0-10-1.2-16.7l28.1-6.8c1.5,5.5,2.2,11.2,2.4,17c0.1,5.8-0.8,11.5-2.6,16.8c-1.9,5.4-5,10.2-9.3,14.6
				c-4.3,4.3-10.2,7.8-17.7,10.3c-8.5,2.8-16.2,3.7-23.2,2.6c-6.9-1.1-13.2-4-18.8-8.5c-5.6-4.5-10.5-10.6-14.9-18.2
				c-4.4-7.6-8.2-16.4-11.5-26.2c-2.6-7.8-4.6-16-6-24.5c-1.4-8.5-1.5-16.6-0.2-24.3c1.3-7.7,4.2-14.5,8.7-20.6
				c4.5-6.1,11.5-10.7,20.9-13.8c5.4-1.8,10.4-2.6,14.9-2.5c4.6,0.1,8.8,0.9,12.6,2.3c3.8,1.4,7.3,3.3,10.5,5.8
				c3.1,2.4,5.9,5.1,8.4,7.9c2.7,3,5.2,6.4,7.4,10.3c2.2,3.9,4.1,7.9,5.9,12.1c1.8,4.1,3.4,8.1,4.7,12c1.4,3.9,2.6,7.2,3.5,10
				L392.5,687.5z M410.9,657.9c-3.5-10-7-16.8-10.3-20.4c-3.3-3.6-7-4.7-11-3.4c-3.1,1-5.2,2.8-6.3,5.3c-1.1,2.5-1.7,5.3-1.7,8.4
				c0,3.1,0.4,6.3,1.2,9.7c0.8,3.4,1.6,6.4,2.3,9.1L410.9,657.9z"/>
			<path class="st0" d="M432.9,596.4l28.9-9.7l4.8,14.3c0.3-1.4,0.8-3.3,1.5-5.6c0.7-2.3,1.7-4.6,3-7c1.3-2.4,3.1-4.6,5.3-6.6
				c2.2-2,5.1-3.6,8.5-4.7c7.6-2.6,14.5-2.2,20.6,1.1c6.1,3.3,11.4,7.8,16,13.6c4.6,5.8,8.4,12.2,11.5,19.3c3.1,7.1,5.5,13,7.1,17.9
				c1,3,2.1,6.6,3.4,11c1.3,4.4,2.4,9.2,3.2,14.4c0.9,5.2,1.5,10.6,1.8,16.2c0.3,5.6,0.1,10.9-0.7,16c-0.2,1.2-0.6,2.9-1.3,4.9
				c-0.7,2.1-1.7,4.1-3.1,6.3c-1.4,2.1-3.3,4.1-5.6,6.1c-2.3,1.9-5.3,3.5-9,4.7c-5.7,1.9-10.5,2.2-14.2,0.7
				c-3.8-1.4-6.9-2.9-9.3-4.4l24.6,73.4l-32.5,10.9L432.9,596.4z M493.9,670.6c2,6.1,4.1,11,6.1,14.9c2.1,3.8,5.3,5,9.6,3.6
				c1.4-0.5,2.8-1.4,4.1-2.8c1.4-1.4,1.9-3.8,1.8-7.3c-0.1-2.7-0.6-5.7-1.4-9.2c-0.8-3.5-1.7-7-2.6-10.4c-1-3.4-1.9-6.6-2.9-9.6
				c-1-2.9-1.8-5.3-2.4-7c-1.4-4.2-2.6-7.7-3.7-10.6c-1.1-2.9-2-5.5-2.9-7.7c-0.8-2.2-1.6-4.1-2.4-5.7c-0.7-1.6-1.4-3-2-4.4
				c-1.3-2.8-3.1-5.3-5.4-7.3c-2.2-2-4.9-2.6-8-1.5c-2.3,0.8-3.8,1.9-4.6,3.4c-0.8,1.5-1.2,3.3-1.2,5.2c0.1,1.9,0.4,3.8,0.9,5.6
				c0.5,1.9,1,3.4,1.4,4.6L493.9,670.6z"/>
			<path class="st0" d="M517.7,517.6l47.4-15.9c5.2-1.7,9.9-3.3,14.2-4.6c4.3-1.3,8.2-2.2,11.9-2.5c3.6-0.4,7.1-0.2,10.5,0.5
				c3.3,0.7,6.8,2.1,10.4,4.2c4.1,2.3,8,5.7,11.9,10.1c3.9,4.4,7.3,10.8,10.1,19.3c2.4,7.1,3.6,13.2,3.7,18.3
				c0.1,5.1-0.6,9.4-1.9,12.8c-1.4,3.4-3,6.3-5,8.5c-2,2.2-3.8,4.1-5.6,5.7c1.7,0,4.4,0.2,7.9,0.6c3.5,0.4,7.2,1.7,11.2,3.9
				c3.9,2.3,7.9,5.7,11.9,10.4c4,4.7,7.4,11.3,10.3,20c1.6,4.9,2.6,9.3,3.1,13.5c0.4,4.1,0.4,7.9,0,11.3c-0.4,3.4-1,6.4-1.9,9
				c-0.9,2.6-1.8,4.8-2.7,6.7c-1.7,3.5-4,6.5-6.9,9.1c-2.9,2.6-6,4.9-9.5,6.8c-3.4,1.9-6.8,3.5-10.1,4.8c-3.3,1.3-6.3,2.4-8.9,3.3
				l-53.6,18L517.7,517.6z M575.5,576.1l13-4.4c4.7-1.6,8.1-3.5,10.2-5.7c2.1-2.3,3.5-4.6,4-7.1c0.5-2.5,0.5-4.9,0-7.2
				c-0.5-2.3-1.1-4.5-1.7-6.4c-2.1-6.4-5.4-11.2-9.7-14.4c-4.3-3.2-10-3.6-16.9-1.3l-13,4.4L575.5,576.1z M600.5,650.8l14.1-4.7
				c3.3-1.1,6.1-2.4,8.5-3.9c2.4-1.5,4.2-3.4,5.5-5.7c1.2-2.3,1.9-5.2,1.9-8.6c0-3.4-0.8-7.5-2.4-12.4c-0.3-0.9-1.1-2.9-2.5-6.2
				c-1.4-3.3-3.6-6.3-6.6-8.9c-3-2.7-6.1-3.9-9.2-3.6c-3.1,0.3-7.2,1.2-12.2,2.9l-12.8,4.3L600.5,650.8z"/>
			<path class="st0" d="M633.5,478.8l33.3-11.2L725,641.3l-33.3,11.2L633.5,478.8z"/>
			<path class="st0" d="M826.3,607.4l-29.7,9.9l-6-18c-0.5,3.2-1.1,6.3-1.8,9.3c-0.7,3-1.9,5.8-3.5,8.5c-1.6,2.6-3.8,5-6.4,7.2
				c-2.7,2.1-6.1,3.9-10.2,5.3c-7.3,2.4-13.3,3.1-18.1,1.8c-4.7-1.2-8.7-3.5-11.9-7c-3.2-3.5-5.8-7.7-7.7-12.6
				c-1.9-4.9-3.8-10-5.5-15.2l-29.6-88.3l33.3-11.2l29.6,88.5c0.6,1.9,1.3,3.8,2,5.6c0.7,1.8,1.6,3.3,2.8,4.4c1.2,1.2,2.5,2,4,2.6
				c1.5,0.6,3.5,0.4,5.9-0.4c4.7-1.6,7.2-4.1,7.6-7.6c0.4-3.5-0.8-9.4-3.6-17.5l-27.6-82.5l33.3-11.2L826.3,607.4z"/>
			<path class="st0" d="M849.9,534.3c3.5,11.6,7.1,20.1,10.9,25.6c3.8,5.5,8.8,7.2,15,5.1c4.9-1.6,7.5-4.6,8-9
				c0.5-4.4,0-10-1.2-16.7l28.1-6.8c1.5,5.5,2.2,11.2,2.4,17c0.1,5.8-0.8,11.5-2.6,16.8c-1.9,5.4-5,10.2-9.3,14.6
				c-4.3,4.3-10.2,7.8-17.7,10.3c-8.5,2.8-16.2,3.7-23.2,2.6c-6.9-1.1-13.2-4-18.8-8.5c-5.6-4.5-10.5-10.6-14.9-18.2
				c-4.4-7.6-8.2-16.4-11.5-26.2c-2.6-7.8-4.6-16-6-24.5c-1.4-8.5-1.5-16.6-0.2-24.3c1.3-7.7,4.2-14.5,8.7-20.6
				c4.5-6.1,11.5-10.7,20.9-13.8c5.4-1.8,10.4-2.6,14.9-2.5c4.6,0.1,8.8,0.9,12.6,2.3c3.8,1.4,7.3,3.3,10.5,5.8
				c3.1,2.4,5.9,5.1,8.4,7.9c2.7,3,5.2,6.4,7.4,10.3c2.2,3.9,4.1,7.9,5.9,12.1c1.8,4.1,3.4,8.1,4.7,12c1.4,3.9,2.6,7.2,3.5,10
				L849.9,534.3z M868.3,504.7c-3.5-10-7-16.8-10.3-20.4c-3.3-3.6-7-4.7-11-3.4c-3.1,1-5.2,2.8-6.3,5.3c-1.1,2.5-1.7,5.3-1.7,8.4
				c0,3.1,0.4,6.3,1.2,9.7c0.8,3.4,1.6,6.4,2.3,9.1L868.3,504.7z"/>
		</g>
	</g>
</g>
</svg>
