<svg xmlns="http://www.w3.org/2000/svg" viewBox="0 0 92 92"><defs><style>.cls-1{fill:#022a56;}.cls-2{fill:#fff;}</style></defs><title>logo-footer</title><g id="图层_2" data-name="图层 2"><g id="图层_1-2" data-name="图层 1"><rect class="cls-1" width="92" height="92" rx="9.67" ry="9.67"/><path class="cls-2" d="M50.85,61.1,49.17,56l-1.9.62L47.05,56l4.56-1.5.22.68-1.9.63,1.67,5.06Z"/><path class="cls-2" d="M55.89,58l.76-.15a1.87,1.87,0,0,1-.31,1.2,2.29,2.29,0,0,1-2.71.66,2.31,2.31,0,0,1-1.06-1.4,2.41,2.41,0,0,1,0-1.81,1.93,1.93,0,0,1,1.21-1,1.88,1.88,0,0,1,1.55.12A2.37,2.37,0,0,1,56.39,57l.06.19-3.11,1a1.68,1.68,0,0,0,.74.92,1.22,1.22,0,0,0,1,.08,1.14,1.14,0,0,0,.6-.42A1.42,1.42,0,0,0,55.89,58Zm-2.7-.38,2.33-.76a1.48,1.48,0,0,0-.53-.7A1.14,1.14,0,0,0,54,56a1.18,1.18,0,0,0-.71.59A1.35,1.35,0,0,0,53.19,57.58Z"/><path class="cls-2" d="M60.33,56.3l.72-.14a1.89,1.89,0,0,1-.21,1.31,1.79,1.79,0,0,1-1,.78,1.89,1.89,0,0,1-1.56-.11,2.38,2.38,0,0,1-1-1.43A3,3,0,0,1,57,55.47a1.63,1.63,0,0,1,.43-1,2.13,2.13,0,0,1,.91-.58,1.83,1.83,0,0,1,1.22,0,1.66,1.66,0,0,1,.88.79l-.65.33a1.2,1.2,0,0,0-.56-.52,1,1,0,0,0-.67,0,1.15,1.15,0,0,0-.74.67,1.9,1.9,0,0,0,.07,1.32,2,2,0,0,0,.72,1.11,1.11,1.11,0,0,0,1,.1,1,1,0,0,0,.61-.48A1.33,1.33,0,0,0,60.33,56.3Z"/><path class="cls-2" d="M62.29,57.34l-1.9-5.74.71-.23.68,2.06a1.66,1.66,0,0,1,1.06-1,1.78,1.78,0,0,1,.87-.08,1.13,1.13,0,0,1,.66.34,2.44,2.44,0,0,1,.46.88l.87,2.63-.71.23-.87-2.63a1.15,1.15,0,0,0-.48-.69.9.9,0,0,0-.73,0,1.21,1.21,0,0,0-.54.36,1,1,0,0,0-.25.57,2.12,2.12,0,0,0,.14.81L63,57.11Z"/><path class="cls-2" d="M66.92,55.82l-1.37-4.16.64-.21.2.59a1.58,1.58,0,0,1,1.1-1.12,1.84,1.84,0,0,1,.74-.09,1.15,1.15,0,0,1,.59.2,1.44,1.44,0,0,1,.39.45,4.24,4.24,0,0,1,.27.67l.84,2.56-.71.23-.84-2.53a2,2,0,0,0-.3-.62.72.72,0,0,0-.41-.24,1,1,0,0,0-.53,0,1.21,1.21,0,0,0-.69.54,1.48,1.48,0,0,0,0,1.19l.75,2.27Z"/><path class="cls-2" d="M70.61,52.31a2.25,2.25,0,0,1,.08-1.92,2,2,0,0,1,1.16-.89,2,2,0,0,1,1.59.1A2.25,2.25,0,0,1,74.49,51a2.88,2.88,0,0,1,.18,1.34,1.79,1.79,0,0,1-.47.94,2.16,2.16,0,0,1-.92.59,2,2,0,0,1-1.6-.1A2.35,2.35,0,0,1,70.61,52.31Zm.73-.24a1.86,1.86,0,0,0,.74,1.08,1.23,1.23,0,0,0,1.75-.58,1.9,1.9,0,0,0-.05-1.33A1.81,1.81,0,0,0,73,50.19a1.23,1.23,0,0,0-1.75.57A1.85,1.85,0,0,0,71.33,52.07Z"/><path class="cls-2" d="M76.17,52.78,74.28,47l.71-.23,1.9,5.74Z"/><path class="cls-2" d="M77.19,50.15a2.25,2.25,0,0,1,.08-1.92,2,2,0,0,1,1.16-.89,2,2,0,0,1,1.59.1,2.25,2.25,0,0,1,1.06,1.37,2.88,2.88,0,0,1,.18,1.34,1.79,1.79,0,0,1-.47.94,2.16,2.16,0,0,1-.92.59,2,2,0,0,1-1.6-.1A2.35,2.35,0,0,1,77.19,50.15Zm.73-.24A1.86,1.86,0,0,0,78.66,51a1.23,1.23,0,0,0,1.75-.58,1.9,1.9,0,0,0-.05-1.33A1.81,1.81,0,0,0,79.62,48a1.23,1.23,0,0,0-1.75.57A1.85,1.85,0,0,0,77.91,49.91Z"/><path class="cls-2" d="M82.76,51l.72-.12a.69.69,0,0,0,.39.38,1.24,1.24,0,0,0,.78,0,1.33,1.33,0,0,0,.69-.44,1,1,0,0,0,.18-.67,4.74,4.74,0,0,0-.25-.92,1.53,1.53,0,0,1-1,.92,1.66,1.66,0,0,1-1.54-.18,2.51,2.51,0,0,1-1-1.33,2.9,2.9,0,0,1-.15-1.17,1.81,1.81,0,0,1,.37-1,1.78,1.78,0,0,1,.87-.59,1.58,1.58,0,0,1,1.41.2l-.17-.5.65-.21L86,48.94a3.58,3.58,0,0,1,.26,1.44,1.52,1.52,0,0,1-.42.85,2.29,2.29,0,0,1-1,.58,2.11,2.11,0,0,1-1.32.06A1.19,1.19,0,0,1,82.76,51Zm-.24-2.69a1.9,1.9,0,0,0,.72,1.09,1.13,1.13,0,0,0,1.63-.53,1.83,1.83,0,0,0-.06-1.28,1.79,1.79,0,0,0-.72-1,1.11,1.11,0,0,0-.95-.12,1.07,1.07,0,0,0-.68.64A1.78,1.78,0,0,0,82.52,48.32Z"/><path class="cls-2" d="M87.9,50.71l-.3-.64A1.66,1.66,0,0,0,88,50a.82.82,0,0,0,.35-.2.67.67,0,0,0,.16-.3,3.63,3.63,0,0,0,0-.6s0-.11,0-.19l-3-3.64.76-.25,1.66,2.12q.32.4.62.86a9.9,9.9,0,0,1,0-1l.09-2.72.71-.23-.19,4.75a8.7,8.7,0,0,1-.09,1.07,1.46,1.46,0,0,1-.26.65,1.08,1.08,0,0,1-.53.35A1.5,1.5,0,0,1,87.9,50.71Z"/><path class="cls-2" d="M2.87,48.57l3.62-1.21a20.82,20.82,0,0,1,2.93-.77,5.75,5.75,0,0,1,4.86,1.5A10.26,10.26,0,0,1,15.88,50,13.73,13.73,0,0,1,17,52.13q.43,1,.65,1.71a18.7,18.7,0,0,1,1,5.14,7.63,7.63,0,0,1-1,4.21,5.84,5.84,0,0,1-1.19,1.32,6.68,6.68,0,0,1-2.25,1.17L9.19,67.38Zm9,14.24L13,62.43l.43-.16a2.07,2.07,0,0,0,.57-.35,2.72,2.72,0,0,0,.51-.58,1.59,1.59,0,0,0,.24-.88,7,7,0,0,0-.12-1.15q-.12-.68-.29-1.38T14,56.61q-.2-.64-.33-1a25.67,25.67,0,0,0-1.32-3.32,6.33,6.33,0,0,0-1.15-1.7A1.72,1.72,0,0,0,10.07,50a3.38,3.38,0,0,0-1.18.19l-1.13.38Z"/><path class="cls-2" d="M23.21,55.64a10.38,10.38,0,0,0,1.18,2.77A1.31,1.31,0,0,0,26,59a1.12,1.12,0,0,0,.87-1,6.4,6.4,0,0,0-.13-1.8l3.06-.74a7.83,7.83,0,0,1,.26,1.84,5.13,5.13,0,0,1-.29,1.82,4.16,4.16,0,0,1-1,1.58,4.83,4.83,0,0,1-1.92,1.11,5.25,5.25,0,0,1-2.52.28,4.31,4.31,0,0,1-2-.92,7,7,0,0,1-1.62-2,15.59,15.59,0,0,1-1.25-2.84,17,17,0,0,1-.65-2.65,7.93,7.93,0,0,1,0-2.63,5.06,5.06,0,0,1,.95-2.23A4.52,4.52,0,0,1,22,47.34a4.79,4.79,0,0,1,1.62-.27,4.28,4.28,0,0,1,1.37.25,4.22,4.22,0,0,1,1.14.62,6.64,6.64,0,0,1,.92.85,5.78,5.78,0,0,1,.8,1.11,14.09,14.09,0,0,1,.64,1.31q.29.67.52,1.3t.38,1.08Zm2-3.21a6.82,6.82,0,0,0-1.12-2.21,1.13,1.13,0,0,0-1.88.2,2.27,2.27,0,0,0-.18.91,4.2,4.2,0,0,0,.13,1.05l.25,1Z"/><path class="cls-2" d="M33.25,52.29a10.38,10.38,0,0,0,1.18,2.77,1.31,1.31,0,0,0,1.63.55,1.12,1.12,0,0,0,.87-1,6.4,6.4,0,0,0-.13-1.8l3.06-.74a7.82,7.82,0,0,1,.26,1.84,5.13,5.13,0,0,1-.28,1.82,4.16,4.16,0,0,1-1,1.58,4.83,4.83,0,0,1-1.92,1.11,5.25,5.25,0,0,1-2.52.28,4.31,4.31,0,0,1-2-.92,7,7,0,0,1-1.62-2A15.6,15.6,0,0,1,29.46,53a17,17,0,0,1-.65-2.65,7.93,7.93,0,0,1,0-2.63,5.06,5.06,0,0,1,.95-2.23A4.52,4.52,0,0,1,32,44a4.79,4.79,0,0,1,1.62-.27A4.28,4.28,0,0,1,35,44a4.22,4.22,0,0,1,1.14.62,6.66,6.66,0,0,1,.92.85,5.78,5.78,0,0,1,.8,1.11,14.09,14.09,0,0,1,.64,1.31q.29.67.52,1.3t.38,1.08Zm2-3.21a6.83,6.83,0,0,0-1.12-2.21,1.13,1.13,0,0,0-1.88.2,2.27,2.27,0,0,0-.18.91A4.19,4.19,0,0,0,32.2,49l.25,1Z"/><path class="cls-2" d="M37.64,42.42l3.14-1,.52,1.55q0-.23.16-.6a3.86,3.86,0,0,1,.33-.75,2.79,2.79,0,0,1,.58-.71,2.61,2.61,0,0,1,.93-.51,2.75,2.75,0,0,1,2.24.11,5.47,5.47,0,0,1,1.74,1.47A9.87,9.87,0,0,1,48.53,44q.51,1.15.78,1.94.16.48.37,1.19A13.77,13.77,0,0,1,50,48.71a16.26,16.26,0,0,1,.2,1.75,8.09,8.09,0,0,1-.08,1.73,3.4,3.4,0,0,1-.14.53,2.73,2.73,0,0,1-.34.68,3.13,3.13,0,0,1-.61.66,3,3,0,0,1-1,.51,2.31,2.31,0,0,1-1.55.08,6.05,6.05,0,0,1-1-.48l2.67,7.95-3.54,1.18Zm6.63,8a10.59,10.59,0,0,0,.67,1.61.78.78,0,0,0,1,.39,1.13,1.13,0,0,0,.45-.31,1,1,0,0,0,.19-.79,5.86,5.86,0,0,0-.15-1q-.13-.57-.28-1.13t-.32-1l-.26-.76q-.23-.68-.4-1.15l-.31-.84q-.14-.36-.26-.62l-.22-.47a2.54,2.54,0,0,0-.58-.79A.82.82,0,0,0,43,43.4a.84.84,0,0,0-.5.37,1.08,1.08,0,0,0-.13.56,2.52,2.52,0,0,0,.1.61q.08.3.15.5Z"/><path class="cls-2" d="M46.85,33.89,52,32.18l1.55-.5a6.49,6.49,0,0,1,1.29-.27,3.69,3.69,0,0,1,1.14.06,3.94,3.94,0,0,1,1.13.45A5.19,5.19,0,0,1,58.4,33a6.08,6.08,0,0,1,1.1,2.09,6.68,6.68,0,0,1,.4,2,3.67,3.67,0,0,1-.21,1.39,3,3,0,0,1-.54.92,7,7,0,0,1-.61.61q.28,0,.85.06a3.15,3.15,0,0,1,1.21.43,5,5,0,0,1,1.29,1.12A6.53,6.53,0,0,1,63,43.77a6.73,6.73,0,0,1,.33,1.46,5.69,5.69,0,0,1,0,1.22,4.94,4.94,0,0,1-.21,1,5.55,5.55,0,0,1-.29.72,3.3,3.3,0,0,1-.75,1,5.64,5.64,0,0,1-1,.73,8.83,8.83,0,0,1-1.1.52l-1,.35L53.17,52.7Zm6.28,6.34,1.41-.47a2.7,2.7,0,0,0,1.11-.62,1.6,1.6,0,0,0,.43-.77,1.89,1.89,0,0,0,0-.78,6.24,6.24,0,0,0-.18-.69,3.06,3.06,0,0,0-1.06-1.56A1.94,1.94,0,0,0,53,35.19l-1.41.47Zm2.72,8.09,1.53-.51a4.47,4.47,0,0,0,.93-.42,1.61,1.61,0,0,0,.59-.62,2,2,0,0,0,.21-.93,4.24,4.24,0,0,0-.26-1.34q0-.14-.27-.68a2.68,2.68,0,0,0-.72-1,1.33,1.33,0,0,0-1-.39,6.08,6.08,0,0,0-1.32.32l-1.39.46Z"/><path class="cls-2" d="M59.44,29.69l3.62-1.21,6.32,18.8-3.62,1.21Z"/><path class="cls-2" d="M80.38,43.61l-3.22,1.08-.66-2q-.08.52-.19,1a3.17,3.17,0,0,1-.38.92,3,3,0,0,1-.7.78,4.34,4.34,0,0,1-3.07.77,2.58,2.58,0,0,1-1.29-.76A4.34,4.34,0,0,1,70,44.09q-.32-.8-.6-1.65l-3.21-9.56,3.62-1.21L73,41.26q.1.31.22.6a1.36,1.36,0,0,0,.3.48,1.17,1.17,0,0,0,.44.28,1,1,0,0,0,.65,0q.76-.25.82-.83a5.23,5.23,0,0,0-.39-1.9l-3-8.93,3.62-1.21Z"/><path class="cls-2" d="M82.95,35.7a10.37,10.37,0,0,0,1.18,2.77,1.31,1.31,0,0,0,1.63.55,1.12,1.12,0,0,0,.87-1,6.4,6.4,0,0,0-.13-1.8l3.06-.74a7.82,7.82,0,0,1,.26,1.84,5.13,5.13,0,0,1-.28,1.82,4.16,4.16,0,0,1-1,1.58,4.83,4.83,0,0,1-1.92,1.11,5.25,5.25,0,0,1-2.52.28,4.31,4.31,0,0,1-2-.92,7,7,0,0,1-1.62-2,15.6,15.6,0,0,1-1.25-2.84,17,17,0,0,1-.65-2.65,7.92,7.92,0,0,1,0-2.63,5.05,5.05,0,0,1,.95-2.23,4.52,4.52,0,0,1,2.27-1.49,4.79,4.79,0,0,1,1.62-.27,4.28,4.28,0,0,1,1.37.25,4.22,4.22,0,0,1,1.14.62,6.64,6.64,0,0,1,.92.85,5.78,5.78,0,0,1,.8,1.11,14.1,14.1,0,0,1,.64,1.31q.29.67.52,1.3t.38,1.08Zm2-3.21a6.83,6.83,0,0,0-1.12-2.21,1.13,1.13,0,0,0-1.88.2,2.27,2.27,0,0,0-.18.91,4.19,4.19,0,0,0,.13,1.05l.25,1Z"/></g></g></svg>