<?xml version="1.0" encoding="utf-8"?>
<!-- Generator: Adobe Illustrator 22.0.1, SVG Export Plug-In . SVG Version: 6.00 Build 0)  -->
<svg version="1.1" id="图层_1" xmlns="http://www.w3.org/2000/svg" xmlns:xlink="http://www.w3.org/1999/xlink" x="0px" y="0px"
	 viewBox="0 0 107 107" style="enable-background:new 0 0 107 107;" xml:space="preserve">
<style type="text/css">
	.st0{fill:#0297D5;}
</style>
<g>
	<path d="M45.1,84.2c-1.4,0-2.8-0.5-3.8-1.5l-17-16.9c-1-1-1.6-2.3-1.6-3.7c0-1.4,0.6-2.7,1.6-3.7l38-37.7c2-2,5.5-2,7.5,0l17,16.9
		c1,1,1.6,2.3,1.6,3.7c0,1.4-0.6,2.7-1.6,3.7l-38,37.7C47.8,83.7,46.5,84.2,45.1,84.2z M66,23.7c-0.2,0-0.4,0.1-0.5,0.2l-38,37.7
		c-0.2,0.2-0.2,0.4-0.2,0.5c0,0.1,0,0.3,0.2,0.5l17,16.9c0.3,0.3,0.8,0.3,1.1,0l38-37.7c0.2-0.2,0.2-0.4,0.2-0.5
		c0-0.1,0-0.3-0.2-0.5l-17-16.9C66.4,23.7,66.2,23.7,66,23.7z"/>
	<path d="M94.7,36.3c-0.6,0-1.2-0.2-1.6-0.7L71.2,14c-0.9-0.9-0.9-2.3,0-3.2L79,3c3.4-3.4,8.9-3.4,12.3,0c0,0,0,0,0,0l12.7,12.6
		c3.4,3.4,3.4,8.9,0,12.2l-7.8,7.7C95.8,36.1,95.2,36.3,94.7,36.3z M76,12.4l18.7,18.5l6.2-6.1c1.6-1.6,1.6-4.2,0-5.8L88.1,6.2v0
		c-1.6-1.6-4.3-1.6-5.9,0L76,12.4z"/>
	<path d="M8.4,100.7c-0.6,0-1.2-0.2-1.6-0.7c-0.6-0.6-0.8-1.4-0.6-2.2l6.6-24.6c0.5-1.8,1.9-3.2,3.8-3.7c1.9-0.5,3.8,0,5.1,1.4
		l14.4,14.3c1.4,1.3,1.9,3.2,1.4,5.1c-0.5,1.8-1.9,3.2-3.8,3.7L9,100.6C8.8,100.7,8.6,100.7,8.4,100.7z M18,73.9c-0.1,0-0.2,0-0.2,0
		c-0.2,0-0.4,0.2-0.5,0.5l-5.6,20.8l21-5.6c0.4-0.1,0.5-0.4,0.5-0.5c0-0.2,0.1-0.5-0.2-0.7L18.5,74.1C18.3,74,18.1,73.9,18,73.9z"/>
	<path d="M25.3,50.1c-0.6,0-1.2-0.2-1.6-0.7L1.2,27.1c-0.4-0.4-0.7-1-0.7-1.6c0-0.6,0.2-1.2,0.7-1.6L19.9,5.4c2.6-2.5,6-3.9,9.6-3.9
		s7,1.4,9.6,3.9l14.7,14.6c0.9,0.9,0.9,2.3,0,3.2c-0.9,0.9-2.3,0.9-3.2,0L35.8,8.5c-1.7-1.7-4-2.6-6.4-2.6s-4.7,0.9-6.4,2.6L6,25.5
		l21,20.8c0.9,0.9,0.9,2.3,0,3.2C26.5,49.9,25.9,50.1,25.3,50.1z"/>
	<path d="M83.2,107.5c-0.6,0-1.2-0.2-1.6-0.7L57.3,82.7c-0.9-0.9-0.9-2.3,0-3.2c0.9-0.9,2.3-0.9,3.2,0l22.7,22.5l17.1-16.9
		c1.7-1.7,2.6-3.9,2.6-6.3c0-2.4-0.9-4.6-2.6-6.3L84,56.3c-0.9-0.9-0.9-2.3,0-3.2c0.9-0.9,2.3-0.9,3.2,0l16.3,16.2
		c2.6,2.5,4,5.9,4,9.5c0,3.6-1.4,7-4,9.5l-18.7,18.5C84.4,107.3,83.8,107.5,83.2,107.5z"/>
	<path d="M11.8,36.7c-0.6,0-1.2-0.2-1.6-0.7c-0.9-0.9-0.9-2.3,0-3.2l8.5-8.4c0.9-0.9,2.3-0.9,3.2,0c0.9,0.9,0.9,2.3,0,3.2L13.4,36
		C12.9,36.4,12.4,36.7,11.8,36.7z"/>
	<path d="M19.1,43.9c-0.6,0-1.2-0.2-1.6-0.7c-0.9-0.9-0.9-2.3,0-3.2l12.1-12c0.9-0.9,2.3-0.9,3.2,0c0.9,0.9,0.9,2.3,0,3.2l-12.1,12
		C20.2,43.7,19.7,43.9,19.1,43.9z"/>
	<path d="M67.3,91.7c-0.6,0-1.2-0.2-1.6-0.7c-0.9-0.9-0.9-2.3,0-3.2l12.1-12c0.9-0.9,2.3-0.9,3.2,0c0.9,0.9,0.9,2.3,0,3.2L68.9,91
		C68.4,91.5,67.9,91.7,67.3,91.7z"/>
	<path d="M74.6,98.9c-0.6,0-1.2-0.2-1.6-0.7c-0.9-0.9-0.9-2.3,0-3.2l8.5-8.4c0.9-0.9,2.3-0.9,3.2,0c0.9,0.9,0.9,2.3,0,3.2l-8.5,8.4
		C75.7,98.7,75.2,98.9,74.6,98.9z"/>
</g>
</svg>
