<?xml version="1.0" encoding="UTF-8"?>
<svg width="92px" height="129px" viewBox="0 0 92 129" version="1.1" xmlns="http://www.w3.org/2000/svg" xmlns:xlink="http://www.w3.org/1999/xlink">
    <!-- Generator: Sketch 49.3 (51167) - http://www.bohemiancoding.com/sketch -->
    <title>hand</title>
    <desc>Created with Sketch.</desc>
    <defs></defs>
    <g id="Page-1" stroke="none" stroke-width="1" fill="none" fill-rule="evenodd">
        <g id="1-home" transform="translate(-203.000000, -453.000000)">
            <g id="hand" transform="translate(184.000000, 453.000000)">
                <rect id="Rectangle-2" x="0" y="0" width="130" height="130"></rect>
                <path d="M93.8141176,95.6907472 C93.8141176,95.6907472 87.6675926,128.848094 57.9031659,128.848094 C57.9031659,128.848094 19,132.935387 19,98.7070384 L19,29.026339 C19,26.0100478 21.4511623,23.5620433 24.4762339,23.5620433 C27.5013056,23.5620433 29.9524679,26.0100478 29.9524679,29.026339 L29.9524679,65.571549 C29.9524679,66.7736941 30.933809,67.7572673 32.1429615,67.7572673 C33.3521139,67.7572673 34.333455,66.7736941 34.333455,65.571549 L34.333455,8.7428732 C34.333455,5.11458082 37.2752879,2.1857183 40.9049358,2.1857183 C44.5345836,2.1857183 47.4764165,5.11458082 47.4764165,8.7428732 L47.4764165,59.0143941 C47.4764165,60.2165392 48.4577576,61.2001124 49.6669101,61.2001124 C50.8760625,61.2001124 51.8574036,60.2165392 51.8574036,59.0143941 L51.8574036,6.5571549 C51.8574036,2.92886252 54.7992365,0 58.4288844,0 C62.0585322,0 65.0003651,2.92886252 65.0003651,6.5571549 L65.0003651,59.0143941 C65.0003651,60.2165392 65.9817062,61.2001124 67.1908587,61.2001124 C68.4000111,61.2001124 69.3813522,60.2165392 69.3813522,59.0143941 L69.3813522,13.1143098 C69.3813522,9.48601742 72.3231851,6.5571549 75.952833,6.5571549 C79.5824808,6.5571549 82.5243137,9.48601742 82.5243137,13.1143098 L82.5243137,70.5331295 C83.4596544,74.3799937 85.6611005,78.0738577 90.8219033,71.5822743 C90.8219033,71.5822743 99.8708323,55.8669597 108.777379,59.5389665 C108.777379,59.5389665 113.778276,61.4623986 108.777379,68.5878403 C108.777379,68.5878403 99.9124517,77.7897143 93.8141176,95.6907472 Z" id="Privacy" fill="#FFFFFF"></path>
            </g>
        </g>
    </g>
</svg>