<?xml version="1.0" encoding="utf-8"?>
<!-- Generator: Adobe Illustrator 22.0.1, SVG Export Plug-In . SVG Version: 6.00 Build 0)  -->
<svg version="1.1" id="图层_1" xmlns="http://www.w3.org/2000/svg" xmlns:xlink="http://www.w3.org/1999/xlink" x="0px" y="0px"
	 viewBox="0 0 166.4 44.7" style="enable-background:new 0 0 166.4 44.7;" xml:space="preserve">
<style type="text/css">
	.st0{fill-rule:evenodd;clip-rule:evenodd;fill:#2E82C5;}
	.st1{fill:#273897;}
	.st2{fill:#FE0000;}
	.st3{fill:#E60012;}
	.st4{fill-rule:evenodd;clip-rule:evenodd;fill:#FDD108;}
	.st5{fill-rule:evenodd;clip-rule:evenodd;fill:#231815;}
	.st6{fill-rule:evenodd;clip-rule:evenodd;fill:#727171;}
	.st7{fill:#231815;}
	.st8{fill:#F7B400;}
	.st9{fill:#FFFFFF;}
	.st10{fill-rule:evenodd;clip-rule:evenodd;fill:#0058A9;}
	.st11{fill:#3DAE2B;}
	.st12{fill-rule:evenodd;clip-rule:evenodd;fill:#0076C0;}
	.st13{fill-rule:evenodd;clip-rule:evenodd;fill:#EF8200;}
	.st14{fill:#07529B;}
	.st15{fill:url(#SVGID_1_);}
	.st16{fill:url(#SVGID_2_);}
	.st17{fill:url(#SVGID_3_);}
	.st18{fill:url(#SVGID_4_);}
	.st19{fill:url(#SVGID_5_);}
	.st20{clip-path:url(#SVGID_6_);}
	.st21{clip-path:url(#SVGID_7_);}
	.st22{fill:#0C73B9;}
	.st23{fill:#005BAB;}
	.st24{fill:#0A5FA6;}
	.st25{opacity:0.5;fill:#E50012;}
	.st26{fill:#FFFEFA;}
	.st27{opacity:0.5;fill:#2CA6E0;}
	.st28{fill:#69C146;}
	.st29{fill:#009844;}
	.st30{fill:#F29600;}
	.st31{fill:#E50012;}
	.st32{fill:#161D29;}
	.st33{fill:#00913A;}
	.st34{fill-rule:evenodd;clip-rule:evenodd;fill:#B42E82;}
</style>
<g>
	<path class="st12" d="M7.5,33.7h4.9V18c1.1,1.3,3.9,11.2,5.1,11.2l3.1,0l4.9-10.6v15h5.1V11h-6.4c-1.2,0-4.3,10.3-5.5,11.7
		c-0.3-1.4-1.6-4.5-2.3-6c-0.4-0.9-1.9-5.7-2.6-5.7H7.5V33.7z"/>
	<path class="st12" d="M86.2,15.5v13.4c0,2.9,1.4,4.9,4.2,4.9h7.8c2.7,0,4.2-1.8,4.2-4.5V21h-7.6v3.6h2.8v4.2c0,0.5-0.8,1.3-1.3,1.3
		h-3.6c-1,0-1.5-0.5-1.5-1.5V15.5c0-0.7,0.9-1.3,1.7-1.3h2.8c1,0,1.9,0.9,1.9,1.9v2.5h4.9v-3.6c0-2.2-2.1-4-4-4H90
		C87.7,11,86.2,13.1,86.2,15.5"/>
	<path class="st12" d="M32.8,15.3v13.1c0,3,2,5.3,4.9,5.3h9.7v-3.6h-7.8c-1.1,0-1.7-0.9-1.7-1.9v-4h9.5v-3.6h-9.5v-4.7
		c0-0.7,0.9-1.3,1.7-1.3h7.8V11h-10C34.9,11,32.8,12.8,32.8,15.3"/>
	<path class="st12" d="M78.5,25.7l-6.4-14.4c0,2.4,0,4.8,0,7.2c0,3.2,0.4,3.6,1.5,5.7c0.6,1.2,4,9.5,4.9,9.5h5.5V11h-5.5V25.7z"/>
	<path class="st12" d="M50.1,30.5c0,1.7,2.1,3.2,3.8,3.2h8.7v-3.6h-5.5c-1.3,0-2.1-0.4-2.1-1.7V11h-4.9V30.5z"/>
	<path class="st12" d="M65.4,20.6v13.1h5.1V17.8C69.7,18,65.4,19.9,65.4,20.6"/>
	<path class="st13" d="M65.4,17.8c0.8-0.4,5.1-2.4,5.1-3.2V11h-5.1V17.8z"/>
	<path class="st12" d="M115,13.2l-3.1,0l-0.2,2h8.4l0,0.8l-0.2,1.5l-8.6,0l-0.2,2h8.1l0,0.5l-0.2,1.4l-6.8,0.2l-1.4,0l-0.4,2h6.9
		c-0.3,0.4-1.8,2.1-2.3,2.1l-5.2,0l-0.3,2.2l3.5,0.1l-5.7,5.6h4.8c1.1-0.7,5.4-5.8,6.1-5.8h1.7c0.4,0,4.6,5.1,5,5.8l5.7,0.2l-5.3-6
		l4.6,0.2c0.5-0.3,1.2-0.8,1.2-1.7v-0.5h-10.4c0-1.2,0.5-1.5,1.5-2.1c1.9,0,3.7,0,5.6,0c2.3,0,3.5,0.2,3.5-2.1l-8.5,0l0.4-2h7.8
		c0.8,0,1-1.4,1.2-2.1h-8.8l0.3-2.2l7.4,0.2h0.5c1.1,0,1.8-1,1.8-2.1l-4,0l0.3-2.1c-2.3,0-4.1-0.1-4.1,2.2L120,13l-0.9,0l0.2-1.8
		h-0.7C116.8,11.2,115.2,10.9,115,13.2"/>
	<path class="st12" d="M144.2,25.9h3.4l-2.1,1.5L144.2,25.9z M134.8,29.4l3.3,0l2-1.5l1.6,1.3l-9.5,4.1l0.1,0.2c1.6,0,6,0.3,7.1-0.2
		c1.6-0.8,3.2-1.7,4.8-2.6c1.9,0.5,4.5,2,6,3l6.7-0.1l-8.3-4.4v-0.5c1.4-0.3,3.3-1.5,4-2.6c-0.3-0.4-1.5-2.1-2-2.1l-4.7,0l0.5-1
		c-4.6,0-3.9,0.1-6.6,2.4C138.2,26.7,136.4,28,134.8,29.4z"/>
	<path class="st12" d="M144.8,16.8l-5.5,0.2H137v1.7l7.6,0l-0.2,1.5h-9.1v2h20.5c1,0,1.7-0.9,1.7-2h-8.9v-1.3l2.2,0l5.5,0.2l0.6-2.2
		h-7.8v-1.3h-2.5C145.6,15.5,145.1,16.2,144.8,16.8"/>
	<path class="st12" d="M140.5,12.7h-3.8v2.1h3.3v0.8h4l0-0.9l6.8-0.3V15c0,0.4,0.1,0.5,0.2,0.8h3.8v-1.2h2.6c1.1,0,1.5-0.9,1.5-2
		l-3.8,0l0.2-1.5h-2.6c-0.6,0-1,0.8-1.2,1.3h-6.8v-1.3h-2.8C140.8,11.2,140.5,11.8,140.5,12.7"/>
	<path class="st12" d="M133.7,26.1l4.3,0l4-3.5h-3.6C138,22.6,133.9,25.8,133.7,26.1"/>
	<path class="st12" d="M153.1,26.1l4.2,0c-0.3-0.5-2.6-3.3-3-3.3l-3.7,0.1L153.1,26.1z"/>
</g>
</svg>
