<?xml version="1.0" encoding="utf-8"?>
<!-- Generator: Adobe Illustrator 22.0.1, SVG Export Plug-In . SVG Version: 6.00 Build 0)  -->
<svg version="1.1" id="图层_1" xmlns="http://www.w3.org/2000/svg" xmlns:xlink="http://www.w3.org/1999/xlink" x="0px" y="0px"
	 viewBox="0 0 116.2 52.9" style="enable-background:new 0 0 116.2 52.9;" xml:space="preserve">
<style type="text/css">
	.st0{fill-rule:evenodd;clip-rule:evenodd;fill:#2E82C5;}
	.st1{fill:#273897;}
	.st2{fill:#FE0000;}
	.st3{fill:#E60012;}
	.st4{fill-rule:evenodd;clip-rule:evenodd;fill:#FDD108;}
	.st5{fill-rule:evenodd;clip-rule:evenodd;fill:#231815;}
	.st6{fill-rule:evenodd;clip-rule:evenodd;fill:#727171;}
	.st7{fill:#231815;}
	.st8{fill:#F7B400;}
	.st9{fill:#FFFFFF;}
	.st10{fill-rule:evenodd;clip-rule:evenodd;fill:#0058A9;}
	.st11{fill:#3DAE2B;}
	.st12{fill-rule:evenodd;clip-rule:evenodd;fill:#0076C0;}
	.st13{fill-rule:evenodd;clip-rule:evenodd;fill:#EF8200;}
	.st14{fill:#07529B;}
	.st15{fill:url(#SVGID_1_);}
	.st16{fill:url(#SVGID_2_);}
	.st17{fill:url(#SVGID_3_);}
	.st18{fill:url(#SVGID_4_);}
	.st19{fill:url(#SVGID_5_);}
	.st20{clip-path:url(#SVGID_6_);}
	.st21{clip-path:url(#SVGID_7_);}
	.st22{fill:#0C73B9;}
	.st23{fill:#005BAB;}
	.st24{fill:#0A5FA6;}
	.st25{opacity:0.5;fill:#E50012;}
	.st26{fill:#FFFEFA;}
	.st27{opacity:0.5;fill:#2CA6E0;}
	.st28{fill:#69C146;}
	.st29{fill:#009844;}
	.st30{fill:#F29600;}
	.st31{fill:#E50012;}
	.st32{fill:#161D29;}
	.st33{fill:#00913A;}
	.st34{fill-rule:evenodd;clip-rule:evenodd;fill:#B42E82;}
</style>
<g>
	<path d="M55.1,23.4c0-1.9,3.7-1.7,4.5-1.6c0.8,0.1,1.2,0.2,2.5,0c3.6-0.3,4.7-0.2,7.5-0.2c2.8,0,3.2,3.1,3.2,3.3
		c0,0.1-0.1,1.5,0.3,2.3c0.3,0.8,0.2,0.7,0.5,1.7c0.2,1,0.9,1.1,1.7,0.3c1.2-1,0.9-5.2,0.6-7.3c-0.2-2.1-2.3-1.9-5.3-1.8
		c-1.8,0.1-2.9,0.2-3.7,0.1c-0.8,0-5.3-0.1-6.2-0.1c-0.9-0.1-1.3-0.8-0.2-0.7c1,0.1,1.5-0.8,2.3-1c2.4-0.6,4.5,1.4,4.5,1.4
		c0.7,0,1.5,0,1.5,0s0.5-0.3,1.1-0.8c0.5-0.5,1-0.4,1.4-0.4c0.4,0.1,1.7,0.1,2.9,0c1.2-0.1,1.3-0.6,1.2-1c0-0.4-0.8-0.9-1.4-0.9
		c-0.6,0-2.3,0.2-3.4,0.2c-1.2,0.1-1.3-1.4-1.4-1.7c-0.1-0.3-0.8-0.8-1.5-0.9c-1.9-0.1-1.7,1.6-1.7,1.9c0,0.3-0.9,0.7-0.9,0.7
		S60.6,17.1,60,17c-0.6,0-0.3-1.4-0.3-1.7c0-0.4-1.2-1.4-2.6-1.2c-1.4,0.2-1.2,1.8-1.2,2.3c0,0.5-0.4,0.4-0.4,0.4h-1.4
		c-1.3-0.7-1.6-0.4-2.2-0.2c-0.7,0.3-0.9,1.3-0.3,2.5c0.6,1.3,2.5,0.2,2.8,0.1c0.3-0.1,2.3,0,2.3,0.4c0,0.8-1,0.7-1.5,0.6
		c-0.4-0.1-2.1,0-2.8,0c-0.7,0.1-0.8,0.2-1.3,1.2c-0.5,1-0.5,6.3,1.9,6.1C55.5,27.6,55.1,25,55.1,23.4z"/>
	<path d="M69.2,22.4c-0.3-0.2-1.2,0-1.5,0.1c-0.3,0.1-5.9-0.1-8.4-0.1c-1.9,0-2.5,0.9-2.5,0.9c-0.6,0.7,0,0.9,0.9,0.9
		c1,0.1,1.9,0,2.3-0.1c0.4-0.1,6.5-0.1,7-0.1c0.4,0,1-0.1,1.2,0.1c0.3,0.2,0.5,0.4,0.5,0.4C70.5,23.8,69.5,22.6,69.2,22.4z"/>
	<path d="M73.3,35c0-0.3-0.2-2-0.6-2.7c-0.4-0.7-3.4-4.7-4-5c-1.5-0.8-3.3,1.5-3.3,1.5c-0.2-0.5-1.3-1.3-1.4-1.5
		c-0.1-0.1,0.6-0.5,0.6-0.5c0.3,0.1,3.8-0.4,4.3-0.2c1.5,0.6,1.4,0,1.9-0.8c0.4-0.8-0.3-1.3-1-1.2c-0.7,0.1-11.8,0-12.2,0
		c-0.3-0.1-1.3-0.1-1.6,0.5c-0.9,1.8,1.2,2.1,1.2,2.1c0.2,0,0.1,0,0.9-0.2c0.8-0.3,0.6,0.4,0.1,0.5c-0.5,0.1-4.5,1.8-5.2,2.2
		c-0.6,0.3-0.7,0.8-0.4,1.2c0.3,0.3,0.5,0.5,1.5,0.2c0.9-0.3,4.9-2.5,5.2-2.7c0.6-0.3,1,0.7-0.1,1c-1.3,0.4-6.7,3-6.9,3.2
		c-0.2,0.2-0.6,1.3,0.3,1.5c0.9,0.2,4.7-2.2,5.1-2.5c0.5-0.3,2.1-1.4,2.6-1.6c0.5-0.2,1,0.3,0.4,0.5c-0.6,0.2-3.2,2.3-4,2.8
		c-0.7,0.4-1.2,0.2-1.8,0.6c-0.6,0.4-0.3,1.4,0.5,1.4c2.3,0,5.6-3.1,6.2-3.7c0.6-0.6,1.1-0.3,1.5,0c0.3,0.3,0.1,0.8-0.3,1
		c-0.5,0.2-2.7,1.4-3.7,2.1c-1,0.6-3.4,1.9-4.1,2.2c-0.7,0.3-1.4,0.9-1.3,1.6c0.2,2.8,3.2,0.3,3.6-0.1c0.4-0.4,4.6-2.8,5.9-3.2
		c1.3-0.4,2.3-1.4,2.9-1.8c0.6-0.4,1-0.7,0.9-1.5c-0.2-1.6,1.1-0.8,1.1-0.8c1.4,1.2,1.4,3,2.9,4.3C73,36.7,73.3,35.3,73.3,35z"/>
	<path d="M73.9,36.2c-0.1-0.1-0.4-0.5-1.2-0.1c-0.8,0.4-0.2,1.5-0.2,1.5c0,0.2,0.9,1.9,2.4,1.1C76.3,37.8,74,36.3,73.9,36.2z"/>
	<path d="M100.2,21.5c0.4,0.1,1.4,0,2.5,0.1c2.4,0.2,2.4-1.6,2.3-1.7c-0.1-0.2-0.6-1.7-2.7-0.8c-0.4,0.2-1.6,1.4-2.7,1.4
		c-0.8,0-3.2,0.4-3-1.8c0.1-2.2-0.6-3.1-1.2-3.3c-0.6-0.2-2.5-0.2-3.5,0.6c-1,0.8-1.1,2.5-1.1,2.5s0.4,1,0.1,1.5
		c-0.7,1.5-3.1,0.5-4.2,0.1c-1.1-0.4-0.8-1.1-0.8-1.8c0.1-0.6-0.5-1.8-2.4-2c-1.9-0.2-2.5,0.7-2.5,0.7c-0.4,0.5-0.6,0.7-0.9,1.7
		c-0.4,1-0.1,3.7,2.3,5.3c1.8,1.1,6.9,0.3,7.6,0c1.8-0.9,1.9,1.1,1.8,1.7c0,0.5-0.5,0.7-1.1,0.9c-0.7,0.1-5.8,0.7-6.9,1.1
		c-0.8,0.3-1.2,0.5-1.2,0.5c-1.5-0.5-2.4,0.4-2.7,1.6c-0.8,3.2,1.6,2.6,2.1,2.5c0.5-0.1,6.5-2,8.2-2.4c1.7-0.4,2-0.3,2.4,0.4
		c0.4,0.7,0.5,2.8,0.4,3.3C93,34,92.9,35,93.9,35.1c-0.7,0.2-0.6,1.3-0.7,1.5c-0.1,0.2-0.7,1.3-1,1.6c-0.3,0.3-0.6,1,0.1,1.8
		c0.7,0.8,2,1.7,2.7,0.8c0.7-0.9,0.9-0.9,0.5-2.9c-0.3-1.6-0.4-2.7-1-2.8c0.9-0.1,0.7-0.7,0.9-3.3c0.2-2.8,1.9-3,2.8-3.4
		c0.9-0.4,3.3-0.6,4.7-0.9c1.5-0.3,1.3-1.7,0.6-2.2c-1.8-1.2-3.3-0.3-5,0.1c-1.7,0.4-2.3-0.5-2.3-0.5l0-1.1
		C100.1,22.6,100.2,21.5,100.2,21.5z"/>
	<g>
		<path d="M105.9,11.7c0.1-0.1,0.2-0.3,0.2-0.5c0-0.2-0.1-0.4-0.2-0.6c-0.1-0.1-0.4-0.2-0.7-0.2h-1V13h0.4v-1.1h0.4l0.7,1.1h0.4
			l-0.8-1.2C105.6,11.9,105.8,11.8,105.9,11.7z M105,11.6h-0.4v-0.8h0.5c0.1,0,0.1,0,0.2,0c0.1,0,0.1,0,0.2,0.1
			c0.1,0,0.1,0.1,0.1,0.1c0,0,0.1,0.1,0.1,0.2c0,0.1,0,0.2-0.1,0.2c0,0.1-0.1,0.1-0.1,0.1c-0.1,0-0.1,0-0.2,0.1
			C105.2,11.6,105.1,11.6,105,11.6z"/>
		<path d="M107.2,10.9c-0.1-0.3-0.3-0.5-0.5-0.7c-0.2-0.2-0.4-0.4-0.7-0.5c-0.3-0.1-0.6-0.2-0.9-0.2c-0.3,0-0.6,0.1-0.9,0.2
			c-0.3,0.1-0.5,0.3-0.7,0.5c-0.2,0.2-0.4,0.4-0.5,0.7c-0.1,0.3-0.2,0.6-0.2,0.9c0,0.3,0.1,0.6,0.2,0.9c0.1,0.3,0.3,0.5,0.5,0.7
			c0.2,0.2,0.4,0.4,0.7,0.5c0.3,0.1,0.6,0.2,0.9,0.2c0.3,0,0.6-0.1,0.9-0.2c0.3-0.1,0.5-0.3,0.7-0.5c0.2-0.2,0.4-0.4,0.5-0.7
			c0.1-0.3,0.2-0.6,0.2-0.9C107.4,11.4,107.3,11.1,107.2,10.9z M106.8,12.5c-0.1,0.2-0.2,0.4-0.4,0.6c-0.2,0.2-0.4,0.3-0.6,0.4
			c-0.2,0.1-0.5,0.1-0.7,0.1c-0.3,0-0.5,0-0.7-0.1c-0.2-0.1-0.4-0.2-0.6-0.4c-0.2-0.2-0.3-0.4-0.4-0.6c-0.1-0.2-0.1-0.5-0.1-0.8
			c0-0.3,0-0.5,0.1-0.8c0.1-0.2,0.2-0.4,0.4-0.6c0.2-0.2,0.4-0.3,0.6-0.4c0.2-0.1,0.5-0.1,0.7-0.1c0.3,0,0.5,0,0.7,0.1
			c0.2,0.1,0.4,0.2,0.6,0.4c0.2,0.2,0.3,0.4,0.4,0.6c0.1,0.2,0.1,0.5,0.1,0.8C107,12,106.9,12.3,106.8,12.5z"/>
	</g>
	<path class="st11" d="M42.9,41.1c0,1.3-1.1,2.4-2.4,2.4H11.3c-1.3,0-2.4-1.1-2.4-2.4V11.8c0-1.3,1.1-2.4,2.4-2.4h29.3
		c1.3,0,2.4,1.1,2.4,2.4V41.1z"/>
	<path class="st9" d="M32.3,17c0.2,0.6,0.3,1.3,0.3,2c0,3.4-2.8,6.2-6.2,6.2c-3.4,0-6.2-2.8-6.2-6.2c0-3.4,2.8-6.2,6.2-6.2
		c0.4,0,0.8,0,1.2,0.1c-0.8-0.2-1.5-0.4-2.4-0.4c-4.3,0-7.9,3.5-7.9,7.8c0,4.3,3.5,7.8,7.9,7.8c4.3,0,7.9-3.5,7.9-7.8
		C33.1,19.2,32.8,18,32.3,17z"/>
	<path class="st9" d="M18.3,34.3c-0.2,0-0.4,0.3-0.6,0.3c-0.2,0.1-0.4,0.2-0.6,0.2c-0.4,0.1-0.7,0.2-0.7,0.2s-1.2,0.5-1.6,0.6
		c-0.7,0.2-1.5,0.1-1.5,0.1s-0.3-0.2-0.4-0.3c-0.1-0.1-0.3-0.6-0.3-0.7c0-0.1,0-0.2,0-0.2c0-0.1-0.1-0.2-0.1-0.2l0-0.4l0.1-0.1
		l0-0.4c0,0,0.2-0.1,0.2-0.1l0-0.3c0,0,0.1-0.4,0.3-0.6l0-0.4c0,0,0.2-0.4,0.4-0.5c0.2-0.1,0.2,0,0.2-0.1c0,0,0.3-0.3,0.3-0.4
		c0-0.1,0-0.1,0.1-0.2c0,0,0.3-0.3,0.3-0.3c0,0,0-0.2,0-0.2s0-0.1,0.1-0.1c0.1-0.1,0.4,0,0.4,0s0.1-0.2,0.2-0.1
		c0.1,0,0.2,0.1,0.2,0.2c0,0.1,0.3,0.1,0.3,0.1l0.5-0.1c0,0,0.2,0,0.2,0c0,0,0.1,0,0.1,0l0.5,0c0,0,0.2,0,0.3-0.1
		c0.1,0,0.3-0.1,0.4-0.1c0.2,0,0.6-0.2,0.8-0.3c0.2-0.1,0.8,0,1,0c0.2,0,0.4-0.1,0.8-0.2c0.2,0,0.6-0.1,0.8-0.2
		c0.2-0.1,0.2-0.1,0.6-0.2c0.5-0.1,0.4,0,0.6-0.1c0,0,0.2-0.1,0.3-0.1c0.1,0,0.2-0.1,0.2-0.1l0.4,0c0,0,0.1-0.1,0.2-0.1
		c0.2,0,0.2,0,0.4,0c0.2,0,0.2,0.1,0.3,0.1c0.2,0,0.3,0,0.4,0c0.1,0,0.3,0.1,0.4,0.1c0.1,0.1,0.2,0,0.3,0c0.1,0,0.1-0.1,0.1-0.1
		s0-0.1,0.2,0c0.1,0,0.2-0.1,0.2-0.1c0,0,0.2,0,0.3,0c0,0,0-0.1,0-0.1c0,0,1.1,0.1,1.1,0.1s0,0,0.5,0.2c0,0,0.4,0,0.4,0
		c0,0,0.1,0,0.1,0s0.2,0,0.3,0.1c0.1,0.1,0.1,0,0.2,0c0.1,0,0.2,0,0.2,0s0.1,0.1,0.2,0.1c0,0,0.4,0,0.4,0s0.4,0.2,0.5,0.2
		c0,0.1,0.3,0,0.4,0c0.1,0,0.3-0.1,0.4,0c0.1,0.1,0.5,0.2,0.7,0.4c0,0,0-0.1,0.1,0c0.1,0,0.1-0.1,0.2,0c0.1,0,0.5,0.2,0.6,0.3
		c0,0,0.4,0,0.4,0.1c0,0,0.7,0.4,0.8,0.5c0.2,0.2,1.2,0.6,1.3,0.7c0.1,0.1,0.5,0.3,0.5,0.3c0,0,0,0.1-0.1,0.1c0,0-0.9-0.3-1-0.3
		c-0.1,0-0.2,0.1-0.2,0.1s0.8,0.4,1,0.4c0.1,0.1,0.4,0.1,0.5,0.3c0,0,0.3,0.2,0.4,0.2c0.1,0,0.1,0.1,0.4,0.2
		c0.3,0.1,0.2,0.1,0.3,0.1c0.2,0,0.5,0.2,0.7,0.3c0.2,0.1,0.5,0.5,0.5,0.6c0,0-0.1,0-0.2,0c0,0-0.1,0-0.1,0s0.2,0-0.1-0.2
		c-0.3-0.2-0.9-0.1-1-0.1c-0.1,0,0.3-0.1,0.4,0c0.1,0.1,0,0.1,0.2,0.1c0.1,0,0.2,0.1,0.2,0.1s0.2,0.1,0.4,0.2
		c0.2,0.1,0.4,0.2,0.5,0.3c0.1,0.1,0.1,0,0.1,0c0.1,0,0.5,0.4,0.6,0.5c0.1,0.2,0.3,0.2,0.3,0.2c0,0-0.2,0.1-0.3,0
		c-0.1,0-1.5-1-1.8-1c-0.3,0-0.3,0-0.3,0c0,0,0,0.1,0.1,0.1c0.1,0.1,0.3,0.1,0.4,0.1c0,0,0.3,0.1,0.5,0.2c0.1,0.1,0.1,0.1,0.4,0.2
		c0.3,0.1,0.7,0.3,0.8,0.4c0.1,0.1,0.4,0.1,0.5,0.1c0.1,0,0.2,0.2,0.2,0.2c0,0-0.1,0-0.1,0.1c0,0-0.1,0.1,0,0.1c0,0,0.2,0,0.2,0
		c0,0,0,0.1,0.1,0.1c0.1,0,0.2,0,0.2,0.1c0.1,0.1,0,0.1,0,0.2c0,0.1,0.6,0.5,0.7,0.6c0.1,0.1,0.4,0.2,0.5,0.3c0,0.1-0.4,0-0.5,0
		c-0.1,0-0.5-0.3-0.6-0.3c-0.1,0-0.2-0.1-0.2-0.1s0.1,0.2,0.2,0.2c0,0,0.4,0.3,0.5,0.3c0.1,0.1,0.4,0.2,0.4,0.3
		c0,0.1-0.5,0.1-0.5,0.1s-0.6-0.3-0.7-0.3c-0.1-0.1,0,0.1,0,0.1l-0.5-0.3l-0.9-0.5c0,0,0-0.2-0.8-0.3l-0.4,0c0,0-0.2,0-0.4-0.2
		c-0.2-0.2-0.6-0.4-0.6-0.4s-0.3,0-0.5-0.1c-0.3-0.1-0.3-0.3-0.4-0.3c-0.1,0-0.4,0-0.4,0S34.6,35,34,34.8c-0.6-0.2-0.5-0.3-0.5-0.3
		s-0.2,0.3-1.5-0.4c-0.4-0.2-0.4-0.4-1.2-0.7c-0.1,0-0.3,0-0.5,0c-0.4,0-0.2,0-0.4,0c-0.1,0-0.2,0-0.2,0c-0.2,0-0.4,0.1-0.7-0.1
		c-0.2-0.1-0.5-0.1-0.7-0.2c-0.4-0.2-0.3-0.2-0.6-0.2c-0.4-0.1-0.4-0.2-0.9-0.1c-1.1,0.2-1.7,0.4-1.7,0.4L24,33.3
		c0,0-1.1-0.2-1.9,0.2c-0.1,0-0.2,0.1-0.6,0.1c-0.2,0-0.6,0.1-0.6,0.1s-0.8,0.2-1,0.2C19.7,34,18.9,34.2,18.3,34.3z"/>
	<g>
		<path class="st9" d="M15.7,39.6V37c0-0.2,0-0.3,0.1-0.4c0.1-0.1,0.2-0.1,0.4-0.1c0.1,0,0.3,0,0.3,0.1c0.1,0.1,0.2,0.2,0.3,0.4
			l0.5,1.2c0,0.1,0.1,0.1,0.1,0.1c0,0,0.1,0,0.1,0c0,0,0.1,0,0.1,0c0,0,0.1-0.1,0.1-0.1l0.6-1.2c0,0,0,0,0-0.1
			c0.1-0.3,0.3-0.4,0.6-0.4c0.2,0,0.3,0,0.4,0.1c0.1,0.1,0.1,0.2,0.1,0.4v2.3c0,0.2,0,0.3-0.1,0.4c-0.1,0.1-0.2,0.1-0.4,0.1
			c-0.2,0-0.3,0-0.4-0.1c-0.1-0.1-0.1-0.2-0.1-0.4v-1c0-0.1,0-0.1,0-0.1c0,0-0.1,0-0.1,0c0,0-0.1,0-0.1,0c0,0-0.1,0.1-0.1,0.2
			l-0.6,1.2c0,0.1-0.1,0.1-0.1,0.1c0,0-0.1,0-0.1,0c0,0-0.1,0-0.1,0c0,0-0.1-0.1-0.1-0.2l-0.6-1.1c0,0,0,0,0,0
			c-0.1-0.1-0.2-0.2-0.2-0.2c-0.1,0-0.1,0-0.1,0c0,0,0,0.1,0,0.1v1.2c0,0.1,0,0.1,0,0.2c0,0-0.1,0-0.1,0c-0.1,0-0.1,0-0.1,0
			C15.7,39.7,15.7,39.7,15.7,39.6z"/>
		<path class="st9" d="M20.7,39.8c-0.2,0-0.3,0-0.4-0.1c-0.1-0.1-0.1-0.2-0.1-0.3v-2.4c0-0.1,0-0.2,0.1-0.3c0.1-0.1,0.2-0.1,0.4-0.1
			H22c0.1,0,0.2,0,0.2,0c0,0,0.1,0.1,0.1,0.1c0,0,0,0.1-0.1,0.1c0,0-0.1,0-0.2,0h-0.6c-0.1,0-0.2,0-0.2,0c0,0,0,0.1,0,0.2v0.9
			c0,0.1,0,0.1,0,0.2c0,0,0.1,0,0.2,0H22c0.1,0,0.2,0,0.2,0c0,0,0.1,0.1,0.1,0.1c0,0.1,0,0.1-0.1,0.1c0,0-0.1,0-0.2,0h-0.6
			c-0.1,0-0.2,0-0.2,0c0,0,0,0.1,0,0.2v0.6c0,0.2,0,0.3,0.1,0.3c0.1,0.1,0.2,0.1,0.4,0.1h0.6c0.1,0,0.2,0,0.2,0c0,0,0,0.1,0,0.1
			c0,0.1,0,0.1,0,0.1c0,0-0.1,0-0.2,0H20.7z"/>
		<path class="st9" d="M23.9,38.5c-0.1-0.1-0.1-0.2-0.1-0.2c0,0-0.1,0-0.1,0c-0.1,0-0.1,0-0.1,0c0,0,0,0.1,0,0.1v1.2
			c0,0.1,0,0.1,0,0.2c0,0-0.1,0-0.1,0c-0.1,0-0.1,0-0.1,0c0,0,0-0.1,0-0.2V37c0-0.2,0-0.3,0.1-0.4c0.1-0.1,0.2-0.1,0.4-0.1
			c0.2,0,0.4,0.2,0.6,0.5c0,0,0,0,0,0l0.4,0.8v0c0.1,0.2,0.2,0.2,0.2,0.2c0.1,0,0.1,0,0.1,0c0,0,0-0.1,0-0.1v-1.2c0-0.1,0-0.1,0-0.1
			c0,0,0.1,0,0.1,0c0.1,0,0.1,0,0.1,0c0,0,0,0.1,0,0.1v2.7c0,0.2,0,0.3-0.1,0.4c-0.1,0.1-0.2,0.1-0.4,0.1c-0.2,0-0.4-0.1-0.6-0.5
			c0,0,0,0,0-0.1L23.9,38.5z"/>
		<path class="st9" d="M27.1,39c0,0.2,0,0.3,0.1,0.3c0.1,0.1,0.2,0.1,0.3,0.1c0.1,0,0.3,0,0.3-0.1c0.1-0.1,0.1-0.1,0.1-0.2
			c0-0.1,0-0.2-0.1-0.2c0,0-0.1-0.1-0.2-0.2c-0.1-0.1-0.2-0.1-0.3-0.2c0-0.1-0.1-0.1-0.1-0.2c0-0.1,0-0.2,0.1-0.3
			c0.1-0.1,0.2-0.1,0.4-0.1c0.2,0,0.3,0,0.4,0.1c0.1,0.1,0.1,0.2,0.1,0.4V39c0,0.3-0.1,0.5-0.3,0.6c-0.2,0.1-0.5,0.2-0.8,0.2
			c-0.4,0-0.7-0.1-0.8-0.2c-0.2-0.1-0.3-0.3-0.3-0.6v-1.7c0-0.3,0.1-0.5,0.3-0.6c0.2-0.1,0.5-0.2,0.8-0.2c0.4,0,0.7,0.1,0.8,0.2
			c0.2,0.1,0.3,0.3,0.3,0.6v0.4c0,0.1,0,0.1,0,0.1c0,0-0.1,0-0.1,0c-0.1,0-0.1,0-0.1,0c0,0,0-0.1,0-0.1v-0.5c0-0.2,0-0.3-0.1-0.3
			c-0.1-0.1-0.2-0.1-0.4-0.1c-0.2,0-0.3,0-0.4,0.1c-0.1,0.1-0.1,0.2-0.1,0.4V39z"/>
		<path class="st9" d="M29.7,38.5c0-0.1-0.1-0.2-0.1-0.2c0,0-0.1,0-0.1,0c-0.1,0-0.1,0-0.1,0c0,0,0,0.1,0,0.1v1.2c0,0.1,0,0.1,0,0.2
			c0,0-0.1,0-0.1,0c-0.1,0-0.1,0-0.1,0c0,0,0-0.1,0-0.2V37c0-0.2,0-0.3,0.1-0.4c0.1-0.1,0.2-0.1,0.4-0.1c0.2,0,0.4,0.2,0.6,0.5
			c0,0,0,0,0,0l0.4,0.8v0c0.1,0.2,0.2,0.2,0.2,0.2c0.1,0,0.1,0,0.1,0c0,0,0-0.1,0-0.1v-1.2c0-0.1,0-0.1,0-0.1c0,0,0.1,0,0.1,0
			c0.1,0,0.1,0,0.1,0c0,0,0,0.1,0,0.1v2.7c0,0.2,0,0.3-0.1,0.4c-0.1,0.1-0.2,0.1-0.4,0.1c-0.2,0-0.4-0.1-0.6-0.5c0,0,0,0,0-0.1
			L29.7,38.5z"/>
		<path class="st9" d="M31.8,39.3V37c0-0.2,0-0.3,0.1-0.4c0.1-0.1,0.2-0.1,0.4-0.1c0.2,0,0.3,0,0.4,0.1c0.1,0.1,0.1,0.2,0.1,0.4v2.3
			c0,0.2,0,0.3-0.1,0.4c-0.1,0.1-0.2,0.1-0.4,0.1c-0.2,0-0.3,0-0.4-0.1C31.8,39.6,31.8,39.5,31.8,39.3z"/>
		<path class="st9" d="M33.4,37c0-0.2,0-0.3,0.1-0.4c0.1-0.1,0.2-0.1,0.4-0.1c0.2,0,0.3,0,0.4,0.1c0.1,0.1,0.1,0.2,0.1,0.4v2
			c0,0.2,0,0.3,0.1,0.3c0.1,0.1,0.2,0.1,0.4,0.1c0.2,0,0.3,0,0.4-0.1c0.1-0.1,0.1-0.2,0.1-0.4v-2.4c0-0.1,0-0.1,0-0.1
			c0,0,0.1,0,0.1,0c0.1,0,0.1,0,0.1,0c0,0,0,0.1,0,0.1V39c0,0.3-0.1,0.5-0.3,0.6c-0.2,0.1-0.5,0.2-0.9,0.2c-0.4,0-0.7-0.1-0.9-0.2
			c-0.2-0.1-0.3-0.3-0.3-0.5V37z"/>
	</g>
</g>
</svg>
