<?xml version="1.0" encoding="utf-8"?>
<!-- Generator: Adobe Illustrator 22.0.1, SVG Export Plug-In . SVG Version: 6.00 Build 0)  -->
<svg version="1.1" id="图层_1" xmlns="http://www.w3.org/2000/svg" xmlns:xlink="http://www.w3.org/1999/xlink" x="0px" y="0px"
	 viewBox="0 0 124.8 48.6" style="enable-background:new 0 0 124.8 48.6;" xml:space="preserve">
<style type="text/css">
	.st0{fill-rule:evenodd;clip-rule:evenodd;fill:#2E82C5;}
	.st1{fill:#273897;}
	.st2{fill:#FE0000;}
	.st3{fill:#E60012;}
	.st4{fill-rule:evenodd;clip-rule:evenodd;fill:#FDD108;}
	.st5{fill-rule:evenodd;clip-rule:evenodd;fill:#231815;}
	.st6{fill-rule:evenodd;clip-rule:evenodd;fill:#727171;}
	.st7{fill:#231815;}
	.st8{fill:#F7B400;}
	.st9{fill:#FFFFFF;}
	.st10{fill-rule:evenodd;clip-rule:evenodd;fill:#0058A9;}
	.st11{fill:#3DAE2B;}
	.st12{fill-rule:evenodd;clip-rule:evenodd;fill:#0076C0;}
	.st13{fill-rule:evenodd;clip-rule:evenodd;fill:#EF8200;}
	.st14{fill:#07529B;}
	.st15{fill:url(#SVGID_1_);}
	.st16{fill:url(#SVGID_2_);}
	.st17{fill:url(#SVGID_3_);}
	.st18{fill:url(#SVGID_4_);}
	.st19{fill:url(#SVGID_5_);}
	.st20{clip-path:url(#SVGID_6_);}
	.st21{clip-path:url(#SVGID_7_);}
	.st22{fill:#0C73B9;}
	.st23{fill:#005BAB;}
	.st24{fill:#0A5FA6;}
	.st25{opacity:0.5;fill:#E50012;}
	.st26{fill:#FFFEFA;}
	.st27{opacity:0.5;fill:#2CA6E0;}
	.st28{fill:#69C146;}
	.st29{fill:#009844;}
	.st30{fill:#F29600;}
	.st31{fill:#E50012;}
	.st32{fill:#161D29;}
	.st33{fill:#00913A;}
	.st34{fill-rule:evenodd;clip-rule:evenodd;fill:#B42E82;}
</style>
<g>
	<path class="st24" d="M37.3,12.2c1.4-1,2.6-2,4.1-2.8c3.5-1.8,7.2-2.7,11.1-1.9c4.5,1,7.9,3.5,9.6,7.9c0.8,2,1.2,4.1,1.2,6.2
		c0,0.8-0.3,1.2-1.2,1.2c-2.3,0-4.6,0-7,0c-5.6,0-11.1,0.1-16.7,0.2c-0.7,0-1.5,0.1-1.5-0.9c0-1.2,0.5-1.9,1.5-1.9
		c6.9,0,13.8,0,20.8,0c1.3,0,1.2,0,1.1-1.2c-0.6-4.8-5-8.4-9.1-9c-3.2-0.5-6,0.4-8.6,1.8c-4.1,2.2-7,5.5-8.4,10
		c-1.2,3.7-1.5,7.4,0.6,10.9c2,3.4,4.8,5.6,9,5.7c7.3,0.1,12.1-3.7,15.3-9.9c0.5-0.9,1.9-1.4,2.8-0.9c0.5,0.3,0.3,0.6,0.1,1
		c-1,2.5-2.5,4.8-4.4,6.7c-2.4,2.4-5.2,4.3-8.6,5.2c-4.1,1-8,1-11.8-1.3c-3.5-2.2-5.6-5.4-6.2-9.5c-0.1-0.8-0.4-1.2-1.2-1.2
		c-3.2,0-6.4,0-9.6-0.2c-0.8-0.1-1.2,0.2-1.4,1c-0.5,2.7-1.2,5.3-1.8,7.9c-0.2,0.8-0.3,1.6-0.5,2.4c-0.2,0.7-0.6,1.1-1.3,1
		c-2.7-0.1-5.4-0.1-8.1-0.2c-0.9,0-1.1-0.4-0.9-1.2c0.8-3.7,1.7-7.4,2.5-11.1c0.7-3.2,1.3-6.4,2-9.5c0.5-2.1,0.9-4.3,1.5-6.4
		c0.7-2.4,2.7-4,5.3-4.1c6.4,0,12.8,0,19.3,0c0.8,0,1.2,0.3,1,1.2C37.7,10.2,37.2,11.1,37.3,12.2z M28,16.7c-1.3,0-2.7,0-4,0
		c-2.6,0-2.6,0.7-3,2.3c-0.3,1.1-0.1,1.3,1,1.3c2.5,0,5-0.1,7.5,0c1.7,0.1,2.9-0.2,3.3-2c0.1-0.2,0.2-0.4,0.4-0.7
		c0.4-0.6,0.3-0.9-0.5-0.9C31.1,16.7,29.6,16.7,28,16.7z"/>
	<g>
		<path class="st24" d="M80.6,27.1c0-0.1,0.1-0.3,0.1-0.6c0-0.2,0-0.3,0-0.4c0-0.1-0.1-0.1-0.1-0.1c0,0-0.1,0-0.3,0v1.2
			c0.1,0,0.1,0,0.1,0C80.5,27.2,80.6,27.2,80.6,27.1z"/>
		<path class="st24" d="M80.7,29.1v-0.5c0-0.2,0-0.4-0.1-0.4c0,0-0.2-0.1-0.4-0.1v1.5c0.2,0,0.3,0,0.4-0.1
			C80.7,29.4,80.7,29.3,80.7,29.1z"/>
		<path class="st24" d="M104.5,27.6l0.3,0.6c-0.1-0.5-0.1-1.1-0.2-1.9C104.6,26.8,104.6,27.2,104.5,27.6z"/>
		<path class="st24" d="M83.3,30.2v-5.1h1.4v2.7l1.2-2.1v-0.5h0.3l8.4-14.6l8.9,15.4l0.1-0.7h2l0.8,5.3h-0.2l6.1,10.6
			c0.1,0,0.2,0.1,0.3,0.1c3.7-3.5,6-8.2,6-13.3c0-11.1-10.7-20.1-24-20.1c-13.2,0-24,9-24,20.1c0,5.1,2.3,9.7,6,13.3
			c0.1,0,0.2-0.1,0.3-0.1L83.3,30.2z M107.3,25.1h1.2l0.8,2.4v-2.4h1.2v5.3h-1.2l-0.7-2.4v2.4h-1.2V25.1z M78.9,25.1h1.4
			c0.4,0,0.8,0,1,0.1c0.2,0.1,0.4,0.2,0.5,0.4c0.1,0.2,0.2,0.5,0.2,1c0,0.3,0,0.5-0.1,0.7c-0.1,0.1-0.3,0.2-0.6,0.3
			c0.3,0.1,0.5,0.2,0.7,0.4c0.1,0.2,0.2,0.4,0.2,0.8v0.5c0,0.4,0,0.6-0.1,0.8c-0.1,0.2-0.2,0.3-0.4,0.4c-0.2,0.1-0.6,0.1-1.1,0.1
			h-1.6V25.1z"/>
		<path class="st25" d="M105,30.5l-0.1-1h-0.5l-0.1,1h-1.4l0.6-4.6l-8.9-15.4l-8.4,14.6h0.8l0.8,2.4v-2.4H89v5.3h-1.2l-0.7-2.4v2.4
			h-1.2v-4.8l-1.2,2.1v2.7h-1.4v-0.3L77,41.1c5-2.2,11.1-3.5,17.7-3.5s12.7,1.3,17.7,3.5l-6.1-10.6H105z M93.4,27.1H92v-0.5
			c0-0.3,0-0.5,0-0.6c0-0.1-0.1-0.1-0.2-0.1c-0.1,0-0.1,0-0.2,0.1c0,0.1,0,0.2,0,0.5v2.6c0,0.2,0,0.4,0,0.5c0,0.1,0.1,0.1,0.2,0.1
			c0.1,0,0.2,0,0.2-0.1c0-0.1,0.1-0.3,0.1-0.5v-0.6h-0.3v-0.8h1.6v2.9h-0.9l-0.1-0.4c-0.1,0.2-0.2,0.3-0.4,0.4
			c-0.1,0.1-0.3,0.1-0.5,0.1c-0.2,0-0.5-0.1-0.7-0.2c-0.2-0.1-0.4-0.3-0.5-0.4c-0.1-0.2-0.2-0.3-0.2-0.5c0-0.2,0-0.5,0-0.8v-1.6
			c0-0.5,0-0.9,0.1-1.1s0.2-0.4,0.5-0.6c0.3-0.2,0.6-0.3,1-0.3c0.4,0,0.7,0.1,1,0.3c0.3,0.2,0.4,0.4,0.5,0.6c0.1,0.2,0.1,0.6,0.1,1
			V27.1z M97.6,30c-0.1,0.2-0.3,0.3-0.5,0.5c-0.3,0.1-0.6,0.2-0.9,0.2c-0.4,0-0.7-0.1-1-0.2c-0.3-0.1-0.4-0.3-0.5-0.5
			c-0.1-0.2-0.1-0.5-0.1-0.9v-0.4h1.3v0.7c0,0.2,0,0.3,0.1,0.4c0,0.1,0.1,0.1,0.2,0.1c0.1,0,0.2,0,0.2-0.1c0-0.1,0.1-0.2,0.1-0.3
			c0-0.3,0-0.5-0.1-0.6c-0.1-0.1-0.3-0.3-0.7-0.5c-0.3-0.2-0.6-0.4-0.7-0.5c-0.1-0.1-0.2-0.2-0.3-0.4s-0.1-0.4-0.1-0.7
			c0-0.4,0.1-0.7,0.2-0.9c0.1-0.2,0.3-0.3,0.5-0.4S95.7,25,96,25c0.4,0,0.7,0.1,0.9,0.2c0.3,0.1,0.4,0.3,0.5,0.4
			c0.1,0.2,0.1,0.5,0.1,0.9v0.2h-1.3v-0.4c0-0.2,0-0.3,0-0.4c0-0.1-0.1-0.1-0.2-0.1c-0.1,0-0.1,0-0.2,0.1c0,0.1-0.1,0.2-0.1,0.3
			c0,0.2,0,0.3,0.1,0.4c0,0.1,0.2,0.2,0.4,0.3c0.6,0.4,1,0.7,1.2,0.9c0.2,0.2,0.2,0.6,0.2,1.1C97.7,29.5,97.6,29.8,97.6,30z
			 M102,30.5h-1.4v-2.2h-0.4v2.2h-1.4v-5.3h1.4V27h0.4v-1.9h1.4V30.5z"/>
		<path class="st26" d="M105,30.5l-0.1-1h-0.5l-0.1,1h-1.4l0.6-4.6l-8.9-15.4l-8.4,14.6h0.8l0.8,2.4v-2.4H89v5.3h-1.2l-0.7-2.4v2.4
			h-1.2v-4.8l-1.2,2.1v2.7h-1.4v-0.3L77,41.1c5-2.2,11.1-3.5,17.7-3.5s12.7,1.3,17.7,3.5l-6.1-10.6H105z M93.4,27.1H92v-0.5
			c0-0.3,0-0.5,0-0.6c0-0.1-0.1-0.1-0.2-0.1c-0.1,0-0.1,0-0.2,0.1c0,0.1,0,0.2,0,0.5v2.6c0,0.2,0,0.4,0,0.5c0,0.1,0.1,0.1,0.2,0.1
			c0.1,0,0.2,0,0.2-0.1c0-0.1,0.1-0.3,0.1-0.5v-0.6h-0.3v-0.8h1.6v2.9h-0.9l-0.1-0.4c-0.1,0.2-0.2,0.3-0.4,0.4
			c-0.1,0.1-0.3,0.1-0.5,0.1c-0.2,0-0.5-0.1-0.7-0.2c-0.2-0.1-0.4-0.3-0.5-0.4c-0.1-0.2-0.2-0.3-0.2-0.5c0-0.2,0-0.5,0-0.8v-1.6
			c0-0.5,0-0.9,0.1-1.1s0.2-0.4,0.5-0.6c0.3-0.2,0.6-0.3,1-0.3c0.4,0,0.7,0.1,1,0.3c0.3,0.2,0.4,0.4,0.5,0.6c0.1,0.2,0.1,0.6,0.1,1
			V27.1z M97.6,30c-0.1,0.2-0.3,0.3-0.5,0.5c-0.3,0.1-0.6,0.2-0.9,0.2c-0.4,0-0.7-0.1-1-0.2c-0.3-0.1-0.4-0.3-0.5-0.5
			c-0.1-0.2-0.1-0.5-0.1-0.9v-0.4h1.3v0.7c0,0.2,0,0.3,0.1,0.4c0,0.1,0.1,0.1,0.2,0.1c0.1,0,0.2,0,0.2-0.1c0-0.1,0.1-0.2,0.1-0.3
			c0-0.3,0-0.5-0.1-0.6c-0.1-0.1-0.3-0.3-0.7-0.5c-0.3-0.2-0.6-0.4-0.7-0.5c-0.1-0.1-0.2-0.2-0.3-0.4s-0.1-0.4-0.1-0.7
			c0-0.4,0.1-0.7,0.2-0.9c0.1-0.2,0.3-0.3,0.5-0.4S95.7,25,96,25c0.4,0,0.7,0.1,0.9,0.2c0.3,0.1,0.4,0.3,0.5,0.4
			c0.1,0.2,0.1,0.5,0.1,0.9v0.2h-1.3v-0.4c0-0.2,0-0.3,0-0.4c0-0.1-0.1-0.1-0.2-0.1c-0.1,0-0.1,0-0.2,0.1c0,0.1-0.1,0.2-0.1,0.3
			c0,0.2,0,0.3,0.1,0.4c0,0.1,0.2,0.2,0.4,0.3c0.6,0.4,1,0.7,1.2,0.9c0.2,0.2,0.2,0.6,0.2,1.1C97.7,29.5,97.6,29.8,97.6,30z
			 M102,30.5h-1.4v-2.2h-0.4v2.2h-1.4v-5.3h1.4V27h0.4v-1.9h1.4V30.5z"/>
		<path class="st25" d="M104.4,28.6h0.5c0-0.1,0-0.3,0-0.4l-0.3-0.6C104.5,28,104.4,28.3,104.4,28.6z"/>
		<path class="st27" d="M104.4,28.6h0.5c0-0.1,0-0.3,0-0.4l-0.3-0.6C104.5,28,104.4,28.3,104.4,28.6z"/>
		<path class="st25" d="M77,41.1l-0.1,0.2h35.6l-0.1-0.2c-5-2.2-11.1-3.5-17.7-3.5S82,38.9,77,41.1z"/>
		<path class="st28" d="M77,41.1l-0.1,0.2h35.6l-0.1-0.2c-5-2.2-11.1-3.5-17.7-3.5S82,38.9,77,41.1z"/>
		<path class="st9" d="M81.6,30.4c0.2-0.1,0.3-0.2,0.4-0.4c0.1-0.2,0.1-0.4,0.1-0.8v-0.5c0-0.3-0.1-0.6-0.2-0.8
			c-0.1-0.2-0.3-0.3-0.7-0.4c0.3-0.1,0.5-0.2,0.6-0.3c0.1-0.1,0.1-0.3,0.1-0.7c0-0.5-0.1-0.8-0.2-1c-0.1-0.2-0.3-0.3-0.5-0.4
			c-0.2-0.1-0.6-0.1-1-0.1h-1.4v5.3h1.6C81,30.5,81.4,30.4,81.6,30.4z M80.2,26c0.1,0,0.2,0,0.3,0c0,0,0.1,0.1,0.1,0.1
			c0,0.1,0,0.2,0,0.4c0,0.3,0,0.5-0.1,0.6c0,0.1-0.1,0.1-0.3,0.1c0,0-0.1,0-0.1,0V26z M80.2,28.1c0.2,0,0.3,0,0.4,0.1
			c0,0,0.1,0.2,0.1,0.4v0.5c0,0.2,0,0.4-0.1,0.4c-0.1,0.1-0.2,0.1-0.4,0.1V28.1z"/>
		<polygon class="st9" points="84.7,25.1 83.3,25.1 83.3,30.2 84.7,27.8 		"/>
		<polygon points="84.7,30.5 84.7,27.8 83.3,30.2 83.3,30.5 		"/>
		<polygon points="85.9,25.1 85.9,25.7 86.2,25.1 		"/>
		<polygon points="87.1,30.5 87.1,28.1 87.8,30.5 89,30.5 89,25.1 87.8,25.1 87.8,27.5 87.1,25.1 86.2,25.1 85.9,25.7 85.9,30.5 		
			"/>
		<path d="M92.8,25.3c-0.3-0.2-0.6-0.3-1-0.3c-0.4,0-0.8,0.1-1,0.3c-0.3,0.2-0.4,0.4-0.5,0.6s-0.1,0.6-0.1,1.1v1.6
			c0,0.4,0,0.6,0,0.8c0,0.2,0.1,0.4,0.2,0.5c0.1,0.2,0.3,0.3,0.5,0.4c0.2,0.1,0.4,0.2,0.7,0.2c0.2,0,0.4,0,0.5-0.1
			c0.1-0.1,0.3-0.2,0.4-0.4l0.1,0.4h0.9v-2.9h-1.6v0.8h0.3v0.6c0,0.2,0,0.4-0.1,0.5c0,0.1-0.1,0.1-0.2,0.1c-0.1,0-0.2,0-0.2-0.1
			c0-0.1,0-0.2,0-0.5v-2.6c0-0.3,0-0.4,0-0.5c0-0.1,0.1-0.1,0.2-0.1c0.1,0,0.2,0,0.2,0.1c0,0.1,0,0.3,0,0.6v0.5h1.4v-0.2
			c0-0.4,0-0.8-0.1-1C93.2,25.6,93,25.4,92.8,25.3z"/>
		<path d="M96.3,27.1c-0.2-0.1-0.3-0.2-0.4-0.3c0-0.1-0.1-0.2-0.1-0.4c0-0.1,0-0.2,0.1-0.3c0-0.1,0.1-0.1,0.2-0.1
			c0.1,0,0.1,0,0.2,0.1c0,0.1,0,0.2,0,0.4v0.4h1.3v-0.2c0-0.4,0-0.7-0.1-0.9c-0.1-0.2-0.3-0.3-0.5-0.4C96.7,25.1,96.4,25,96,25
			c-0.3,0-0.6,0.1-0.8,0.2s-0.4,0.3-0.5,0.4c-0.1,0.2-0.2,0.5-0.2,0.9c0,0.3,0,0.5,0.1,0.7s0.2,0.3,0.3,0.4c0.1,0.1,0.3,0.3,0.7,0.5
			c0.3,0.2,0.6,0.4,0.7,0.5c0.1,0.1,0.1,0.3,0.1,0.6c0,0.1,0,0.3-0.1,0.3c0,0.1-0.1,0.1-0.2,0.1c-0.1,0-0.2,0-0.2-0.1
			c0-0.1-0.1-0.2-0.1-0.4v-0.7h-1.3v0.4c0,0.4,0,0.7,0.1,0.9c0.1,0.2,0.3,0.4,0.5,0.5c0.3,0.1,0.6,0.2,1,0.2c0.3,0,0.6-0.1,0.9-0.2
			c0.3-0.1,0.4-0.3,0.5-0.5c0.1-0.2,0.1-0.5,0.1-0.8c0-0.5-0.1-0.9-0.2-1.1C97.3,27.7,96.9,27.4,96.3,27.1z"/>
		<polygon points="100.6,27 100.2,27 100.2,25.1 98.8,25.1 98.8,30.5 100.2,30.5 100.2,28.2 100.6,28.2 100.6,30.5 102,30.5 
			102,25.1 100.6,25.1 		"/>
		<path class="st9" d="M104.7,26.3c0.1,0.7,0.1,1.3,0.2,1.9l1.3,2.3h0.2l-0.8-5.3h-2l-0.1,0.7l1,1.7
			C104.6,27.2,104.6,26.8,104.7,26.3z"/>
		<path d="M104.4,30.5l0.1-1h0.5l0.1,1h1.2l-1.3-2.3c0,0.1,0,0.3,0,0.4h-0.5c0-0.2,0.1-0.6,0.1-1l-1-1.7l-0.6,4.6H104.4z"/>
		<polygon class="st9" points="108.5,28.1 109.2,30.5 110.5,30.5 110.5,25.1 109.3,25.1 109.3,27.5 108.5,25.1 107.3,25.1 
			107.3,30.5 108.5,30.5 		"/>
	</g>
</g>
</svg>
