<?xml version="1.0" encoding="utf-8"?>
<!-- Generator: Adobe Illustrator 22.0.1, SVG Export Plug-In . SVG Version: 6.00 Build 0)  -->
<svg version="1.1" id="图层_1" xmlns="http://www.w3.org/2000/svg" xmlns:xlink="http://www.w3.org/1999/xlink" x="0px" y="0px"
	 viewBox="0 0 140.4 52.1" style="enable-background:new 0 0 140.4 52.1;" xml:space="preserve">
<style type="text/css">
	.st0{fill-rule:evenodd;clip-rule:evenodd;fill:#2E82C5;}
	.st1{fill:#273897;}
	.st2{fill:#FE0000;}
	.st3{fill:#E60012;}
	.st4{fill-rule:evenodd;clip-rule:evenodd;fill:#FDD108;}
	.st5{fill-rule:evenodd;clip-rule:evenodd;fill:#231815;}
	.st6{fill-rule:evenodd;clip-rule:evenodd;fill:#727171;}
	.st7{fill:#231815;}
	.st8{fill:#F7B400;}
	.st9{fill:#FFFFFF;}
	.st10{fill-rule:evenodd;clip-rule:evenodd;fill:#0058A9;}
	.st11{fill:#3DAE2B;}
	.st12{fill-rule:evenodd;clip-rule:evenodd;fill:#0076C0;}
	.st13{fill-rule:evenodd;clip-rule:evenodd;fill:#EF8200;}
	.st14{fill:#07529B;}
	.st15{fill:url(#SVGID_1_);}
	.st16{fill:url(#SVGID_2_);}
	.st17{fill:url(#SVGID_3_);}
	.st18{fill:url(#SVGID_4_);}
	.st19{fill:url(#SVGID_5_);}
	.st20{clip-path:url(#SVGID_6_);}
	.st21{clip-path:url(#SVGID_7_);}
	.st22{fill:#0C73B9;}
	.st23{fill:#005BAB;}
	.st24{fill:#0A5FA6;}
	.st25{opacity:0.5;fill:#E50012;}
	.st26{fill:#FFFEFA;}
	.st27{opacity:0.5;fill:#2CA6E0;}
	.st28{fill:#69C146;}
	.st29{fill:#009844;}
	.st30{fill:#F29600;}
	.st31{fill:#E50012;}
	.st32{fill:#161D29;}
	.st33{fill:#00913A;}
	.st34{fill-rule:evenodd;clip-rule:evenodd;fill:#B42E82;}
</style>
<g>
	<path class="st4" d="M135.2,14.4c0-1.3-0.9-3.5-1.9-4.6c-1.2-1.4-2.9-2.4-4.8-3.2c-1.4-0.5-2.9-0.7-4.5-0.4
		c-2.2,0.4-4.1,1.5-5.1,3.2c-1.4,2.2-0.3,5.6-3.1,6.8c-1.9,0.7-4,0.9-6,1.6c-1.9,0.7-4,1.8-5.3,3.1c-2,1.8-3.9,3.7-4.9,5.9
		c-1.3,2.7-2.5,5.9-1.2,8.9c0.6,1.6,2.4,3,3.8,4.1c1.9,1.1,3.7,1.9,5.8,2.4c1.9,0.4,4,0.5,6.1,0.6c3.6,0.1,6.8-0.7,9.8-2
		c1-0.5,2.5-1.5,3.6-2.4c1.4-1.3,3.4-3.2,5-7.1c0.9-1.8,1.4-3.5,1.9-5.5C135.2,22.2,135.1,18.5,135.2,14.4L135.2,14.4z"/>
	<path class="st5" d="M131.4,23.5c-0.5,2.1-0.9,4.4-1.7,6.3c-0.7,2.1-2.1,4-3.8,5.9c-2,2.3-3.9,3.1-6.6,3.8c-1.9,0.5-5.6,1-7.6,0.8
		c-2.3-0.3-3.9-0.6-6-1.3c-1.7-0.7-3.7-2.1-4.4-4c-0.7-2.8,0-5.3,1.6-7.7c2.1-3.1,5.4-5.3,8.5-6.7c2.5-0.9,4.4-1.3,6.6-1
		c1.1,0,2.2-0.7,2.7-1.8c0.5-2.2,0.6-5,3-6c1.9-0.7,4.4-0.4,6,0.7l0.9,1C132.4,16.4,131.9,20.3,131.4,23.5L131.4,23.5z M135.2,14.4
		c0-1.3-0.9-3.5-1.9-4.6c-1.2-1.4-2.9-2.4-4.8-3.2c-1.4-0.5-2.9-0.7-4.5-0.4c-2.2,0.4-4.1,1.5-5.1,3.2c-1.4,2.2-0.3,5.6-3.1,6.8
		c-1.9,0.7-4,0.9-6,1.6c-1.9,0.7-4,1.8-5.3,3.1c-2,1.8-3.9,3.7-4.9,5.9c-1.3,2.7-2.5,5.9-1.2,8.9c0.6,1.6,2.4,3,3.8,4.1
		c1.9,1.1,3.7,1.9,5.8,2.4c1.9,0.4,4,0.5,6.1,0.6c3.6,0.1,6.8-0.7,9.8-2c1-0.5,2.5-1.5,3.6-2.4c1.4-1.3,3.4-3.2,5-7.1
		c0.9-1.8,1.4-3.5,1.9-5.5C135.2,22.2,135.1,18.5,135.2,14.4L135.2,14.4z M95.4,22.5l-1.3-0.8c-1.1-0.6-2.5-1.2-3.8-0.8
		c-0.5,0.2-0.9,0.8-0.9,1.3c0.1,0.6,0.5,1.1,0.9,1.5c1.2,1,2.6,1.3,4.1,1.4c0.7,0,1.1-0.6,1.3-1.1C96,23.4,95.9,22.8,95.4,22.5
		L95.4,22.5z M100.4,16.4c0.3-0.1,0.5-0.4,0.6-0.7c0.3-1-0.5-1.6-1.1-2.2c-1.1-1.3-2.4-2.4-4.2-2.3c-0.5,0.1-1,0.4-1.1,0.9
		c-0.2,0.8,0.2,1.5,0.8,2C96.9,15.2,98.6,16.9,100.4,16.4L100.4,16.4z M107,11.6c0.7,0.2,1.3-0.1,1.8-0.5c0.4-0.4,0.4-1.1,0.4-1.7
		c-0.1-0.4-0.8-2.1-1.3-3.2c-0.4-0.9-1.4-1.3-2.3-1.4c-0.5,0-0.9,0.3-1.2,0.7c-0.4,0.7-0.4,1.7-0.1,2.5
		C104.5,8.5,105.6,10.9,107,11.6L107,11.6z"/>
	<path class="st5" d="M120.7,28.8c0.3,0.2,0.7,0.2,1.1,0c0.4-0.2,0.6-0.6,0.7-1c0.1-1.1,0.6-2.3,0.2-3.4c-0.4-0.8-1.3-1.1-2.1-0.8
		c-0.9,0.4-0.9,1.4-1.1,2.3C119.4,27,119.8,28.1,120.7,28.8L120.7,28.8z"/>
	<path class="st5" d="M110.5,28.9c0.3,0.3,0.9,0.4,1.4,0.2c0.4-0.3,0.6-0.6,0.8-1c0.1-1.2,1.2-2.8,0-3.9c-0.3-0.2-0.7-0.4-1.2-0.3
		c-1.1,0.3-1.5,1.4-1.8,2.3C109.4,27.2,109.7,28.2,110.5,28.9L110.5,28.9z"/>
	<path class="st5" d="M120.7,31.9c-2.5,0.5-4.5,2.6-7.4,2c-1.5,0-2.6-1.1-3.8-1.7c-0.7-0.1-1.6-0.2-2.1,0.4
		c-0.3,0.3-0.3,0.7-0.4,1.1c0.3,1.6,2,2.3,3.2,2.9c2,1.5,5.3,0.8,7.7,0.6c1.7-0.5,3.5-0.8,4.7-2.2c0.4-0.5,0.6-1.4,0.2-2
		C122.4,32.2,121.6,31.9,120.7,31.9L120.7,31.9z"/>
	<path class="st6" d="M11.9,26.8v-4.6l-2.3,4.6H11.9L11.9,26.8z M11,20.2H18v1.7H14v2.6h3.6v1.7H14V29h4v1.8h-6.1v-2.3H8.8l-1.2,2.3
		H5.1L11,20.2L11,20.2z M21.7,28.5c0.3,0.4,0.9,0.9,1.9,0.9c0.9,0,1.6-0.3,2-1c0.4-0.5,0.7-1.4,0.7-3.1c0-0.5,0-1.3-0.3-1.9
		c-0.4-1.3-1.3-1.9-2.4-1.9c-0.9,0-1.5,0.4-2,0.9c-0.6,0.7-0.8,1.9-0.8,3.1C20.9,26.6,21.1,27.7,21.7,28.5L21.7,28.5z M23.6,19.9
		c1.1,0,2.7,0.3,3.7,1.4c1.1,1.3,1.4,3,1.4,4c0,1.5-0.5,3.2-1.3,4.2c-1.2,1.3-2.9,1.5-3.8,1.5c-1.4,0-2.8-0.4-3.8-1.5
		c-1.2-1.2-1.3-3-1.3-4C18.5,22.8,19.8,19.9,23.6,19.9L23.6,19.9z M29.5,20.1h3.3l4,8.4v-8.4h2.1v10.7h-3.1l-4.1-8.9v8.9h-2.2V20.1
		L29.5,20.1z M45.7,29.5c0.6,0,1.2-0.4,1.4-0.8c0.3-0.6,0.4-1.4,0.4-1.8c0-1.5-0.6-2.3-1.6-2.3c-1.5,0-1.6,1.8-1.6,2.5
		C44.2,28.4,44.6,29.5,45.7,29.5L45.7,29.5z M47.3,20.1h2.2v9.4c0,0.4,0,0.9,0.1,1.2h-2.2l-0.1-1.1c-0.1,0.3-0.3,0.5-0.8,0.8
		c-0.5,0.4-1.1,0.4-1.4,0.4c-2,0-3.2-1.4-3.2-3.7c0-2.5,1.3-4,3.3-4c1.3,0,1.9,0.8,2.1,1V20.1L47.3,20.1z M55,26.3
		c0-0.3,0-1.7-1.3-1.7c-1,0-1.4,0.8-1.4,1.7H55L55,26.3z M52.2,27.6c0,0.5,0,2,1.5,2c0.5,0,1.1-0.2,1.3-1h2c0,0.4-0.1,1-0.7,1.6
		c-0.5,0.6-1.5,0.9-2.6,0.9c-0.6,0-1.8-0.1-2.6-0.9c-0.7-0.7-1-1.7-1-2.9c0-1.2,0.3-2.7,1.5-3.5c0.6-0.4,1.3-0.6,2.1-0.6
		c1.1,0,2.3,0.4,3,1.8c0.5,1,0.5,2.1,0.4,2.7H52.2L52.2,27.6z M58,20.1v10.7h2.2V20.1H58L58,20.1z M61.3,30.8v-7.5h2.2v7.5H61.3
		L61.3,30.8z M61.3,23.3v7.5V23.3z M61.2,20.1h2.3v1.9h-2.3V20.1L61.2,20.1z M67.9,29.2c1.5,0,1.5-1.8,1.5-2.1
		c0-0.8-0.2-2.3-1.5-2.3c-0.8,0-1.5,0.6-1.5,2.2C66.5,27.4,66.5,29.2,67.9,29.2L67.9,29.2z M71.7,23.4c-0.1,0.6-0.1,1.1-0.1,1.8v5.5
		c0,2.7-2.3,3-3.7,3c-1.1,0-3.1-0.1-3.3-2.4h2.1c0,0.2,0.1,1,1.3,1c0.6,0,1.2-0.3,1.4-1c0.1-0.4,0.1-0.6,0.1-1.8c-0.7,0.9-1.5,1-2,1
		c-2.1,0-3.1-1.9-3.1-3.7c0-1.9,1-3.7,3.2-3.7c1.4,0,1.9,0.7,2.1,1.1l0.1-1H71.7L71.7,23.4z M72.6,20.1h2.2v4.2
		c0.3-0.4,0.8-1.1,2.2-1.1c1.1,0,1.8,0.5,2.2,1c0.3,0.4,0.5,1,0.5,2v4.5h-2.2v-4.5c0-0.4,0-1.6-1.2-1.6c-0.6,0-1.4,0.4-1.4,1.5
		l0,4.6h-2.2V20.1L72.6,20.1z M85.1,30.7c-0.7,0.2-1.3,0.2-1.7,0.2c-2.2,0-2.2-1.4-2.2-2v-4.1h-1.4v-1.4h1.4v-1.5l2.2-0.8v2.3h1.8
		v1.4h-1.8v3.4c0,0.7,0,1.1,1,1.1c0.3,0,0.5,0,0.7,0V30.7L85.1,30.7z"/>
	<path class="st6" d="M49.9,34c0.1,0.5,0.1,0.9,0.1,1.7v6c0,0.5-0.1,0.9-0.3,1.2c-0.2,0.3-0.7,0.4-1.2,0.4c-0.4,0-0.8-0.1-1-0.3
		c-0.3-0.2-0.5-0.5-0.7-1.1L45,42.6c0.3,0.7,0.5,0.9,0.8,1.3c0.6,0.7,1.5,1,2.7,1c1.1,0,2-0.3,2.6-0.9c0.5-0.5,0.7-1.3,0.7-2.2v-6
		c0-0.8,0-1.2,0.1-1.7H49.9L49.9,34z M52.9,34v1.7h2V34H52.9L52.9,34z M52.9,37c0.1,0.6,0.1,1,0.1,1.8v4.2c0,0.7,0,1.1-0.1,1.8h2
		c-0.1-0.6-0.1-1-0.1-1.8v-4.2c0-0.8,0-1.3,0.1-1.8H52.9L52.9,37z M60.9,44.7h1.8c-0.1-0.6-0.1-1-0.1-1.7v-3.6
		c0-0.9-0.2-1.4-0.6-1.9c-0.6-0.6-1.4-0.8-2.7-0.8c-1.2,0-1.9,0.2-2.6,0.7c-0.5,0.4-0.8,0.7-1.1,1.5l1.7,0.3
		c0.2-0.5,0.3-0.7,0.5-0.9c0.3-0.2,0.9-0.4,1.4-0.4c1,0,1.5,0.4,1.5,1.2v0.7c-1.9,0-2.9,0.2-3.8,0.5c-0.9,0.4-1.5,1.2-1.5,2.2
		c0,1.4,1,2.3,2.6,2.3c0.4,0,0.9-0.1,1.3-0.2c0.6-0.2,0.9-0.3,1.4-0.9V44.7L60.9,44.7z M60.9,41.7c0,0.5-0.2,0.9-0.5,1.2
		c-0.5,0.4-1.2,0.7-1.9,0.7c-0.8,0-1.2-0.4-1.2-1c0-1.1,1-1.5,3.6-1.5V41.7L60.9,41.7z M65.5,44.7c-0.1-0.6-0.1-1.1-0.1-1.8v-2.7
		c0.6-1.3,1.4-2,2.4-2c0.5,0,0.9,0.2,1.1,0.6c0.2,0.3,0.2,0.6,0.2,1.2v3c0,0.7,0,1.1-0.1,1.8h2c-0.1-0.5-0.1-1-0.1-1.8v-3.2
		c0-0.9-0.1-1.4-0.5-1.9c-0.5-0.7-1.3-1-2.3-1c-1.2,0-1.9,0.4-2.7,1.4c0-0.3,0-0.4,0-0.6V37h-1.8c0.1,0.6,0.1,1,0.1,1.8v4.2
		c0,0.8,0,1.2-0.1,1.8H65.5L65.5,44.7z M71.7,45.9c0.9,1,1.8,1.4,3.4,1.4c1.4,0,2.5-0.3,3.2-0.9c0.8-0.7,1.1-1.7,1.1-3.3v-4.5
		c0-0.7,0-1.1,0.1-1.7h-1.8v0.6c0,0.1,0,0.2,0,0.4c-0.6-0.8-1.4-1.2-2.6-1.2c-2.2,0-3.6,1.5-3.6,3.8c0,2.3,1.4,3.8,3.5,3.8
		c1.2,0,2-0.4,2.6-1.2c0,0.9-0.1,1.4-0.4,1.8c-0.4,0.6-1.2,1-2.2,1c-1,0-1.6-0.3-2.1-1L71.7,45.9L71.7,45.9z M73.3,40.7
		c0-1.6,0.8-2.6,2.2-2.6c0.5,0,0.9,0.2,1.3,0.5c0.5,0.5,0.8,1.1,0.8,2c0,0.6-0.1,1.1-0.4,1.5c-0.4,0.6-1.1,1.1-1.9,1.1
		c-0.5,0-1.1-0.2-1.4-0.6C73.6,42.2,73.3,41.5,73.3,40.7L73.3,40.7z M80.1,42.5c0.2,0.6,0.3,0.9,0.5,1.2c0.6,0.8,1.6,1.2,3,1.2
		c1.2,0,2.2-0.3,2.8-0.9c0.4-0.4,0.7-1,0.7-1.5c0-0.7-0.3-1.3-0.8-1.7c-0.4-0.3-1-0.5-2.4-0.8c-0.8-0.2-1.1-0.3-1.3-0.4
		c-0.3-0.1-0.4-0.4-0.4-0.6c0-0.6,0.6-0.9,1.4-0.9c0.9,0,1.3,0.3,1.5,1.1l1.8-0.2c-0.2-0.7-0.4-1-0.7-1.3c-0.6-0.5-1.4-0.8-2.5-0.8
		c-1.2,0-2.1,0.4-2.7,1.1c-0.3,0.3-0.4,0.8-0.4,1.3c0,0.8,0.4,1.4,1.2,1.8c0.5,0.2,0.9,0.4,1.9,0.6c1.1,0.2,1.2,0.3,1.4,0.4
		c0.2,0.1,0.4,0.4,0.4,0.7c0,0.6-0.6,1-1.6,1c-1.1,0-1.5-0.4-1.8-1.3L80.1,42.5L80.1,42.5z M93.1,37c0.1,0.6,0.1,1.1,0.1,1.8v2.7
		c-0.6,1.3-1.4,2-2.3,2c-0.3,0-0.5-0.1-0.7-0.2c-0.4-0.3-0.6-0.8-0.6-1.5v-3c0-0.7,0-1.1,0.1-1.8h-2c0.1,0.5,0.1,1,0.1,1.8v3.4
		c0,1.1,0.4,1.9,1.1,2.3c0.4,0.3,0.9,0.4,1.6,0.4c1.3,0,2-0.4,2.8-1.4c0,0.3,0,0.4,0,0.6v0.7H95c-0.1-0.6-0.1-1-0.1-1.8v-4.2
		c0-0.8,0-1.2,0.1-1.8H93.1L93.1,37z"/>
</g>
</svg>
