<?xml version="1.0" encoding="utf-8"?>
<!-- Generator: Adobe Illustrator 22.0.1, SVG Export Plug-In . SVG Version: 6.00 Build 0)  -->
<svg version="1.1" id="图层_1" xmlns="http://www.w3.org/2000/svg" xmlns:xlink="http://www.w3.org/1999/xlink" x="0px" y="0px"
	 viewBox="0 0 140.4 42.3" style="enable-background:new 0 0 140.4 42.3;" xml:space="preserve">
<style type="text/css">
	.st0{fill-rule:evenodd;clip-rule:evenodd;fill:#2E82C5;}
	.st1{fill:#273897;}
	.st2{fill:#FE0000;}
	.st3{fill:#E60012;}
	.st4{fill-rule:evenodd;clip-rule:evenodd;fill:#FDD108;}
	.st5{fill-rule:evenodd;clip-rule:evenodd;fill:#231815;}
	.st6{fill-rule:evenodd;clip-rule:evenodd;fill:#727171;}
	.st7{fill:#231815;}
	.st8{fill:#F7B400;}
	.st9{fill:#FFFFFF;}
	.st10{fill-rule:evenodd;clip-rule:evenodd;fill:#0058A9;}
	.st11{fill:#3DAE2B;}
	.st12{fill-rule:evenodd;clip-rule:evenodd;fill:#0076C0;}
	.st13{fill-rule:evenodd;clip-rule:evenodd;fill:#EF8200;}
	.st14{fill:#07529B;}
	.st15{fill:url(#SVGID_1_);}
	.st16{fill:url(#SVGID_2_);}
	.st17{fill:url(#SVGID_3_);}
	.st18{fill:url(#SVGID_4_);}
	.st19{fill:url(#SVGID_5_);}
	.st20{clip-path:url(#SVGID_6_);}
	.st21{clip-path:url(#SVGID_7_);}
	.st22{fill:#0C73B9;}
	.st23{fill:#005BAB;}
	.st24{fill:#0A5FA6;}
	.st25{opacity:0.5;fill:#E50012;}
	.st26{fill:#FFFEFA;}
	.st27{opacity:0.5;fill:#2CA6E0;}
	.st28{fill:#69C146;}
	.st29{fill:#009844;}
	.st30{fill:#F29600;}
	.st31{fill:#E50012;}
	.st32{fill:#161D29;}
	.st33{fill:#00913A;}
	.st34{fill-rule:evenodd;clip-rule:evenodd;fill:#B42E82;}
</style>
<g>
	<g>
		<path class="st14" d="M128.2,20.2c-1,1-2,1.6-3.4,1.9c-0.9,0.2-1.7,0.2-2.7,0.1c-1.2-0.1-2.3-0.5-3.2-1.3
			c-0.8-0.6-1.4-1.3-1.9-2.1c-0.4-0.7-0.6-1.3-0.7-2.1c-0.2-1.1-0.1-2,0.2-3.1c0.6-2.4,2.4-4.1,4.9-4.6c1.4-0.3,2.6-0.3,4,0.1
			c1,0.3,1.8,0.7,2.5,1.4c0.5,0.4,0.8,0.9,1.1,1.4c0.3,0.7,0.5,1.3,0.4,2.1H125c-0.1-0.6-0.4-1-0.8-1.4c-0.6-0.5-1.4-0.5-2-0.1
			c-0.4,0.3-0.7,0.6-0.9,1.1c-0.4,1.2-0.4,2.3-0.1,3.5c0.1,0.5,0.4,0.9,0.8,1.3c0.4,0.4,1,0.6,1.6,0.5c0.4-0.1,0.7-0.2,0.9-0.5
			c0.3-0.3,0.4-0.6,0.5-1c0-0.3,0.1-0.5,0.1-0.8h4.6C129.6,18,129.2,19.2,128.2,20.2"/>
		<rect x="110.8" y="4.2" class="st14" width="4.7" height="3.3"/>
		<rect x="110.8" y="9.2" class="st14" width="4.7" height="12.7"/>
		<path class="st14" d="M101,10.6c0.6-0.5,1.2-0.9,2-1.3c1.2-0.6,2.4-0.7,3.7-0.3c1.4,0.4,2.4,1.4,2.8,2.8c0.2,0.7,0.3,1.3,0.3,1.9
			v8.2h-5v-7.3c0-0.2,0-0.5-0.1-0.7c-0.1-0.4-0.4-0.7-0.8-0.9c-0.9-0.4-1.9,0-2.4,0.8c-0.2,0.3-0.3,0.7-0.3,1.1v7.1h-4.9V9.2h4.6
			L101,10.6"/>
		<path class="st14" d="M45,10.6c0.6-0.5,1.2-0.9,2-1.3c1.2-0.6,2.4-0.7,3.7-0.3c1.4,0.4,2.4,1.4,2.8,2.8c0.2,0.7,0.3,1.3,0.3,1.9
			v8.2h-5v-7.3c0-0.2,0-0.5-0.1-0.7c-0.1-0.4-0.4-0.7-0.8-0.9c-0.9-0.4-1.9,0-2.4,0.8c-0.2,0.3-0.3,0.7-0.3,1.1v7.1h-4.9V9.2h4.6
			L45,10.6"/>
		<path class="st14" d="M74.8,17.2c0.4,0.1,0.7,0.1,1,0.3c0.3,0.1,0.5,0.3,0.6,0.6c0.1,0.3,0,0.6-0.3,0.9c-0.2,0.2-0.5,0.4-0.8,0.4
			c-0.4,0.1-0.8,0-1.3-0.1c-0.2-0.1-0.4-0.2-0.5-0.3c-0.2-0.2-0.4-0.4-0.4-0.7C73,18.1,73,17.9,73,17.6h-4.6v0.3
			c0,0.4,0.1,0.8,0.2,1.2c0.2,0.6,0.6,1.1,1,1.5c0.6,0.6,1.3,1,2.1,1.2c1.7,0.5,3.3,0.6,5,0.3c0.8-0.1,1.5-0.3,2.2-0.7
			c0.3-0.2,0.6-0.3,0.9-0.6c1.3-1.1,1.7-2.7,1.2-4.2c-0.2-0.6-0.5-1-1-1.4c-0.6-0.6-1.3-0.9-2.1-1.1c-0.2-0.1-0.3-0.1-0.5-0.1
			c-1-0.3-1.8-0.5-2.9-0.6c-0.3,0-0.5-0.1-0.8-0.1c-0.1,0-0.2-0.1-0.3-0.1c-0.3-0.1-0.4-0.5-0.3-0.7c0,0,0,0,0,0
			c0.2-0.3,0.4-0.5,0.7-0.5c0.5-0.2,1-0.1,1.5,0c0.5,0.2,0.8,0.6,0.8,1.2h4.5c0-0.6-0.1-1-0.3-1.5c-0.2-0.5-0.5-0.9-0.9-1.3
			c-0.4-0.3-0.7-0.5-1.2-0.7C77.9,9.2,77.5,9.1,77,9c-1.1-0.2-2.1-0.2-3.2-0.2c-0.6,0-1.2,0.1-1.8,0.3c-0.8,0.2-1.5,0.5-2.2,1.1
			c-0.6,0.5-1,1-1.2,1.7c-0.1,0.3-0.2,0.6-0.2,0.9c0,0.6,0.1,1,0.3,1.5c0.4,0.9,1,1.6,1.9,1.9c0.5,0.2,0.9,0.3,1.4,0.4
			C73,16.9,73.9,17,74.8,17.2"/>
		<path class="st14" d="M19.5,16.4h-3.2v-4.2h2.1c0.4,0,0.7,0,1.1,0c0.6,0,1-0.3,1.3-0.7c0.2-0.2,0.3-0.5,0.3-0.8c0-0.2,0-0.5,0-0.7
			c-0.1-0.9-0.9-1.6-1.8-1.6h-3.1v13.5h-5.4V4.2h8.8c0.3,0,0.6,0,1,0c2.3,0.1,4.2,1.4,5.2,3.5c0.5,1.1,0.7,2.2,0.6,3.4
			c-0.3,2.5-2.1,4.5-4.6,5.1C21,16.3,20.3,16.4,19.5,16.4"/>
		<path class="st14" d="M90,9c-0.5-0.1-0.9-0.1-1.4-0.1c-0.5,0-0.9,0-1.4,0.1c-1.5,0.2-2.6,0.8-3.7,1.8c-1.1,1.1-1.8,2.4-1.9,3.9
			c-0.1,1,0,1.8,0.2,2.7c0.4,1.4,1.1,2.5,2.3,3.4c0.8,0.6,1.5,1,2.5,1.2c0.7,0.1,1.3,0.2,2,0.2c0.7,0,1.3-0.1,2-0.2
			c1-0.2,1.7-0.6,2.5-1.2l-2.7-3c-0.4,1-1.6,1.4-2.5,1c-0.4-0.2-0.8-0.5-1-1c-0.2-0.4-0.3-0.8-0.4-1.2c-0.1-0.9-0.1-1.7,0.1-2.5
			c0.1-0.5,0.2-0.8,0.5-1.2c0.6-0.9,1.7-1.1,2.6-0.5c0.2,0.1,0.4,0.3,0.5,0.5c0.3,0.4,0.4,0.8,0.5,1.2c0.2,0.9,0.2,1.7,0.1,2.5
			c-0.1,0.4-0.2,0.8-0.4,1.2l2.7,3c1.2-0.9,1.9-2,2.3-3.4c0.3-0.9,0.3-1.8,0.3-2.7c-0.1-1.6-0.8-2.9-1.9-3.9C92.6,9.8,91.5,9.2,90,9
			"/>
		<path class="st14" d="M67.8,20.9c-0.1-1-0.1-1.9-0.1-3c0-1.4,0-2.5-0.1-3.9c0-0.7-0.1-1.4-0.3-2.1c-0.2-0.9-0.8-1.7-1.6-2.1
			c-0.5-0.3-1-0.5-1.6-0.6c-1.8-0.4-3.4-0.4-5.3-0.1c-0.5,0.1-0.9,0.2-1.4,0.4c-1.1,0.5-1.9,1.3-2.3,2.5c-0.1,0.4-0.2,0.8-0.1,1.3
			c0,0.1,0,0.2,0.1,0.2l4.3,0.1c0-0.3,0-0.5,0.1-0.8c0.1-0.4,0.4-0.7,0.8-0.8c0.6-0.2,1.1-0.2,1.7,0c0.4,0.1,0.7,0.4,0.8,0.8
			c0.1,0.2,0,0.5-0.1,0.7c-0.1,0.2-0.3,0.3-0.5,0.4c-0.1,0-0.2,0.1-0.4,0.1c-0.6,0.2-1.1,0.3-1.7,0.4c-0.5,0.1-0.9,0.2-1.4,0.2
			c-0.6,0.1-1.2,0.3-1.8,0.5c-0.6,0.2-1,0.5-1.5,0.9c-0.6,0.5-0.9,1.1-1,1.9c-0.1,0.5-0.1,1,0.1,1.5c0.3,1.3,1.2,2.3,2.5,2.7
			c1.4,0.4,2.8,0.3,4.2-0.2c0.7-0.3,1.2-0.7,1.7-1.2l-0.3-2.2c-0.2,0.3-0.5,0.6-0.8,0.7c-0.3,0.1-0.6,0.2-1,0.3
			c-0.3,0-0.6,0-0.9-0.1c-0.2-0.1-0.4-0.2-0.6-0.4c-0.1-0.2-0.2-0.3-0.3-0.5c-0.1-0.3,0-0.6,0.3-0.8c0.2-0.1,0.3-0.2,0.5-0.3
			c0.5-0.2,0.9-0.3,1.4-0.5c0.6-0.2,1.1-0.4,1.7-0.6c0.1,0.5,0.1,0.9,0,1.3c0,0.3-0.2,0.6-0.3,0.9l0.3,2.2c0.1,0.3,0.2,0.6,0.3,0.9
			c0.1,0.2,0.1,0.3,0.3,0.4h4.7C67.9,21.6,67.8,21.2,67.8,20.9"/>
		<path class="st14" d="M39.4,20.9c-0.1-1-0.1-1.9-0.1-3c0-1.4,0-2.5,0-3.9c0-0.7-0.1-1.4-0.3-2.1c-0.2-0.9-0.8-1.7-1.6-2.1
			c-0.5-0.3-1-0.5-1.6-0.6c-1.8-0.4-3.4-0.4-5.3-0.1c-0.5,0.1-0.9,0.2-1.4,0.4c-1.1,0.5-1.9,1.3-2.2,2.5c-0.1,0.4-0.2,0.8-0.1,1.3
			c0,0.1,0,0.2,0.1,0.2l4.3,0.1c0-0.3,0-0.5,0.1-0.8c0.1-0.4,0.4-0.7,0.8-0.8c0.6-0.2,1.1-0.2,1.7,0c0.4,0.1,0.6,0.4,0.8,0.8
			c0.1,0.2,0,0.5-0.1,0.7c-0.1,0.2-0.3,0.3-0.5,0.4c-0.1,0-0.2,0.1-0.4,0.1c-0.6,0.2-1.1,0.3-1.7,0.4c-0.5,0.1-0.9,0.2-1.4,0.2
			c-0.6,0.1-1.2,0.3-1.8,0.5c-0.6,0.2-1,0.5-1.5,0.9c-0.6,0.5-0.9,1.1-1,1.9c-0.1,0.5-0.1,1,0.1,1.5c0.3,1.3,1.2,2.3,2.5,2.7
			c1.4,0.4,2.8,0.3,4.2-0.2c0.7-0.3,1.2-0.7,1.7-1.2l-0.3-2.2c-0.2,0.3-0.5,0.6-0.8,0.7c-0.3,0.1-0.6,0.2-1,0.3
			c-0.3,0-0.6,0-0.9-0.1c-0.2-0.1-0.4-0.2-0.6-0.4c-0.1-0.2-0.2-0.3-0.3-0.5c-0.1-0.3,0-0.6,0.3-0.8c0.2-0.1,0.3-0.2,0.5-0.3
			c0.5-0.2,0.9-0.3,1.4-0.5c0.6-0.2,1.1-0.4,1.7-0.6c0.1,0.5,0.1,0.9,0,1.3c0,0.3-0.1,0.6-0.3,0.9l0.3,2.2c0.1,0.3,0.2,0.6,0.3,0.9
			c0.1,0.2,0.1,0.3,0.3,0.4h4.7C39.5,21.6,39.4,21.2,39.4,20.9"/>
	</g>
	<g>
		<polygon class="st14" points="69.2,33.1 69.2,35.1 64.5,33.5 64.5,38.2 61.4,38.2 61.4,29.1 57.3,29.1 57.3,28 69.2,28 69.2,29.1 
			64.5,29.1 64.5,31.5 		"/>
		<path class="st14" d="M82.4,37v1.1h-7.6l0-2.4h-4.5v-6.8h4.5l0-1.1h3v1.1h4.5v6.8h-4.5V37H82.4z M77.8,34.5h1.9v-1.6h-1.9V34.5z
			 M77.8,31.8h1.9v-1.7h-1.9V31.8z M72.9,34.5h1.9v-1.6h-1.9V34.5z M72.9,31.8h1.9v-1.7h-1.9V31.8z"/>
		<polygon class="st14" points="50.7,28 50.7,29.1 53.7,29.1 54.9,32.6 57.6,32.6 56,28 		"/>
		<polygon class="st14" points="49.7,32.6 52.3,32.6 53.4,29.6 50.8,29.6 		"/>
		<polygon class="st14" points="57.7,38.2 56.3,34.5 54,34.5 54.9,37 52.7,37 54.2,33.1 51.6,33.1 49.6,38.2 		"/>
		<polygon class="st14" points="46.5,34.9 45.1,37 45.1,33.6 46.5,31.5 46.5,30.8 45.1,30.8 45.1,29.6 46.5,29.6 46.5,28 48.9,28 
			48.9,29.6 49.9,29.6 49.9,30.8 48.9,30.8 48.9,31.9 50.1,33.5 50.1,36 48.9,34.4 48.9,38.2 46.5,38.2 		"/>
		<path class="st14" d="M86.1,37.1H88v-1.1h-1.9V37.1z M90.7,37.1h1.9v-1.1h-1.9V37.1z M83.5,34.9h11.7v3.2H83.5V34.9z"/>
		<polygon class="st14" points="95.2,31.8 94.4,31.8 94.4,31.1 92.4,31.1 92.4,31.8 90.6,31.8 90.6,31.2 88,31.2 88,31.8 83.5,31.8 
			83.5,32.7 87.6,32.7 86.7,33.4 83.5,33.4 83.5,34.4 88.4,34.4 89.3,33.7 90.3,34.4 95.2,34.4 95.2,33.4 92,33.4 91,32.7 
			95.2,32.7 		"/>
		<path class="st14" d="M83.5,28h11.7v2.9H83.5V28z M90.7,29.9h1.9v-1h-1.9V29.9z M86.1,29.9H88v-1h-1.9V29.9z"/>
	</g>
</g>
</svg>
