<?xml version="1.0" encoding="utf-8"?>
<!-- Generator: Adobe Illustrator 22.0.1, SVG Export Plug-In . SVG Version: 6.00 Build 0)  -->
<svg version="1.1" id="图层_1" xmlns="http://www.w3.org/2000/svg" xmlns:xlink="http://www.w3.org/1999/xlink" x="0px" y="0px"
	 viewBox="0 0 133.8 51.7" style="enable-background:new 0 0 133.8 51.7;" xml:space="preserve">
<style type="text/css">
	.st0{fill-rule:evenodd;clip-rule:evenodd;fill:#2E82C5;}
	.st1{fill:#273897;}
	.st2{fill:#FE0000;}
	.st3{fill:#E60012;}
	.st4{fill-rule:evenodd;clip-rule:evenodd;fill:#FDD108;}
	.st5{fill-rule:evenodd;clip-rule:evenodd;fill:#231815;}
	.st6{fill-rule:evenodd;clip-rule:evenodd;fill:#727171;}
	.st7{fill:#231815;}
	.st8{fill:#F7B400;}
	.st9{fill:#FFFFFF;}
	.st10{fill-rule:evenodd;clip-rule:evenodd;fill:#0058A9;}
	.st11{fill:#3DAE2B;}
	.st12{fill-rule:evenodd;clip-rule:evenodd;fill:#0076C0;}
	.st13{fill-rule:evenodd;clip-rule:evenodd;fill:#EF8200;}
	.st14{fill:#07529B;}
	.st15{fill:url(#SVGID_1_);}
	.st16{fill:url(#SVGID_2_);}
	.st17{fill:url(#SVGID_3_);}
	.st18{fill:url(#SVGID_4_);}
	.st19{fill:url(#SVGID_5_);}
	.st20{clip-path:url(#SVGID_6_);}
	.st21{clip-path:url(#SVGID_7_);}
	.st22{fill:#0C73B9;}
	.st23{fill:#005BAB;}
	.st24{fill:#0A5FA6;}
	.st25{opacity:0.5;fill:#E50012;}
	.st26{fill:#FFFEFA;}
	.st27{opacity:0.5;fill:#2CA6E0;}
	.st28{fill:#69C146;}
	.st29{fill:#009844;}
	.st30{fill:#F29600;}
	.st31{fill:#E50012;}
	.st32{fill:#161D29;}
	.st33{fill:#00913A;}
	.st34{fill-rule:evenodd;clip-rule:evenodd;fill:#B42E82;}
</style>
<g>
	<g>
		<path class="st1" d="M110.4,46.1c-1.2-1.3-2.5-2.6-3.7-4c-1.2-1.3-6.8-7.4-7.4-8.1c-1.6-1.9-3.2-3.7-4.6-5.7
			c-0.2-0.3-0.4-0.4-0.8-0.4c-1,0-1.9,0-2.9,0c-0.2,0-0.6-0.1-0.7,0.1c-0.2,0.3,0.1,0.5,0.3,0.7c1.7,2.9,3.8,5.6,5.8,8.2
			c0.4,0.5,3,3.6,3.2,3.9c0.4,0.6,0.9,1.1,1.4,1.6c1.2,1.3,2.4,2.6,3.6,3.8c0.2,0.2,0.5,0.3,0.8,0.3c0.8,0,1.5,0,2.3,0
			c0.8,0,1.6,0,2.4,0c0.1,0,0.3,0,0.4-0.1C110.7,46.3,110.5,46.2,110.4,46.1z"/>
		<path class="st1" d="M70.2,20.8c0.1-0.4-0.1-0.6-0.4-0.6c-1.3,0.1-2.6,0.2-3.8,0.3c-0.2,0-0.3,0.1-0.4,0.3
			c-0.1,0.3-0.1,0.6-0.2,0.9c-0.4,1.8-0.7,3.6-1.1,5.4c-0.1,0.4-0.2,0.6-0.6,0.6c-1-0.1-2-0.1-3-0.1c-2.2-0.1-4.3,0.2-6.3,0.8
			c-1.6,0.5-3.1,1.3-4.4,2.5c-2.4,2.3-3.6,5.1-3.5,8.4c0,1.3,0.4,2.6,1.2,3.7c1.3,1.9,3.3,2.9,5.5,3.3c1.9,0.3,3.9,0.3,5.8-0.1
			c1.4-0.3,2.8-0.8,4-1.7c1.8-1.4,2.9-3.2,3.5-5.3c0.4-1.3,0.6-2.6,0.9-4c0.5-2.6,1-5.2,1.5-7.9c0.2-1.3,0.5-2.6,0.8-3.9
			C69.8,22.5,70,21.7,70.2,20.8z M63.3,31.5c-0.2,0.9-0.4,1.9-0.6,2.8c-0.3,1.4-0.5,2.9-0.9,4.3c-0.4,1.6-1.2,2.9-2.7,3.6
			c-1.3,0.6-2.6,0.8-4,0.6c-0.7-0.1-1.3-0.2-2-0.5c-1-0.5-1.6-1.4-1.7-2.5c-0.2-2.7,0.5-5.1,2.5-7c1.1-1,2.4-1.5,3.8-1.8
			c1-0.2,2.1-0.3,3.1-0.3c0.6,0,1.2,0,1.8,0.1C63.4,30.9,63.4,30.9,63.3,31.5z"/>
		<path class="st1" d="M132.8,33.9c-0.5-2.8-2.1-4.5-4.7-5.5c-1.8-0.7-3.6-0.8-5.5-0.7c-1.9,0.1-3.6,0.5-5.3,1.3
			c-2.1,1-3.9,2.4-5.2,4.4c-1.1,1.6-1.7,3.4-1.9,5.3c-0.2,2.1,0.3,4,1.8,5.6c1.5,1.5,3.4,2.2,5.5,2.4c1.8,0.2,3.6,0.1,5.3-0.3
			c2.9-0.6,5.4-2,7.3-4.2c1.8-2.1,2.7-4.5,2.7-7.2C132.8,34.7,132.9,34.3,132.8,33.9z M124.4,42c-1.1,0.8-2.3,1.2-3.6,1.4
			c-1.2,0.1-2.3,0-3.4-0.4c-1-0.5-1.6-1.3-1.9-2.3c-0.3-1.4,0-2.6,0.4-3.9c0.5-1.7,1.4-3.1,2.8-4.1c1-0.8,2.2-1.3,3.5-1.4
			c1.1-0.1,2.1,0,3.1,0.4c1.4,0.6,2.3,1.9,2.3,3.4c0,0.2,0,0.4,0,0.5C127.5,38.1,126.5,40.3,124.4,42z"/>
		<path class="st1" d="M43.5,30.9c-1.2-1.6-2.8-2.4-4.7-2.8c-2.1-0.5-4.3-0.5-6.4,0c-3.1,0.7-5.8,2.2-7.7,4.8
			c-1,1.4-1.7,2.9-2.1,4.5c-0.3,1.2-0.3,2.4-0.1,3.6c0.6,2.7,2.4,4.2,4.9,5c1.3,0.4,2.6,0.6,3.9,0.5c1.2,0,2.3-0.1,3.4-0.3
			c2.1-0.4,4-1.2,5.6-2.6c2.9-2.4,4.5-5.4,4.4-9.2C44.7,33.2,44.3,32,43.5,30.9z M34.2,42.9c-0.3,0.1-0.5,0.1-0.8,0.2
			c-0.5,0.1-0.9,0.1-1.4,0.1c-0.7,0-1.3-0.1-2-0.2c-1.6-0.5-2.5-1.6-2.5-3.2c-0.1-3.3,1.2-6,4.2-7.7c1.4-0.8,2.9-1.1,4.5-0.8
			c2.1,0.3,3.3,1.7,3.4,3.8C39.7,38.2,37.8,41.9,34.2,42.9z"/>
		<path class="st1" d="M87.2,28.9c-1.4-0.9-3-1-4.6-1.1c-1.7-0.1-3.4,0.1-5.1,0.6c-2.5,0.7-4.6,2-6.2,4c-1.7,2-2.5,4.4-2.4,7.1
			c0,2.6,1.2,4.6,3.4,6c1.6,1,3.4,1.5,5.2,1.6c2.8,0.2,5.5-0.4,8-1.8c0.1-0.1,0.4-0.1,0.3-0.3c-0.1-0.2-0.2-0.1-0.4-0.1
			C84.3,45,83.1,45,82,45c-1.8-0.1-3.6-0.3-5.3-1.1c-2.1-1-3-3-2.9-5.1c0-0.2,0.1-0.3,0.3-0.2c1.5,0.3,3,0.5,4.3,0.4
			c2.9,0,5.5-0.3,7.9-1.7c1.5-0.9,2.6-2.1,2.9-3.9C89.6,31.5,88.9,29.9,87.2,28.9z M84.2,34.3c-0.6,0.7-1.5,1-2.3,1.2
			c-1.1,0.3-2.3,0.4-3.5,0.3c-1.1,0-2.2-0.1-3.3-0.2c-0.5-0.1-0.6-0.2-0.3-0.6c1.3-2.5,3.3-3.9,6-4.2c0.9-0.1,1.8,0,2.6,0.2
			C85.1,31.5,85,33.4,84.2,34.3z"/>
		<path class="st1" d="M22.5,28.4c-1.9-0.3-3.9-0.4-5.8-0.5c-1.1,0-2.2,0.1-3.2,0.2c-1.7,0.1-3.3,0.4-4.8,1.1
			c-1.5,0.6-2.8,1.4-3.6,2.8c-1.1,2-0.7,4.6,1.8,5.6c1.8,0.7,3.6,0.7,5.5,1.1c0.7,0.1,1.4,0.3,2.1,0.7c0.3,0.2,0.5,0.5,0.6,0.8
			c0.1,0.7-0.1,1.3-0.5,1.8c-0.7,0.7-1.5,1-2.4,1.2c-2.4,0.5-4.7,0.4-7.1,0.1C4,43.1,3,43,2.1,42.9c-0.3,0-0.5,0-0.6,0.3
			c-0.2,0.7-0.4,1.3-0.6,2c-0.1,0.3,0,0.5,0.3,0.6c2,0.5,4,0.8,6.1,0.9c1.4,0.1,2.9,0.1,4.3-0.1c1.6-0.2,3.2-0.5,4.7-1.2
			c2.3-1,3.7-2.8,3.9-5.3c0.1-0.8,0-1.6-0.4-2.4c-0.7-1.1-1.7-1.6-2.9-2c-1.3-0.4-2.7-0.5-4.1-0.8c-0.8-0.1-1.6-0.2-2.4-0.6
			c-0.9-0.4-1-1.3-0.3-2c0.4-0.4,1-0.6,1.6-0.8c1.8-0.5,3.7-0.6,5.4-0.6c0.9,0,1.6,0,2.2,0.1c0.7,0.1,1.4,0.1,2.1,0.1
			c0.3,0,0.5-0.1,0.6-0.4c0.2-0.6,0.4-1.3,0.7-1.9C22.9,28.6,22.8,28.5,22.5,28.4z"/>
		<path class="st1" d="M109.4,15.7c1.3,0.2,2.7,0.4,4,0.6c0.5,0.1,0.6,0.1,0.4,0.6c-0.3,1.1-0.6,2.2-1,3.3c-0.1,0.4-0.3,0.9-0.4,1.3
			c0,0.2,0,0.3,0.1,0.3c0.1,0.1,0.2,0,0.3-0.1c0.4-0.3,0.7-0.7,1.1-1c0.8-0.8,1.7-1.5,2.5-2.3c0.2-0.2,0.4-0.2,0.6,0.1
			c0.8,1.1,1.6,2.2,2.4,3.3c0.1,0.1,0.1,0.3,0.3,0.3c0.2-0.1,0.2-0.2,0.2-0.4c0-0.1,0-0.1,0-0.2c0.1-1.4,0.1-2.8,0.2-4.1
			c0-0.7,0.1-0.8,0.9-0.9c1.3-0.1,2.7-0.2,4-0.3c0.1,0,0.3,0,0.3-0.2c0.1-0.2-0.1-0.3-0.2-0.3c-1-0.8-2.1-1.6-3.1-2.4
			c-0.4-0.3-0.4-0.4-0.1-0.8c0.9-1.2,1.9-2.4,2.8-3.6c0.1-0.2,0.4-0.4,0.3-0.6c-0.2-0.2-0.5,0-0.7,0.1c-1.3,0.5-2.6,0.9-3.9,1.4
			c-0.4,0.1-0.5,0.1-0.5-0.3c-0.2-1.5-0.4-3-0.7-4.5c0-0.1,0-0.3-0.2-0.3c-0.1,0-0.2,0.1-0.2,0.2c-0.1,0.1-0.1,0.2-0.2,0.4
			c-0.7,1.4-1.3,2.8-2,4.1c-0.2,0.4-0.4,0.4-0.7,0.2c-1.2-0.6-2.4-1.1-3.6-1.7c-0.1-0.1-0.3-0.2-0.4,0c-0.1,0.2,0,0.3,0.1,0.5
			c0.5,1.2,1,2.5,1.5,3.7c0.3,0.7,0.3,0.7-0.4,1.1c-1.3,0.7-2.6,1.4-3.9,2.1c-0.1,0.1-0.3,0.1-0.2,0.3
			C109.1,15.7,109.2,15.7,109.4,15.7z"/>
	</g>
	<path class="st2" d="M98.9,40.8c-1.5,1-3.1,1.8-4.7,2.5c-2.2,0.9-4.5,1.5-6.9,1.7c-0.3,0-0.6,0.1-0.9,0.1c-0.1,0-0.3,0-0.4-0.1
		c0-0.2,0.1-0.3,0.3-0.3c0.6-0.3,1.1-0.6,1.7-1c2.2-1.3,4.3-2.8,6.4-4.3c0.6-0.5,1.2-0.9,1.9-1.4c0.5-0.4,3.7-3.1,4.3-3.6
		c1.7-1.5,3.3-3,4.9-4.7c2.2-2.3,4.4-4.6,6.5-7.1c0,0,0.1-0.1,0.1-0.1c0.1-0.1,0.2-0.2,0.3-0.1c0.1,0.1,0.1,0.2,0,0.3
		c-0.2,0.7-0.5,1.4-0.7,2.1c-0.7,1.8-1.5,3.5-2.5,5.2c-1.2,2.1-2.6,4-4.1,5.7c-0.6,0.7-1.3,1.4-2,2.1
		C102.8,37.8,99.2,40.6,98.9,40.8z"/>
</g>
</svg>
