<?xml version="1.0" encoding="utf-8"?>
<!-- Generator: Adobe Illustrator 22.0.1, SVG Export Plug-In . SVG Version: 6.00 Build 0)  -->
<svg version="1.1" id="图层_1" xmlns="http://www.w3.org/2000/svg" xmlns:xlink="http://www.w3.org/1999/xlink" x="0px" y="0px"
	 viewBox="0 0 96.3 37" style="enable-background:new 0 0 96.3 37;" xml:space="preserve">
<style type="text/css">
	.st0{fill-rule:evenodd;clip-rule:evenodd;fill:#2E82C5;}
	.st1{fill:#273897;}
	.st2{fill:#FE0000;}
	.st3{fill:#E60012;}
	.st4{fill-rule:evenodd;clip-rule:evenodd;fill:#FDD108;}
	.st5{fill-rule:evenodd;clip-rule:evenodd;fill:#231815;}
	.st6{fill-rule:evenodd;clip-rule:evenodd;fill:#727171;}
	.st7{fill:#231815;}
	.st8{fill:#F7B400;}
	.st9{fill:#FFFFFF;}
	.st10{fill-rule:evenodd;clip-rule:evenodd;fill:#0058A9;}
	.st11{fill:#3DAE2B;}
	.st12{fill-rule:evenodd;clip-rule:evenodd;fill:#0076C0;}
	.st13{fill-rule:evenodd;clip-rule:evenodd;fill:#EF8200;}
	.st14{fill:#07529B;}
	.st15{fill:url(#SVGID_1_);}
	.st16{fill:url(#SVGID_2_);}
	.st17{fill:url(#SVGID_3_);}
	.st18{fill:url(#SVGID_4_);}
	.st19{fill:url(#SVGID_5_);}
	.st20{clip-path:url(#SVGID_6_);}
	.st21{clip-path:url(#SVGID_7_);}
	.st22{fill:#0C73B9;}
	.st23{fill:#005BAB;}
	.st24{fill:#0A5FA6;}
	.st25{opacity:0.5;fill:#E50012;}
	.st26{fill:#FFFEFA;}
	.st27{opacity:0.5;fill:#2CA6E0;}
	.st28{fill:#69C146;}
	.st29{fill:#009844;}
	.st30{fill:#F29600;}
	.st31{fill:#E50012;}
	.st32{fill:#161D29;}
	.st33{fill:#00913A;}
	.st34{fill-rule:evenodd;clip-rule:evenodd;fill:#B42E82;}
</style>
<g>
	<path class="st10" d="M43.7,31.5c0.4,0.4,0.2,0.6,0.9,0.8l4.8,0l0-19.7c-1.2,0-4.4-0.4-5.2,0.3l-0.4,0.5c-7.4-3.9-15.2,1.7-15.3,9
		C28.3,29.8,36.1,35.2,43.7,31.5L43.7,31.5z M37.5,16.7c-7.8,2.3-4.2,13.6,3.3,11.3C47.9,25.9,45.1,14.5,37.5,16.7L37.5,16.7z"/>
	<polygon class="st10" points="2.3,32.2 8.2,32.3 8.3,21.7 19.7,21.6 19.8,32.2 25.7,32.3 25.8,6.1 19.8,6.1 19.8,16.7 8.3,16.7 
		8.3,6.1 2.3,6.1 2.3,32.2 	"/>
	<path class="st10" d="M81.2,26.1l-4.3-0.7c-1.6,1.4-2.7,3.6-6.2,3c-2.5-0.4-4.2-2.4-4.7-4.8l16,0c1.6-12.4-17.2-16.3-20.7-3.9
		c-2.5,8.8,7.1,16.1,15.3,11.8C78.1,30.6,81.1,28.2,81.2,26.1L81.2,26.1z M66.4,20.1l10.5,0C75.5,15.1,67.9,15.2,66.4,20.1
		L66.4,20.1z"/>
	<path class="st10" d="M84.4,32.2l5.2,0.1c0.3-9.2-1.7-15,4.5-16.6l-0.8-4.9c-3.2-0.3-7.1,3.2-8.4,6.9C84,20.3,84.3,28.8,84.4,32.2
		L84.4,32.2z"/>
	<polygon class="st10" points="52.7,32.2 58.1,32.3 58.2,12.5 52.8,12.4 52.7,32.2 	"/>
	<circle class="st10" cx="55.4" cy="7.4" r="3"/>
</g>
</svg>
