<?xml version="1.0" encoding="utf-8"?>
<!-- Generator: Adobe Illustrator 22.0.1, SVG Export Plug-In . SVG Version: 6.00 Build 0)  -->
<svg version="1.1" id="图层_1" xmlns="http://www.w3.org/2000/svg" xmlns:xlink="http://www.w3.org/1999/xlink" x="0px" y="0px"
	 viewBox="0 0 162.4 55.2" style="enable-background:new 0 0 162.4 55.2;" xml:space="preserve">
<style type="text/css">
	.st0{fill-rule:evenodd;clip-rule:evenodd;fill:#2E82C5;}
	.st1{fill:#273897;}
	.st2{fill:#FE0000;}
	.st3{fill:#E60012;}
	.st4{fill-rule:evenodd;clip-rule:evenodd;fill:#FDD108;}
	.st5{fill-rule:evenodd;clip-rule:evenodd;fill:#231815;}
	.st6{fill-rule:evenodd;clip-rule:evenodd;fill:#727171;}
	.st7{fill:#231815;}
	.st8{fill:#F7B400;}
	.st9{fill:#FFFFFF;}
	.st10{fill-rule:evenodd;clip-rule:evenodd;fill:#0058A9;}
	.st11{fill:#3DAE2B;}
	.st12{fill-rule:evenodd;clip-rule:evenodd;fill:#0076C0;}
	.st13{fill-rule:evenodd;clip-rule:evenodd;fill:#EF8200;}
	.st14{fill:#07529B;}
	.st15{fill:url(#SVGID_1_);}
	.st16{fill:url(#SVGID_2_);}
	.st17{fill:url(#SVGID_3_);}
	.st18{fill:url(#SVGID_4_);}
	.st19{fill:url(#SVGID_5_);}
	.st20{clip-path:url(#SVGID_6_);}
	.st21{clip-path:url(#SVGID_7_);}
	.st22{fill:#0C73B9;}
	.st23{fill:#005BAB;}
	.st24{fill:#0A5FA6;}
	.st25{opacity:0.5;fill:#E50012;}
	.st26{fill:#FFFEFA;}
	.st27{opacity:0.5;fill:#2CA6E0;}
	.st28{fill:#69C146;}
	.st29{fill:#009844;}
	.st30{fill:#F29600;}
	.st31{fill:#E50012;}
	.st32{fill:#161D29;}
	.st33{fill:#00913A;}
	.st34{fill-rule:evenodd;clip-rule:evenodd;fill:#B42E82;}
</style>
<g>
	<path class="st32" d="M60.5,23.7c0.2,0.2,0.3,0.5,0.4,0.6l1,1.3l0.7,1.1c-0.3,0.2-0.7,0.5-1,0.8c-0.4,0.3-0.8,0.6-1.1,0.8
		c0-0.1,0-0.1-0.1-0.2V23.7L60.5,23.7z M60.5,32.8c1-1,2-1.8,2.8-2.5c-0.4-0.9-0.7-1.5-0.7-1.8c0-0.2-0.1-0.5-0.2-0.7l-0.7,0.7
		c-0.2,0.2-0.6,0.5-1.2,1V32.8L60.5,32.8z M60.5,23.5L60.5,23.5H64v8.8c0,0.3,0,0.6-0.2,0.7c-0.1,0.1-0.3,0.2-0.7,0.2
		c-0.3,0-0.8,0-1.2-0.1c0.5,1,0.7,1.6,0.8,1.9c0.1,0.3,0.2,0.7,0.3,1c0.9-0.1,1.7-0.2,2.3-0.3c0.7-0.2,1-0.3,1.2-0.5
		c0.1-0.2,0.2-0.5,0.2-1v-3.8l0.5,0.7c0.2,0.3,0.5,0.7,1,1.1c0.5,0.5,1,0.9,1.5,1.3c0.5,0.4,1.2,0.8,2.1,1.3l0.3-0.6l0.8-1.4
		c0.1-0.1,0.2-0.4,0.4-0.7l-1.1-0.4c-0.2-0.1-0.6-0.3-1.2-0.7c-0.5-0.4-0.9-0.7-1.2-0.9c-0.2-0.2-0.5-0.6-0.8-1
		c1-1.1,1.9-2.2,2.8-3.2l-0.6-0.5l-1-0.8c-0.2-0.1-0.4-0.3-0.7-0.6c-0.5,0.9-0.9,1.6-1.2,1.9c-0.3,0.3-0.5,0.7-0.8,1l-0.6-1.5
		c-0.1-0.2-0.2-0.6-0.4-1.3v-0.7h3.4l2.7,0.1l0-2.8l-2.7,0.1h-0.4l0.7-6.2l0.3-1.5l-2.5,0.1h-6.4l-1.2,0v2.6l1.2,0h5.9l-0.2,1.5
		h-5.4l-1.5-0.1v2.5l1.5,0h5.1l-0.2,1.3h-6.4h0V23.5z M58.7,24.9c0.7-0.4,1.1-0.7,1.2-0.7l0.6-0.4l0,0v4.5c-0.2-0.3-0.4-0.7-0.7-1
		c-0.2-0.3-0.6-0.8-1.2-1.5V24.9L58.7,24.9z M60.5,13.3v2.6l-1.5,0v-2.7L60.5,13.3L60.5,13.3z M60.5,17.2v2.5l-1,0v-2.5L60.5,17.2
		L60.5,17.2z M60.5,20.9v2.5l-1.8,0.1v-2.7L60.5,20.9L60.5,20.9z M60.5,29.5v3.3c-0.5,0.5-1,1-1.6,1.5c-0.1-0.2-0.1-0.3-0.2-0.6v-3
		c0.4-0.3,0.9-0.6,1.3-0.9C60.2,29.7,60.4,29.6,60.5,29.5L60.5,29.5z M58.7,18.4v-0.8c0.1,0.1,0.2,0.2,0.4,0.2
		C59,18.1,58.8,18.2,58.7,18.4z M58.3,25.1c0.1-0.1,0.2-0.2,0.4-0.2v0.7C58.6,25.5,58.5,25.3,58.3,25.1L58.3,25.1z M58.7,17.6
		c-1.1-0.7-1.7-1-1.8-1.1c-0.1,0-0.2-0.2-0.4-0.3l-0.5,1c-0.2,0.5-0.7,1.3-1.4,2.5c-0.7,0-1.3,0-1.8,0c1.2-1.8,1.9-2.8,1.9-2.8
		c0.1-0.1,0.3-0.5,0.8-1.2c0.4-0.7,0.8-1.4,1.2-2c-1.2-0.5-2.2-1-2.8-1.3l-0.5,1.2c-0.3,0.9-0.9,1.8-1.5,2.9c-0.7,1-1.1,1.7-1.3,2
		c-0.3,0.3-0.6,0.7-1,1l0.2,0.8c0.1,0.3,0.2,0.9,0.3,1.9c1,0,2-0.1,3-0.1c-0.7,1-1.2,1.8-1.6,2.3c-0.4,0.5-1,1.1-1.6,1.7l0.2,0.7
		c0.1,0.4,0.3,1,0.5,1.9c3.7-0.7,6-1,7.1-1.1l0.2-0.8l0.2-1.1c0-0.2,0.1-0.4,0.2-0.7c-1.5,0.3-3,0.5-4.6,0.7l1.4-1.7
		c0.1-0.1,0.5-0.7,1.3-1.8c0.8-1.1,1.2-1.7,1.4-1.9l0.7-1.1c0.1-0.2,0.3-0.3,0.5-0.7V17.6L58.7,17.6z M58.7,20.9v2.7l-1.1,0v-2.8
		L58.7,20.9L58.7,20.9z M58.7,30.8v3c-0.1-0.2-0.2-0.3-0.2-0.5c-0.2-0.4-0.4-0.9-0.8-1.6l0,0.5c-2.2,0.8-4.4,1.8-6.6,2.8
		c-0.5-1.1-0.9-2-1.3-2.8c2.2-0.5,4.8-1.4,8.1-2.8c0,0.7-0.2,1.3-0.2,2C58,31.2,58.3,31,58.7,30.8z"/>
	<path class="st32" d="M82.5,22.7l1.8-0.8v-3.6l-0.1-2.4h3l-0.1,2.4v2.2l1.8-0.8l0-4l-0.1-2.8h2.9l-0.1,3v2.6l3.6-1.8l1.8,1.1V25
		c0,1.2-0.2,2.1-0.6,2.6c-0.4,0.6-0.8,0.9-1.2,1.1c-0.4,0.2-1.1,0.4-2.2,0.7c-0.3-0.9-0.7-1.9-1.1-2.9c1,0,1.6-0.2,1.8-0.5
		c0.2-0.3,0.3-0.6,0.3-1c0-0.4,0.1-0.8,0.1-1.3c0-0.5,0-1.2,0-2.1l0-1.7l-2.5,1.2v7l0.1,2.5h-2.9l0-2.6l0-5.6l-1.8,0.8v8
		c0,0.4,0.1,0.7,0.2,0.8c0.1,0.2,0.5,0.3,1,0.4c0.5,0,1.4,0.1,2.6,0.1c1.3,0,2.2,0,2.8-0.1c0.6,0,1-0.1,1.2-0.2
		c0.2-0.1,0.4-0.3,0.6-0.6c0.2-0.3,0.3-0.6,0.5-1.1l0.2-0.8c1,0.7,1.8,1.2,2.2,1.3l0.6,0.2c-0.2,0.5-0.4,1.2-0.7,2
		c-0.3,0.8-0.7,1.3-1.1,1.6c-0.4,0.3-1,0.5-1.6,0.6c-0.6,0.1-1.7,0.1-3.3,0.1c-1.2,0-2.7-0.1-4.4-0.2c-1.7-0.2-2.7-0.3-3-0.7
		c-0.3-0.3-0.5-0.7-0.5-1c0-0.4-0.1-0.8-0.1-1.4v-7.4l-1.8,0.9V22.7L82.5,22.7z M82.5,29.8c0.4-0.1,0.8-0.3,1.2-0.4l-0.1-1.2
		c0-0.2,0-0.8,0.1-1.7c-0.4,0.2-0.8,0.3-1.2,0.5V29.8L82.5,29.8z M82.5,20.9l1,0l0-2.9l-1.1,0.1V20.9z M82.4,25.8l-1-2.7l1-0.3
		l0.2-0.1v3.1L82.4,25.8L82.4,25.8z M82.5,18.1h-0.2h-1.4v-2.5l0.1-2.5h-2.8l0.1,2.5v2.5H77l-1.7-0.1V21l1.7-0.1h1.2v7.5
		c-0.4,0.2-1,0.3-1.6,0.5c-0.6,0.2-1.1,0.3-1.5,0.3l0.3,0.8l0.5,1.7c0,0.1,0.1,0.3,0.1,0.5c2-0.8,4.1-1.6,6.4-2.4V27
		c-0.5,0.2-1,0.3-1.6,0.5v-6.6h1.3l0.3,0V18.1z"/>
	<path class="st32" d="M113.7,24.5h2.2v-0.7h-2.2v-2.3h2.2v-0.8h-2.2v-2.2h2.2v-0.8h-2.2v-2.5l2.7,0c-0.4-0.7-0.8-1.4-1.2-2
		c0.3-0.1,0.6-0.2,0.8-0.3c0.2-0.1,0.7-0.4,1.4-0.8c0.2,0.3,0.4,0.6,0.5,0.8l0.9,1.3l0.5,0.7l-0.5,0.3h6.1l1.7-0.1v2.6l-2-0.1h-5.9
		v0.8h5l2-0.1v2.3l-2-0.1h-5v0.8h5.3l1.7-0.1v2.4l-1.9,0h-5.1v0.7h6.5l1.7,0v2.4l-2.2-0.1h-6.4v0.9h8.1l1.6-0.1v2.7l-1.7,0H121
		c0.5,0.3,1,0.7,1.3,0.9c0.5,0.3,1.2,0.6,2.3,1.1c1.1,0.5,1.9,0.7,2.5,0.8l1.1,0.2c-0.2,0.3-0.5,0.6-0.7,1c-0.2,0.3-0.6,0.9-1.1,1.7
		c-1.6-0.5-2.9-1.1-4.1-1.7c-1.2-0.6-2.5-1.5-4-2.7v2.3l0,1.9h-3l0.1-2v-1.6c-0.6,0.4-1.2,0.7-1.8,1.1v-5.5h1.8v-0.9h-1.8V24.5
		L113.7,24.5z M113.7,13.7c0,0,0.1-0.1,0.1-0.1l-0.1,0V13.7z M111.5,24.5h2.2v2.3h-2.2v0.5h-2.7l0.1-2.1v-6.6
		c-0.9,0.7-1.8,1.3-2.7,1.9c-0.4-0.9-0.8-1.6-1-1.9l-0.5-0.8c0.4-0.2,0.8-0.3,1.2-0.5c0.5-0.2,1.3-0.8,2.3-1.8
		c1.1-1,1.8-1.8,2.3-2.7L111,12c1.1,0.7,1.7,1.2,2,1.2l0.7,0.3v0.2c-0.5,0.5-0.9,1.1-1.4,1.6h1.4v2.5h-2.2v0.8h2.2v2.2h-2.2v0.8h2.2
		v2.3h-2.2V24.5L111.5,24.5z M113.7,27.8v5.5c-1,0.6-2,1.1-2.8,1.4c-1.2,0.5-2.6,1-4.1,1.3c-0.2-0.4-0.3-0.7-0.4-1
		c-0.2-0.3-0.6-0.9-1.3-1.8c0.5,0,1.1-0.1,1.6-0.1c0.5-0.1,1.3-0.3,2.4-0.7c1.2-0.3,2-0.7,2.5-1.1l1.6-1h-6.6l-1.3,0v-2.7l1.5,0.1
		H113.7z"/>
	<path class="st32" d="M141.5,19.8h0.3V19l0-2.1h3l-0.1,2.1v0.8h1.8l2,0v2.7l-2-0.1h-1.8v7.7c0,0.5-0.1,0.9-0.3,1.1
		c-0.2,0.3-0.7,0.5-1.5,0.6c-0.5,0.1-1,0.2-1.6,0.2v-2.9c0.2-0.1,0.3-0.3,0.3-0.5v-4.5c-0.1,0.2-0.2,0.4-0.3,0.6V19.8L141.5,19.8z
		 M141.5,35.1h7.7v0.4h3l-0.1-2.7V16l0.1-2.3l-2.1,0.1h-8.5v2.6h7.7v16.2h-7.7V35.1z M136.8,26.7c0.8-0.7,1.7-2.2,2.8-4.3h-2.2
		l-2.6,0.1v-2.7l2.5,0h4.2v4.9c-0.7,1.1-1.3,2.2-2.1,3.1c-0.9,1.2-2,2.2-3.2,3.2c-0.3-0.8-0.7-1.3-1-1.6l-0.8-0.8
		C135.3,28,136.1,27.4,136.8,26.7L136.8,26.7z M141.5,32v-2.9c-0.2,0.1-0.3,0.1-0.6,0.1c-0.2,0-0.7,0-1.5-0.2l0.3,0.5
		c0.2,0.2,0.2,0.5,0.3,0.8c0.1,0.3,0.1,0.7,0.1,0.9s0,0.5,0,0.7C140.6,32.1,141.1,32.1,141.5,32L141.5,32z M141.5,13.8h-7.9
		l-2.4-0.1l0.1,2.9l0,15.8l0,3.1h3v-0.4h7.3v-2.6h-7.3V16.4h7.3V13.8z"/>
	<path class="st33" d="M42.4,23.8c0.5-0.7,0.8-1.5,0.8-2.5c0-2.3-1.8-4.1-4.1-4.1c-0.5,0-1,0.1-1.5,0.3c-0.2-2.1-2-3.8-4.1-3.8
		c-2.2,0-4,1.7-4.1,3.8c-0.5-0.2-0.9-0.3-1.5-0.3c-2.3,0-4.1,1.8-4.1,4.1c0,0.9,0.3,1.8,0.8,2.5c-1.4,0.7-2.3,2.1-2.3,3.7
		c0,2.3,1.8,4.2,4.1,4.2c0.7,0,1.2-0.2,1.8-0.4v1.6h-7.3V20.7l12.3-9.1l-6.9-5.3l-15.9,12h-0.1v14.6v2.7h28.4v-0.2h0.1v-4.3
		c0.6,0.3,1.3,0.5,2,0.5c2.3,0,4.1-1.8,4.1-4.2C44.8,25.9,43.8,24.5,42.4,23.8z"/>
	<path class="st32" d="M100.6,13.3L100.6,13.3L100.6,13.3h-0.1l0,0h0l0,0h0c0,0-0.1,0-0.1,0h-0.1v0.5l0,0l0,0l0,0l0,0l0,0l0,0h0l0,0
		l0,0l0,0l0,0l0,0l0,0l0,0l0,0v0h0l0,0l0,0l0,0l0,0l0,0l0,0l0,0l0,0h0v0l0,0l0,0l0,0c0,0,0,0,0,0c0,0,0,0,0.1,0.1l0,0l0,0l0,0
		c0,0,0,0,0,0l0,0v0l0,0l0,0l0,0l0,0l0,0l0,0l0,0l0,0l0,0l0,0l0,0l0,0l0,0l0,0l0,0v0l0,0l0,0h0l0,0l0,0l0,0l0,0v0l0,0l0,0l0,0l0,0h0
		l0,0l0,0l0,0l0,0v0l0,0l0,0l0,0l0,0l0,0l0,0l0,0v0l0,0h0l0,0l0,0l0,0l0,0l0,0l0,0c0,0,0,0,0,0l0,0l0,0l0,0l0,0l0,0h0l0,0l0,0l0,0
		l0,0v0l0,0l0,0l0,0l0,0l0,0l0,0l0,0l0,0l0,0l0,0v0h0l0,0l0,0l0,0l0,0l0,0l0,0l0,0l0,0v0l0,0l0,0l0,0l0,0l0,0c0,0,0,0,0,0l0,0l0,0v0
		l0,0l0,0l0,0l0,0l0,0l0,0l0,0l0,0v0h0l0,0l0,0l0,0l0,0l0,0l0,0l0,0l0,0c0,0,0,0,0,0l0,0l0,0l0,0c0,0,0,0,0,0l0,0l0,0v0l0,0l0,0l0,0
		l0,0l0,0l0,0l0,0l0,0l0,0l0,0l0,0v0h0l0,0l0,0l0,0l0,0l0,0l0,0v0l0,0l0,0l0,0l0,0l0,0h0l0,0v0l0,0l0,0l0,0l0,0l0,0l0,0l0,0l0,0l0,0
		v0l0,0h0l0,0l0,0l0,0l0,0l0,0l0,0v0l0,0l0,0l0,0l0,0l0,0l0,0v0h0l0,0l0,0l0,0l0,0l0,0l0,0l0,0l0,0v0l0,0l0,0h0l0,0l0,0l0,0l0,0v0
		l0,0l0,0l0,0l0,0l0,0l0,0l0,0l0,0h0v0l0,0l0,0l0,0l0,0l0,0l0,0l0,0v0l0,0l0,0l0,0l0,0l0,0h0l0,0l0,0l0,0v0l0,0l0,0l0,0l0,0l0,0l0,0
		l0,0l0,0c0,0,0,0,0,0l0,0l0,0l0,0l0,0l0,0l0,0l0,0v0l0,0l0,0l0,0l0,0l0,0l0,0h0l0,0l0,0v0l0,0l0,0l0,0l0,0l0,0l0,0l0,0l0,0l0,0l0,0
		c0,0,0,0,0,0h0l0,0l0,0l0,0l0,0l0,0l0,0v0l0,0l0,0h0.5l0,0l0,0c0,0,0,0,0,0l0,0l0,0c0,0,0,0,0,0l0,0l0,0l0,0l0,0v0l0,0l0,0l0,0l0,0
		l0,0l0,0l0,0l0,0l0,0l0,0l0,0l0,0l0,0l0,0c0,0,0,0,0,0l0,0l0,0l0,0l0,0h0l0,0l0,0v0l0,0l0,0l0,0l0,0l0,0l0,0l0,0v0h0l0,0l0,0l0,0
		l0,0l0,0l0,0l0,0l0,0c0,0,0,0,0,0l0,0l0,0l0,0l0,0l0,0l0,0h0l0,0l0,0v0l0,0l0,0l0,0l0,0l0,0l0,0l0,0l0,0v0l0,0l0,0l0,0l0,0h0l0,0
		l0,0l0,0l0,0v0l0,0l0,0l0,0l0,0l0,0l0,0l0,0l0,0l0,0h0v0l0,0l0,0l0,0l0,0l0,0l0,0l0,0l0,0l0,0v0l0,0l0,0h0l0,0l0,0l0,0l0,0
		c0,0,0,0,0,0l0,0l0,0l0,0l0,0l0,0c0,0,0,0,0,0l0,0l0,0l0,0l0,0l0,0v0l0,0l0,0l0,0l0,0l0,0l0,0c0,0,0,0,0,0l0,0v0l0,0l0,0l0,0l0,0
		l0,0l0,0l0,0l0,0l0,0l0,0v0l0,0l0,0c0,0,0,0,0,0l0,0l0,0l0,0v0l0,0l0,0l0,0l0,0l0,0l0,0l0,0c0,0,0,0,0,0l0,0v0l0,0l0,0l0,0l0,0l0,0
		l0,0l0,0v0l0,0l0,0l0,0l0,0l0,0h0l0,0l0,0l0,0v0l0,0l0,0l0,0l0,0l0,0l0,0l0,0h0v0l0,0l0,0l0,0l0,0l0,0l0,0v0l0,0l0,0c0,0,0,0,0,0
		l0,0l0,0l0,0l0,0l0,0v0l0,0l0,0l0,0l0,0l0,0l0,0l0,0h0v0l0,0l0,0l0,0l0,0l0,0l0,0l0,0l0,0v0l0,0l0,0c0,0,0,0,0,0l0,0l0,0l0,0l0,0
		l0,0v0l0,0l0,0l0,0h0l0,0l0,0l0,0v0l0,0l0,0l0,0l0,0l0,0l0,0l0,0l0,0l0,0l0,0l0,0c0,0,0,0,0,0l0,0l0,0l0,0c0,0,0,0,0,0l0,0l0,0v0h0
		l0,0l0,0c0,0,0,0,0,0l0,0c0,0,0,0,0,0h0c0,0,0,0,0,0l0,0c0,0,0,0,0,0l0,0l0,0l0,0l0,0l0,0c0,0,0,0,0,0l0,0l0,0v0l0,0l0,0l0,0
		c0,0,0,0,0,0l0,0l0,0c0,0-0.1,0-0.1-0.1l0,0l0,0h0l0,0l0,0l0,0c0.1,0,0.1,0,0.2,0c0,0,0,0,0,0l0,0l0,0h0v0l0,0l0,0l0,0l0,0h0l0,0
		l0,0l0,0l0,0l0,0l0,0l0,0l0,0h0l0,0l0,0l0,0l0,0l0,0l0,0l0,0l0,0h0v0l0,0l0,0l0,0l0,0h0l0,0l0,0l0,0l0,0l0,0l0,0l0,0c0,0,0,0,0,0
		l0,0h0l0,0l0,0l0,0l0,0h0v0l0,0l0,0l0,0l0,0l0,0l0,0l0,0l0,0l0,0h0l0,0l0,0l0,0c0,0,0,0,0,0l0,0l0,0h0l0,0v0c0,0,0,0,0,0l0,0l0,0
		l0,0l0,0c0,0,0,0,0,0l0,0h0l0,0l0,0v0l0,0l0,0l0,0l0,0l0,0l0,0c0,0,0,0,0,0l0,0v0l0,0l0,0l0,0l0,0l0,0l0,0l0,0l0,0l0,0c0,0,0,0,0,0
		h0l0,0l0,0l0,0l0,0v0l0,0l0,0l0,0l0,0l0,0l0,0l0,0l0,0v0h0l0,0l0,0l0,0l0,0l0,0l0,0l0,0v0l0,0l0,0l0,0l0,0l0,0v0l0,0l0,0l0,0l0,0
		l0,0h0v0l0,0l0,0l0,0l0,0v0l0,0l0,0l0,0v0l0,0l0,0v0v-0.1c0,0,0-0.1,0-0.1v0l0,0v0l0,0l0,0l0,0c0,0,0,0,0,0v0l0,0l0,0l0,0v0l0,0h0
		l0,0v0l0,0l0,0l0,0l0,0l0,0l0,0l0,0c0,0,0,0,0,0l0,0l0,0l0,0l0,0v0l0,0l0,0l0,0l0,0l0,0h0l0,0l0,0l0,0v0l0,0l0,0l0,0l0,0l0,0l0,0
		c0,0,0,0,0,0l0,0l0,0l0,0l0,0l0,0l0,0h0l0,0v0l0,0l0,0l0,0l0,0l0,0l0,0l0,0l0,0v0l0,0l0,0l0,0l0,0l0,0l0,0l0,0c0,0,0,0,0,0l0,0
		c0,0,0,0,0,0l0,0l0,0l0,0l0,0l0,0h0v0l0,0l0,0l0,0l0,0c0,0,0,0,0,0l0,0l0,0l0,0c0,0,0,0,0,0l0,0l0,0c0,0,0,0,0,0l0,0c0,0,0,0,0,0
		l0,0l0,0l0,0l0,0h0l0,0l0,0l0,0l0,0v0l0,0l0,0l0,0c0,0,0,0,0,0l0,0l0,0l0,0l0,0l0,0l0,0l0,0h0l0,0l0,0v0l0,0l0,0l0,0l0,0h0l0,0l0,0
		l0,0l0,0l0,0l0,0h0l0,0l0,0v0h0l0,0l0,0l0,0l0,0l0,0l0,0l0,0l0,0c0,0,0,0,0,0l0,0l0,0l0,0h0l0,0l0,0l0,0h0l0,0v0h0c0,0,0,0,0,0l0,0
		c0,0-0.1,0-0.1,0h0l0,0h0c0,0,0,0-0.1,0h-0.1c0,0,0,0-0.1,0h-0.2v0.3h0.2c0,0,0,0,0.1,0h0c0,0,0,0,0.1,0c0,0,0,0,0.1,0
		c0,0,0.1,0,0.1,0v0l0,0l0,0l0,0h0l0,0l0,0l0,0l0,0l0,0l0,0h0l0,0l0,0l0,0l0,0l0,0c0,0,0,0,0,0l0,0l0,0l0,0c0,0,0,0,0,0l0,0l0,0l0,0
		l0,0l0,0c0,0,0,0,0,0h0l0,0l0,0l0,0l0,0c0,0,0,0,0,0l0,0l0,0l0,0l0,0c0,0,0,0,0,0l0,0l0,0l0,0h0l0,0l0,0l0,0l0,0l0,0l0,0v0l0,0l0,0
		l0,0l0,0l0,0l0,0l0,0h0v0l0,0l0,0l0,0l0,0l0,0l0,0l0,0l0,0v0l0,0l0,0l0,0l0,0v0l0,0l0,0l0,0l0,0h0l0,0v0l0,0l0,0v0l0,0v0
		c0,0,0,0,0,0.1l0,0c0,0,0,0.1,0,0.1l0,0v0l0,0l0,0l0,0l0,0l0,0l0,0v0l0,0l0,0l0,0l0,0l0,0l0,0h0l0,0v0l0,0l0,0l0,0l0,0l0,0l0,0l0,0
		l0,0v0h0l0,0l0,0l0,0l0,0l0,0l0,0l0,0v0l0,0l0,0l0,0l0,0h0v0l0,0l0,0h0v0l0,0l0,0l0,0l0,0l0,0h0l0,0l0,0c0,0,0,0,0,0l0,0l0,0l0,0
		l0,0l0,0h0l0,0l0,0l0,0l0,0l0,0l0,0h0l0,0c0,0,0,0,0,0l0,0l0,0l0,0h0l0,0C100.7,13.3,100.7,13.3,100.6,13.3
		C100.7,13.3,100.7,13.3,100.6,13.3L100.6,13.3L100.6,13.3z M100.3,16.2v-0.4h0.1l0,0l0,0l0,0h0l0,0h0c0,0,0,0,0.1,0l0,0
		c0,0,0.1,0,0.2,0l0,0l0,0h0l0,0l0,0l0,0l0,0h0l0,0l0,0l0,0l0,0c0.1,0,0.2,0,0.2-0.1h0l0,0l0,0c0,0,0,0,0,0h0l0,0l0,0l0,0l0,0h0l0,0
		l0,0l0,0l0,0l0,0l0,0l0,0l0,0h0l0,0v0l0,0l0,0l0,0h0l0,0l0,0l0,0l0,0l0,0l0,0l0,0l0,0l0,0l0,0h0l0,0l0,0l0,0l0,0l0,0l0,0v0
		c0,0,0,0,0,0l0,0l0,0l0,0l0,0l0,0l0,0l0,0l0,0l0,0h0l0,0l0,0l0,0l0,0l0,0l0,0l0,0v0c0,0,0,0,0,0l0,0h0l0,0l0,0l0,0l0,0l0,0v0l0,0
		l0,0h0l0,0l0,0l0,0l0,0l0,0h0l0,0c0,0,0,0,0,0l0,0l0,0l0,0l0,0l0,0h0l0,0l0,0l0,0l0,0l0,0l0,0l0,0l0,0l0,0l0,0l0,0l0,0l0,0l0,0l0,0
		l0,0h0l0,0l0,0l0,0l0,0v0l0,0l0,0l0,0l0,0h0l0,0l0,0l0,0l0,0l0,0c0,0,0,0,0,0l0,0h0l0,0l0,0l0,0l0,0l0,0l0,0l0,0l0,0h0v0l0,0l0,0
		l0,0l0,0l0,0l0,0h0l0,0c0,0,0,0,0,0l0,0l0,0l0,0l0,0h0l0,0c0,0,0,0,0,0h0l0,0l0,0c0,0,0,0,0,0l0,0c0,0,0,0,0,0s0,0,0,0l0,0l0,0l0,0
		v0l0,0h0l0,0l0,0v0l0,0l0,0h0l0,0l0,0l0,0l0,0v0l0,0l0,0l0,0c0,0,0,0,0,0l0,0l0,0v0l0,0l0,0l0,0l0,0l0,0l0,0l0,0c0,0,0,0,0,0l0,0
		l0,0l0,0l0,0l0,0l0,0l0,0l0,0v0l0,0l0,0l0,0l0,0c0,0,0,0,0,0l0,0l0,0v0l0,0l0,0l0,0l0,0l0,0c0,0,0,0,0,0l0,0l0,0v0l0,0l0,0l0,0l0,0
		l0,0l0,0l0,0v0l0,0l0,0l0,0c0,0,0,0,0,0l0,0l0,0l0,0c0,0,0,0,0,0l0,0l0,0l0,0l0,0l0,0v0h0l0,0l0,0l0,0l0,0v0l0,0l0,0l0,0l0,0l0,0
		l0,0l0,0l0,0l0,0l0,0l0,0l0,0l0,0l0,0v0l0,0l0,0l0,0l0,0l0,0l0,0l0,0l0,0v0h0l0,0l0,0l0,0l0,0l0,0l0,0l0,0l0,0l0,0l0,0l0,0v0l0,0
		l0,0l0,0l0,0l0,0l0,0l0,0v0l0,0h0l0,0l0,0l0,0l0,0v0l0,0l0,0l0,0l0,0l0,0l0,0l0,0l0,0l0,0v0h0l0,0l0,0v0l0,0l0,0l0,0l0,0l0,0l0,0
		l0,0v0l0,0l0,0l0,0l0,0l0,0l0,0h0l0,0v0l0,0l0,0l0,0l0,0l0,0l0,0l0,0v0l0,0l0,0l0,0c0,0,0,0,0,0l0,0c0,0,0,0,0,0l0,0
		c0,0,0-0.1,0-0.1l0,0c0,0,0,0,0,0c0,0,0-0.1,0-0.1v0l0,0l0,0v0l0,0v0l0,0l0,0l0,0c0,0,0,0,0-0.1v0v0c0,0,0,0,0-0.1v-0.1
		c0,0,0,0,0-0.1v0l0,0v0c0,0,0,0,0-0.1c0,0,0,0,0,0c0,0,0-0.1,0-0.1c0,0,0-0.1,0-0.1c0,0,0,0,0,0l0,0h0l0,0l0,0v0l0,0l0,0l0,0
		c0-0.1,0-0.1,0-0.2l0,0v0l0,0l0,0l0,0l0,0h0l0,0v0l0,0l0,0l0,0l0,0l0,0l0,0l0,0v0l0,0l0,0l0,0l0,0l0,0l0,0h0l0,0l0,0v0l0,0l0,0l0,0
		l0,0l0,0l0,0l0,0v0l0,0l0,0l0,0l0,0l0,0c0,0,0,0,0,0h0l0,0l0,0l0,0l0,0l0,0l0,0v0l0,0l0,0l0,0l0,0l0,0l0,0l0,0l0,0l0,0l0,0
		c0,0,0,0,0,0l0,0l0,0l0,0l0,0l0,0l0,0c0,0,0,0,0,0l0,0l0,0l0,0l0,0c0,0,0,0,0,0v0l0,0l0,0l0,0l0,0l0,0l0,0v0l0,0l0,0l0,0l0,0l0,0
		l0,0h0l0,0l0,0v0l0,0l0,0l0,0l0,0l0,0l0,0l0,0l0,0l0,0v0l0,0l0,0h0l0,0l0,0l0,0l0,0l0,0v0l0,0l0,0l0,0l0,0c0,0,0,0,0,0l0,0l0,0l0,0
		l0,0l0,0v0l0,0l0,0l0,0l0,0l0,0l0,0v0c0,0,0,0,0,0l0,0l0,0l0,0l0,0l0,0l0,0l0,0l0,0v0l0,0l0,0h0l0,0l0,0l0,0l0,0l0,0c0,0,0,0,0,0
		l0,0l0,0c0,0,0,0,0,0l0,0l0,0v0l0,0h0v0l0,0c0,0,0,0,0,0c0,0,0,0,0,0l0,0v0l0,0l0,0l0,0c0,0,0,0,0,0h0v0l0,0c0,0,0,0,0,0l0,0v0l0,0
		l0,0h0l0,0v0l0,0l0,0h0l0,0l0,0l0,0l0,0c0,0,0,0,0,0l0,0c0,0,0,0,0,0l0,0l0,0l0,0l0,0l0,0l0,0l0,0l0,0h0v0l0,0l0,0l0,0l0,0l0,0l0,0
		l0,0h0l0,0l0,0c0,0,0,0,0,0l0,0l0,0l0,0l0,0l0,0h0l0,0l0,0l0,0l0,0l0,0l0,0l0,0l0,0l0,0c0,0,0,0,0,0l0,0l0,0l0,0l0,0l0,0l0,0l0,0h0
		l0,0l0,0l0,0l0,0l0,0l0,0c0,0,0,0,0,0l0,0h0l0,0l0,0l0,0l0,0l0,0h0l0,0l0,0l0,0c0,0,0,0,0,0l0,0l0,0l0,0h0l0,0l0,0l0,0l0,0l0,0l0,0
		l0,0h0l0,0v0l0,0l0,0l0,0l0,0l0,0h0l0,0l0,0l0,0l0,0l0,0l0,0l0,0h0l0,0l0,0l0,0v0l0,0l0,0h0l0,0l0,0l0,0l0,0l0,0c0,0,0,0,0,0l0,0
		l0,0v0l0,0l0,0l0,0l0,0l0,0l0,0h0l0,0l0,0l0,0l0,0l0,0h0l0,0l0,0c0,0-0.1,0-0.2-0.1l0,0l0,0l0,0l0,0l0,0h0l0,0l0,0c0,0-0.1,0-0.1,0
		h0l0,0h0l0,0l0,0l0,0c0,0-0.1,0-0.1,0c0,0,0,0,0,0l0,0l0,0h0l0,0h0l0,0h0l0,0l0,0h0c0,0,0,0-0.1,0l0,0v-0.4l0,0c0,0,0,0,0.1,0h0.1
		c0,0,0.1,0,0.1,0h0h0h0l0,0l0,0l0,0h0l0,0c0,0,0,0,0,0l0,0c0,0,0,0,0.1,0l0,0h0l0,0l0,0h0h0l0,0v0l0,0l0,0l0,0l0,0h0l0,0l0,0l0,0
		l0,0c0,0,0,0,0,0l0,0l0,0l0,0h0l0,0l0,0h0v0l0,0l0,0l0,0l0,0l0,0h0l0,0l0,0l0,0l0,0l0,0l0,0l0,0c0,0,0,0,0,0l0,0l0,0l0,0v0l0,0l0,0
		l0,0l0,0h0l0,0l0,0l0,0l0,0h0l0,0l0,0l0,0l0,0l0,0v0h0l0,0l0,0l0,0l0,0h0l0,0l0,0l0,0l0,0l0,0l0,0l0,0l0,0h0l0,0l0,0v0l0,0l0,0l0,0
		h0l0,0l0,0l0,0l0,0l0,0l0,0h0l0,0v0l0,0l0,0l0,0l0,0l0,0l0,0l0,0h0l0,0l0,0l0,0l0,0l0,0l0,0l0,0l0,0l0,0h0l0,0l0,0l0,0l0,0l0,0v0
		l0,0l0,0h0l0,0l0,0l0,0l0,0l0,0l0,0l0,0c0,0,0,0,0,0l0,0v0l0,0c0,0,0,0,0,0l0,0l0,0l0,0l0,0l0,0l0,0l0,0l0,0v0l0,0h0l0,0l0,0l0,0
		l0,0l0,0l0,0l0,0l0,0h0l0,0l0,0l0,0l0,0l0,0v0l0,0l0,0c0,0,0,0,0,0l0,0l0,0l0,0l0,0l0,0l0,0l0,0l0,0c0,0,0,0,0,0l0,0l0,0l0,0l0,0
		l0,0l0,0l0,0l0,0l0,0h0l0,0l0,0l0,0c0,0,0,0,0,0l0,0l0,0l0,0c0,0,0,0,0,0l0,0l0,0l0,0l0,0l0,0c0,0,0,0,0,0c0,0,0,0,0,0l0,0l0,0l0,0
		l0,0l0,0c0,0,0,0,0,0l0,0c0,0,0,0,0,0l0,0l0,0l0,0c0,0,0,0,0,0l0,0c0,0,0,0,0,0l0,0l0,0l0,0c0,0,0,0,0,0l0,0l0,0h0c0,0,0,0,0,0l0,0
		c0,0,0,0,0,0l0,0h0c0,0,0,0,0,0l0,0c0,0,0,0,0,0l0,0l0,0c0,0,0,0,0,0l0,0h0v0l0,0l0,0c0,0,0,0,0,0l0,0v0l0,0l0,0l0,0l0,0l0,0
		c0,0,0,0,0,0l0,0l0,0l0,0l0,0l0,0l0,0v0l0,0l0,0l0,0c0,0,0,0,0,0l0,0l0,0c0,0,0,0,0,0l0,0l0,0h0l0,0l0,0l0,0c0,0,0,0,0,0l0,0l0,0
		l0,0l0,0l0,0h0l0,0l0,0v0l0,0l0,0l0,0l0,0l0,0l0,0l0,0v0l0,0l0,0l0,0h0l0,0l0,0l0,0l0,0l0,0l0,0v0l0,0l0,0l0,0l0,0l0,0l0,0l0,0h0
		c0,0,0,0,0,0l0,0l0,0l0,0l0,0l0,0l0,0l0,0l0,0c0,0,0,0,0,0l0,0l0,0l0,0l0,0h0l0,0c0,0,0,0,0,0l0,0l0,0l0,0l0,0l0,0v0c0,0,0,0,0,0
		l0,0l0,0l0,0l0,0l0,0l0,0v0l0,0l0,0l0,0l0,0l0,0l0,0l0,0l0,0v0l0,0h0l0,0l0,0l0,0l0,0l0,0l0,0c0,0,0,0,0,0l0,0l0,0l0,0l0,0l0,0l0,0
		l0,0l0,0v0h0l0,0l0,0l0,0l0,0l0,0l0,0l0,0v0l0,0l0,0l0,0l0,0l0,0l0,0l0,0l0,0v0l0,0h0l0,0l0,0l0,0l0,0v0l0,0l0,0l0,0l0,0l0,0l0,0
		l0,0v0l0,0l0,0l0,0h0l0,0l0,0l0,0v0l0,0l0,0l0,0l0,0v0l0,0l0,0l0,0l0,0l0,0l0,0l0,0v0l0,0l0,0c0,0,0,0,0,0l0,0l0,0v0l0,0l0,0l0,0
		l0,0l0,0l0,0l0,0v0l0,0l0,0c0,0,0,0,0,0l0,0l0,0h0l0,0l0,0l0,0v0l0,0l0,0c0,0,0,0.1,0,0.1c0,0,0,0,0,0c0,0,0,0.1,0,0.1v0l0,0l0,0
		l0,0v0l0,0v0c0,0,0,0,0,0.1v0l0,0v0.1l0,0v0.1c0,0,0,0,0,0v0v0.1v0c0,0,0,0,0,0c0,0.1,0,0.1,0,0.1v0l0,0v0l0,0l0,0
		c0,0.1,0,0.2,0,0.2l0,0l0,0l0,0l0,0l0,0v0h0l0,0c0,0,0,0.1,0,0.1c0,0,0,0,0,0.1l0,0l0,0l0,0h0l0,0v0l0,0l0,0c0,0,0,0.1,0,0.1l0,0
		c0,0,0,0,0,0l0,0l0,0l0,0l0,0l0,0c0,0,0,0,0,0l0,0l0,0l0,0l0,0l0,0l0,0v0l0,0l0,0h0l0,0l0,0l0,0l0,0l0,0v0l0,0l0,0l0,0l0,0l0,0l0,0
		l0,0l0,0v0l0,0l0,0l0,0h0l0,0v0l0,0l0,0l0,0l0,0l0,0l0,0v0l0,0l0,0l0,0l0,0l0,0l0,0l0,0h0v0l0,0l0,0l0,0l0,0l0,0l0,0v0l0,0l0,0l0,0
		l0,0c0,0,0,0,0,0l0,0l0,0l0,0l0,0l0,0l0,0l0,0v0l0,0l0,0l0,0l0,0l0,0l0,0l0,0l0,0h0c0,0,0,0,0,0l0,0l0,0l0,0l0,0v0l0,0l0,0l0,0h0
		l0,0l0,0l0,0c0,0,0,0,0,0l0,0l0,0l0,0l0,0l0,0l0,0v0c0,0,0,0,0,0l0,0l0,0l0,0l0,0l0,0l0,0l0,0v0l0,0l0,0l0,0l0,0l0,0h0l0,0l0,0v0
		l0,0l0,0l0,0l0,0l0,0l0,0l0,0l0,0l0,0l0,0v0h0l0,0l0,0l0,0l0,0l0,0l0,0l0,0v0l0,0l0,0h0l0,0l0,0l0,0l0,0v0l0,0l0,0h0l0,0l0,0v0l0,0
		l0,0l0,0l0,0l0,0c0,0,0,0,0,0l0,0c0,0,0,0,0,0l0,0l0,0l0,0l0,0l0,0v0h0l0,0l0,0l0,0c0,0,0,0,0,0l0,0l0,0v0c0,0,0,0,0,0
		c0,0,0,0,0,0.1c0,0,0,0,0,0c0,0,0,0,0,0l0,0c0,0,0,0,0,0c0,0,0,0,0,0l0,0h0l0,0l0,0l0,0c0,0,0,0,0,0l0,0l0,0l0,0l0,0l0,0l0,0l0,0
		l0,0l0,0c0,0,0,0,0,0l0,0l0,0l0,0l0,0l0,0l0,0c0,0,0,0,0,0l0,0l0,0c0,0,0,0,0,0l0,0l0,0l0,0h0l0,0l0,0l0,0v0l0,0l0,0l0,0h0l0,0l0,0
		l0,0l0,0l0,0l0,0l0,0l0,0l0,0v0h0l0,0l0,0l0,0l0,0l0,0l0,0l0,0l0,0h0l0,0l0,0v0l0,0l0,0l0,0l0,0l0,0h0l0,0l0,0l0,0l0,0l0,0l0,0l0,0
		v0h0l0,0l0,0l0,0l0,0l0,0l0,0l0,0h0l0,0l0,0l0,0c0,0,0,0,0,0l0,0c0,0,0,0,0,0l0,0l0,0l0,0l0,0l0,0h0l0,0l0,0c0,0,0,0,0,0l0,0l0,0
		c0,0,0,0,0,0l0,0l0,0l0,0l0,0l0,0l0,0l0,0l0,0l0,0h0l0,0l0,0l0,0v0l0,0l0,0l0,0h0l0,0l0,0l0,0l0,0l0,0h0l0,0l0,0l0,0l0,0v0l0,0l0,0
		l0,0l0,0l0,0h0l0,0l0,0l0,0l0,0l0,0l0,0l0,0l0,0l0,0h0l0,0v0l0,0h0l0,0l0,0l0,0l0,0l0,0l0,0l0,0l0,0h0l0,0l0,0l0,0l0,0l0,0l0,0l0,0
		l0,0l0,0h0c0,0,0,0,0,0l0,0l0,0l0,0h0l0,0l0,0l0,0l0,0l0,0l0,0l0,0l0,0l0,0l0,0h0l0,0l0,0l0,0l0,0c0,0-0.1,0-0.1,0h0l0,0v0l0,0l0,0
		h0l0,0c0,0,0,0,0,0l0,0l0,0l0,0l0,0l0,0h0c0,0,0,0-0.1,0h0c0,0,0,0-0.1,0c0,0,0,0,0,0l0,0h0c0,0,0,0-0.1,0l0,0l0,0h0l0,0H100.3
		L100.3,16.2L100.3,16.2z M100.3,13.3h-0.8v-1h0.8v-0.3H99v3.2h0.4v-1.4h0.4c0.1,0,0.2,0,0.3,0h0l0,0l0,0l0,0l0,0l0,0c0,0,0,0,0,0
		l0,0l0,0l0,0l0,0l0,0l0,0v0c0,0,0,0,0,0V13.3L100.3,13.3z M100.3,10.9v0.4c0,0,0,0-0.1,0l0,0h-0.1h0l0,0h0l0,0l0,0l0,0h0l0,0h0l0,0
		h0c0,0-0.1,0-0.1,0c0,0-0.1,0-0.1,0h0l0,0h0c0,0-0.1,0-0.2,0l0,0h0v0l0,0l0,0l0,0l0,0l0,0h0l0,0l0,0l0,0l0,0l0,0l0,0l0,0l0,0l0,0h0
		l0,0l0,0l0,0l0,0l0,0l0,0l0,0l0,0v0h0l0,0l0,0l0,0l0,0l0,0l0,0l0,0l0,0h0l0,0l0,0v0l0,0l0,0h0l0,0l0,0l0,0l0,0l0,0l0,0l0,0l0,0l0,0
		l0,0h0l0,0l0,0l0,0l0,0l0,0h0v0l0,0l0,0l0,0l0,0l0,0l0,0l0,0l0,0l0,0h0l0,0l0,0l0,0l0,0l0,0l0,0v0h0l0,0l0,0l0,0l0,0l0,0l0,0h0l0,0
		c0,0,0,0,0,0l0,0l0,0l0,0l0,0l0,0h0l0,0l0,0l0,0l0,0l0,0l0,0l0,0l0,0l0,0c0,0,0,0,0,0v0l0,0l0,0l0,0l0,0l0,0l0,0l0,0l0,0l0,0l0,0h0
		l0,0l0,0l0,0l0,0l0,0l0,0v0l0,0l0,0h0l0,0l0,0l0,0l0,0l0,0l0,0l0,0l0,0l0,0v0h0l0,0l0,0l0,0l0,0l0,0l0,0h0l0,0c0,0,0,0,0,0l0,0l0,0
		h0l0,0c0,0,0,0,0,0l0,0l0,0h0l0,0l0,0l0,0c0,0,0,0,0,0l0,0l0,0l0,0c0,0,0,0,0,0l0,0l0,0c0,0,0,0,0,0c0,0,0,0,0,0.1c0,0,0,0,0,0
		s0,0,0,0h0l0,0l0,0c0,0,0,0,0,0l0,0c0,0,0,0,0,0l0,0l0,0v0l0,0l0,0l0,0l0,0c0,0,0,0,0,0v0l0,0l0,0l0,0l0,0l0,0l0,0l0,0c0,0,0,0,0,0
		l0,0c0,0,0,0,0,0l0,0l0,0l0,0l0,0l0,0l0,0l0,0c0,0,0,0,0,0l0,0h0l0,0l0,0l0,0l0,0l0,0l0,0l0,0l0,0v0l0,0l0,0l0,0c0,0,0,0,0,0l0,0
		l0,0l0,0v0l0,0l0,0l0,0l0,0l0,0l0,0l0,0l0,0l0,0v0h0l0,0l0,0l0,0l0,0l0,0v0l0,0l0,0l0,0l0,0h0c0,0,0,0,0,0l0,0l0,0l0,0l0,0l0,0v0
		l0,0l0,0l0,0h0l0,0l0,0l0,0v0l0,0l0,0l0,0l0,0l0,0l0,0l0,0l0,0l0,0l0,0v0l0,0c0,0,0,0,0,0l0,0l0,0l0,0l0,0l0,0l0,0v0l0,0v0l0,0l0,0
		l0,0l0,0h0l0,0l0,0v0l0,0l0,0l0,0l0,0l0,0l0,0v0l0,0l0,0l0,0l0,0l0,0l0,0h0l0,0v0l0,0l0,0l0,0l0,0l0,0l0,0v0l0,0l0,0
		c0,0,0,0.1,0,0.2l0,0l0,0l0,0l0,0l0,0c0,0,0,0.1,0,0.1c0,0.1,0,0.1,0,0.2c0,0,0,0,0,0c0,0,0,0,0,0.1l0,0l0,0l0,0v0l0,0
		c0,0,0,0,0,0.1v0v0v0v0.1v0c0,0,0,0,0,0v0.1h0v0l0,0l0,0l0,0v0c0,0,0,0.1,0,0.1c0,0,0,0,0,0.1c0,0,0,0.1,0,0.1l0,0l0,0v0l0,0l0,0
		c0,0,0,0,0,0l0,0l0,0v0l0,0l0,0l0,0l0,0l0,0l0,0v0l0,0l0,0l0,0l0,0c0,0,0,0,0,0h0l0,0l0,0l0,0c0,0,0,0,0,0l0,0l0,0l0,0l0,0l0,0v0
		l0,0l0,0l0,0l0,0l0,0l0,0l0,0v0h0l0,0l0,0l0,0l0,0l0,0l0,0l0,0v0l0,0l0,0l0,0l0,0l0,0l0,0v0l0,0l0,0h0l0,0l0,0l0,0l0,0v0l0,0l0,0
		l0,0l0,0l0,0l0,0c0,0,0,0,0,0l0,0l0,0l0,0l0,0l0,0h0l0,0l0,0l0,0v0l0,0l0,0l0,0l0,0l0,0l0,0l0,0l0,0l0,0l0,0v0l0,0l0,0h0l0,0l0,0v0
		l0,0l0,0l0,0l0,0l0,0l0,0l0,0l0,0l0,0v0h0l0,0l0,0l0,0l0,0v0l0,0l0,0l0,0l0,0l0,0l0,0c0,0,0,0,0,0l0,0v0l0,0l0,0l0,0l0,0l0,0l0,0
		l0,0l0,0v0l0,0l0,0l0,0h0l0,0l0,0l0,0l0,0l0,0l0,0v0l0,0l0,0l0,0l0,0h0l0,0v0l0,0l0,0l0,0l0,0l0,0l0,0l0,0l0,0v0h0l0,0l0,0l0,0l0,0
		l0,0l0,0v0l0,0l0,0c0,0,0,0,0,0l0,0l0,0c0,0,0,0,0,0l0,0l0,0l0,0l0,0l0,0c0,0,0,0,0,0l0,0l0,0l0,0h0c0,0,0,0.1,0.1,0.1
		c0,0,0.1,0,0.1,0.1c0,0,0,0,0,0l0,0l0,0l0,0h0l0,0l0,0c0,0,0,0,0,0l0,0l0,0l0,0l0,0c0,0,0,0,0,0l0,0l0,0l0,0l0,0l0,0c0,0,0,0,0,0h0
		l0,0l0,0l0,0l0,0l0,0l0,0l0,0h0v0l0,0l0,0l0,0l0,0l0,0l0,0l0,0c0,0,0,0,0,0l0,0l0,0v0l0,0l0,0l0,0l0,0l0,0c0,0,0,0,0,0l0,0l0,0l0,0
		l0,0l0,0l0,0l0,0c0,0,0,0,0,0h0l0,0l0,0l0,0l0,0l0,0l0,0l0,0l0,0l0,0h0l0,0l0,0l0,0l0,0c0,0,0,0,0,0l0,0c0,0,0,0,0,0l0,0l0,0l0,0
		l0,0l0,0l0,0c0,0,0,0,0,0l0,0l0,0l0,0l0,0l0,0l0,0h0l0,0l0,0l0,0l0,0l0,0l0,0l0,0l0,0h0v0l0,0l0,0l0,0l0,0l0,0l0,0l0,0l0,0l0,0h0
		l0,0l0,0l0,0l0,0l0,0l0,0l0,0h0v0l0,0l0,0l0,0l0,0l0,0l0,0l0,0l0,0l0,0h0l0,0l0,0l0,0l0,0l0,0l0,0h0l0,0l0,0l0,0v0l0,0l0,0l0,0l0,0
		l0,0h0l0,0l0,0l0,0l0,0l0,0l0,0h0l0,0l0,0l0,0l0,0c0,0,0,0,0,0l0,0l0,0c0,0,0,0,0,0l0,0l0,0l0,0l0,0h0c0,0,0.1,0,0.1,0l0,0v0h0l0,0
		l0,0l0,0l0,0l0,0h0l0,0l0,0l0,0h0c0,0,0,0,0.1,0l0,0v0h0h0l0,0l0,0l0,0c0,0,0,0,0.1,0h0l0,0l0,0l0,0h0h0c0,0,0.1,0,0.1,0h0v0.4h0
		c0,0-0.1,0-0.1,0h0h0c0,0,0,0,0,0l0,0l0,0v0h0l0,0h0c0,0,0,0-0.1,0h0h0l0,0l0,0l0,0l0,0l0,0c0,0-0.1,0-0.1,0c0,0,0,0,0,0
		c-0.1,0-0.2,0-0.2-0.1l0,0l0,0l0,0l0,0h0l0,0l0,0l0,0l0,0l0,0l0,0l0,0l0,0l0,0l0,0l0,0h0l0,0l0,0l0,0l0,0c0,0,0,0,0,0l0,0h0l0,0
		l0,0l0,0l0,0l0,0l0,0l0,0l0,0h0l0,0l0,0l0,0l0,0l0,0l0,0l0,0h0l0,0l0,0l0,0c0,0,0,0,0,0l0,0l0,0l0,0h0l0,0l0,0l0,0l0,0l0,0l0,0l0,0
		h0l0,0l0,0l0,0l0,0v0l0,0l0,0c0,0,0,0,0,0l0,0l0,0l0,0l0,0l0,0l0,0l0,0c0,0,0,0,0,0l0,0l0,0l0,0v0l0,0h0l0,0l0,0l0,0l0,0l0,0l0,0
		l0,0l0,0l0,0h0l0,0l0,0l0,0l0,0v0l0,0h0l0,0l0,0l0,0l0,0l0,0l0,0l0,0l0,0c0,0,0,0,0,0l0,0v0l0,0l0,0l0,0h0l0,0l0,0l0,0l0,0l0,0l0,0
		l0,0h0c0,0,0,0,0,0l0,0l0,0l0,0l0,0h0l0,0l0,0l0,0l0,0l0,0l0,0v0l0,0c0,0,0,0,0,0l0,0l0,0l0,0l0,0l0,0l0,0l0,0l0,0l0,0c0,0,0,0,0,0
		l0,0l0,0l0,0l0,0l0,0l0,0l0,0l0,0c0,0,0,0,0,0l0,0l0,0l0,0v0l0,0l0,0l0,0l0,0h0l0,0l0,0l0,0l0,0l0,0c0,0,0,0,0,0l0,0h0l0,0l0,0l0,0
		l0,0l0,0l0,0h0c0,0,0,0,0,0l0,0l0,0l0,0l0,0c0,0,0,0,0,0l0,0l0,0c0,0,0,0,0,0l0,0c0,0,0,0,0,0l0,0l0,0l0,0h0v0l0,0c0,0,0,0,0,0h0
		l0,0c0,0,0,0,0,0l0,0l0,0c0,0,0,0,0,0c0,0,0,0,0,0l0,0h0l0,0l0,0v0l0,0l0,0c0,0,0,0,0,0v0l0,0l0,0l0,0l0,0l0,0l0,0c0,0,0,0,0,0
		c0,0,0,0,0,0l0,0l0,0l0,0l0,0l0,0l0,0l0,0l0,0l0,0l0,0l0,0l0,0l0,0v0l0,0l0,0h0l0,0l0,0l0,0l0,0v0l0,0l0,0l0,0l0,0l0,0l0,0
		c0,0,0,0,0,0v0l0,0l0,0l0,0l0,0l0,0l0,0l0,0l0,0l0,0v0l0,0c0,0,0,0,0,0l0,0l0,0l0,0l0,0l0,0v0l0,0l0,0l0,0l0,0l0,0l0,0h0l0,0l0,0
		l0,0v0l0,0l0,0l0,0l0,0l0,0l0,0l0,0c0,0,0,0,0,0h0l0,0l0,0l0,0l0,0v0l0,0l0,0l0,0l0,0l0,0h0v0l0,0l0,0l0,0l0,0v0l0,0l0,0l0,0l0,0
		l0,0l0,0l0,0l0,0l0,0l0,0l0,0l0,0l0,0l0,0l0,0l0,0v0l0,0l0,0l0,0l0,0l0,0l0,0c0,0,0,0,0,0v0l0,0l0,0l0,0l0,0l0,0l0,0l0,0v0l0,0l0,0
		l0,0h0l0,0l0,0v0l0,0l0,0l0,0l0,0l0,0c0,0,0,0,0,0l0,0l0,0l0,0l0,0l0,0l0,0l0,0l0,0l0,0l0,0l0,0v0l0,0l0,0l0,0h0l0,0l0,0l0,0l0,0
		c0,0,0,0,0,0l0,0l0,0l0,0c0,0,0,0,0,0l0,0l0,0l0,0l0,0l0,0h0v0l0,0l0,0l0,0l0,0l0,0c0,0,0,0,0,0l0,0l0,0l0,0l0,0v0l0,0l0,0l0,0l0,0
		l0,0l0,0v0h0l0,0l0,0l0,0c0,0,0,0,0,0l0,0c0,0,0,0,0,0l0,0l0,0v0l0,0l0,0h0l0,0c0,0,0-0.1,0-0.2c0,0,0,0,0,0c0,0,0-0.1,0-0.1v0l0,0
		v0v0l0,0v0c0,0,0,0,0-0.1v0v-0.1v-0.1l0,0v-0.1l0,0v-0.1c0-0.1,0-0.1,0-0.2v0v0l0,0c0,0,0-0.1,0-0.1c0,0,0,0,0-0.1l0,0l0,0l0,0l0,0
		v0l0,0l0,0c0,0,0,0,0,0l0,0l0,0c0,0,0-0.1,0-0.2l0,0l0,0v0l0,0l0,0l0,0h0l0,0c0,0,0,0,0,0l0,0l0,0l0,0v0l0,0l0,0l0,0l0,0l0,0l0,0
		l0,0l0,0v0l0,0h0l0,0l0,0l0,0v0l0,0l0,0l0,0l0,0l0,0l0,0v0l0,0l0,0c0,0,0,0,0,0l0,0l0,0l0,0l0,0l0,0l0,0l0,0v0l0,0l0,0l0,0l0,0l0,0
		l0,0l0,0l0,0l0,0l0,0c0,0,0,0,0,0c0,0,0,0,0,0l0,0v0l0,0l0,0l0,0l0,0l0,0l0,0l0,0l0,0c0,0,0,0,0,0h0l0,0l0,0v0l0,0l0,0l0,0l0,0h0
		l0,0v0l0,0l0,0l0,0l0,0l0,0l0,0l0,0l0,0v0l0,0l0,0h0l0,0l0,0l0,0l0,0l0,0l0,0v0l0,0l0,0l0,0l0,0l0,0l0,0l0,0h0l0,0l0,0v0l0,0l0,0
		l0,0l0,0l0,0l0,0l0,0v0l0,0l0,0h0l0,0l0,0l0,0l0,0l0,0l0,0c0,0,0,0,0,0l0,0l0,0l0,0l0,0l0,0h0c0,0,0,0,0,0l0,0l0,0l0,0l0,0l0,0l0,0
		c0,0,0,0,0,0l0,0l0,0l0,0l0,0l0,0c0,0,0,0,0,0l0,0h0l0,0l0,0l0,0c0,0,0,0,0,0l0,0h0l0,0c0,0,0,0,0,0l0,0c0,0,0,0,0,0
		c0,0,0-0.1,0.1-0.1c0,0,0,0,0.1-0.1h0l0,0c0,0,0,0,0,0l0,0l0,0c0,0,0,0,0,0l0,0l0,0l0,0c0,0,0,0,0,0c0,0,0,0,0,0l0,0l0,0l0,0l0,0
		l0,0c0,0,0,0,0,0l0,0l0,0l0,0l0,0l0,0l0,0h0v0l0,0l0,0l0,0l0,0l0,0l0,0l0,0h0l0,0l0,0l0,0v0l0,0l0,0l0,0h0l0,0l0,0l0,0l0,0l0,0l0,0
		l0,0c0,0,0,0,0,0h0l0,0l0,0l0,0l0,0l0,0l0,0l0,0l0,0l0,0h0l0,0v0l0,0l0,0l0,0l0,0h0l0,0l0,0l0,0l0,0l0,0l0,0c0,0,0,0,0,0v0l0,0l0,0
		l0,0l0,0l0,0l0,0l0,0l0,0c0,0,0,0,0,0l0,0l0,0l0,0c0,0,0,0,0,0l0,0h0l0,0l0,0l0,0l0,0l0,0h0l0,0v0l0,0l0,0l0,0l0,0l0,0l0,0
		c0,0,0,0,0,0l0,0l0,0l0,0l0,0c0,0,0,0,0,0l0,0l0,0l0,0l0,0l0,0c0,0,0,0,0,0h0l0,0l0,0l0,0l0,0l0,0l0,0l0,0l0,0l0,0l0,0l0,0l0,0h0
		c0,0,0,0,0,0l0,0l0,0l0,0h0l0,0l0,0l0,0l0,0l0,0l0,0l0,0h0l0,0l0,0l0,0l0,0l0,0l0,0c0,0,0,0,0,0l0,0l0,0l0,0l0,0h0
		c0,0,0.1,0,0.2-0.1l0,0l0,0l0,0l0,0l0,0l0,0l0,0h0l0,0l0,0c0,0,0,0,0,0v0h0c0,0,0,0,0.1,0l0,0c0,0,0.1,0,0.1,0h0c0,0,0,0,0,0h0
		c0,0,0,0,0.1,0h0v0H100.3z"/>
	<path class="st32" d="M14,45.6v-1.4h3.6v3.3c-0.3,0.3-0.8,0.7-1.5,0.9c-0.7,0.3-1.3,0.4-2,0.4c-0.9,0-1.7-0.2-2.3-0.6
		c-0.7-0.3-1.1-0.9-1.5-1.5c-0.3-0.7-0.5-1.4-0.5-2.2c0-0.9,0.2-1.7,0.5-2.3c0.3-0.7,0.9-1.2,1.6-1.6c0.5-0.3,1.2-0.4,2-0.4
		c1,0,1.8,0.2,2.4,0.7c0.6,0.4,1,1,1.1,1.8L15.8,43c-0.1-0.4-0.3-0.7-0.7-1c-0.3-0.2-0.7-0.3-1.2-0.3c-0.7,0-1.3,0.2-1.7,0.7
		c-0.5,0.5-0.7,1.2-0.7,2.1c0,1,0.2,1.7,0.7,2.2c0.4,0.5,1,0.7,1.7,0.7c0.3,0,0.7-0.1,1-0.2c0.3-0.2,0.7-0.3,0.9-0.5v-1.1H14z"/>
	<path class="st32" d="M24.3,43.9c0.5,0,0.9,0,1-0.1c0.2-0.1,0.3-0.2,0.5-0.3c0.1-0.2,0.2-0.4,0.2-0.6c0-0.3-0.1-0.5-0.2-0.7
		c-0.2-0.2-0.3-0.3-0.6-0.3c-0.1,0-0.4,0-0.8,0v-1.4h0.2c0.9,0,1.5,0.1,1.9,0.2c0.4,0.2,0.7,0.4,1,0.8c0.2,0.4,0.3,0.8,0.3,1.3
		c0,0.6-0.2,1.2-0.5,1.5c-0.4,0.4-0.9,0.7-1.7,0.8c0.3,0.2,0.7,0.5,0.9,0.7c0.2,0.3,0.6,0.7,1,1.4l1,1.6h-2l-1.2-1.8
		c-0.4-0.7-0.7-1-0.9-1.2V43.9z M22.6,43.9h1.2c0.2,0,0.3,0,0.5,0v1.8l0,0c-0.2-0.2-0.3-0.3-0.5-0.3c-0.2-0.1-0.5-0.1-0.8-0.1h-0.3
		v3.5h-1.7v-8.3h3.4v1.4c-0.1,0-0.3,0-0.4,0h-1.3V43.9z"/>
	<polygon class="st32" points="31,48.7 31,40.4 37.2,40.4 37.2,41.8 32.7,41.8 32.7,43.6 36.9,43.6 36.9,45 32.7,45 32.7,47.3 
		37.3,47.3 37.3,48.7 	"/>
	<polygon class="st32" points="40.5,48.7 40.5,40.4 46.7,40.4 46.7,41.8 42.2,41.8 42.2,43.6 46.4,43.6 46.4,45 42.2,45 42.2,47.3 
		46.8,47.3 46.8,48.7 	"/>
	<polygon class="st32" points="50,48.7 50,40.4 51.7,40.4 55,45.9 55,40.4 56.6,40.4 56.6,48.7 54.9,48.7 51.6,43.3 51.6,48.7 	"/>
	<polygon class="st32" points="60.2,48.7 60.2,40.4 61.8,40.4 61.8,47.3 66,47.3 66,48.7 	"/>
	<path class="st32" d="M73.4,45.4l-1.1-3v-2h0.9l3.3,8.3h-1.8l-0.7-1.9h-1.6v-1.4H73.4z M72.2,42.4L72.2,42.4l-1.2,3h1.2v1.4h-1.7
		l-0.7,1.9h-1.8l3.2-8.3h0.9V42.4z"/>
	<polygon class="st32" points="79.1,48.7 79.1,40.4 80.7,40.4 84.2,45.9 84.2,40.4 85.7,40.4 85.7,48.7 84,48.7 80.7,43.3 
		80.7,48.7 	"/>
	<path class="st32" d="M92.7,47.3c0.2,0,0.4,0,0.5-0.1c0.3,0,0.5-0.2,0.7-0.3c0.2-0.2,0.3-0.4,0.5-0.8c0.1-0.3,0.2-0.9,0.2-1.5
		c0-0.7,0-1.2-0.2-1.5c-0.1-0.3-0.3-0.6-0.5-0.8c-0.2-0.2-0.5-0.3-0.8-0.4c-0.1,0-0.2,0-0.3,0v-1.4c0.5,0,0.9,0,1.2,0.1
		c0.5,0.2,0.9,0.4,1.3,0.8c0.3,0.4,0.6,0.8,0.8,1.3c0.2,0.5,0.3,1.2,0.3,2c0,0.7-0.1,1.3-0.2,1.8c-0.2,0.6-0.5,1.1-0.9,1.5
		c-0.3,0.3-0.7,0.5-1.2,0.7c-0.3,0.1-0.7,0.2-1.2,0.2V47.3z M90.9,41.8v5.5h1.2c0.2,0,0.4,0,0.5,0v1.4c-0.1,0-0.2,0-0.3,0h-3.2v-8.3
		h3.1c0.1,0,0.3,0,0.4,0v1.4c-0.3,0-0.6,0-1,0H90.9z"/>
	<path class="st32" d="M108.2,45.6v-1.4h3.6v3.3c-0.3,0.3-0.8,0.7-1.5,0.9c-0.7,0.3-1.3,0.4-2,0.4c-0.8,0-1.6-0.2-2.3-0.6
		c-0.7-0.3-1.1-0.9-1.5-1.5c-0.3-0.7-0.5-1.4-0.5-2.2c0-0.9,0.2-1.7,0.5-2.3c0.3-0.7,0.9-1.2,1.6-1.6c0.5-0.3,1.2-0.4,2-0.4
		c1,0,1.8,0.2,2.4,0.7c0.6,0.4,1,1,1.1,1.8L110,43c-0.1-0.4-0.3-0.7-0.7-1c-0.3-0.2-0.7-0.3-1.2-0.3c-0.7,0-1.3,0.2-1.8,0.7
		c-0.4,0.5-0.6,1.2-0.6,2.1c0,1,0.2,1.7,0.7,2.2c0.4,0.5,1,0.7,1.7,0.7c0.3,0,0.7-0.1,1-0.2c0.3-0.2,0.7-0.3,0.9-0.5v-1.1H108.2z"/>
	<path class="st32" d="M118.5,43.9c0.5,0,0.9,0,1-0.1c0.2-0.1,0.4-0.2,0.5-0.3c0.1-0.2,0.2-0.4,0.2-0.6c0-0.3-0.1-0.5-0.2-0.7
		c-0.2-0.2-0.3-0.3-0.6-0.3c-0.1,0-0.4,0-0.8,0v-1.4h0.2c0.9,0,1.5,0.1,1.9,0.2c0.4,0.2,0.7,0.4,1,0.8c0.2,0.4,0.3,0.8,0.3,1.3
		c0,0.6-0.2,1.2-0.5,1.5c-0.4,0.4-0.9,0.7-1.7,0.8c0.3,0.2,0.7,0.5,0.9,0.7c0.2,0.3,0.6,0.7,1,1.4l1,1.6h-2l-1.2-1.8
		c-0.4-0.7-0.7-1-0.9-1.2V43.9z M116.8,43.9h1.2c0.2,0,0.3,0,0.5,0v1.8l0,0c-0.2-0.2-0.3-0.3-0.5-0.3c-0.2-0.1-0.4-0.1-0.8-0.1h-0.3
		v3.5h-1.7v-8.3h3.4v1.4c-0.1,0-0.3,0-0.4,0h-1.3V43.9z"/>
	<path class="st32" d="M128.9,47.4L128.9,47.4c0.7,0,1.2-0.2,1.7-0.7c0.4-0.5,0.6-1.2,0.6-2.1c0-1-0.2-1.7-0.6-2.2
		c-0.4-0.5-1-0.7-1.7-0.7l0,0v-1.4c1.2,0,2.2,0.4,2.9,1.1c0.7,0.8,1.1,1.8,1.1,3.2c0,1.3-0.4,2.4-1.1,3.1c-0.7,0.8-1.7,1.2-2.9,1.2
		l0,0V47.4z M126.6,44.5c0,1,0.2,1.7,0.7,2.1c0.4,0.5,1,0.7,1.7,0.7v1.5c-1.2,0-2.2-0.4-3-1.2c-0.7-0.8-1.1-1.8-1.1-3.1
		c0-0.8,0.1-1.6,0.4-2.2c0.2-0.4,0.4-0.8,0.8-1.1c0.3-0.3,0.7-0.6,1.1-0.8c0.5-0.2,1.1-0.3,1.8-0.3h0v1.4c-0.7,0-1.3,0.2-1.7,0.7
		C126.8,42.9,126.6,43.6,126.6,44.5z"/>
	<path class="st32" d="M136,40.4h1.7v4.5c0,0.7,0,1.2,0,1.4c0.1,0.3,0.2,0.6,0.5,0.8c0.3,0.2,0.7,0.3,1.1,0.3c0.5,0,0.8-0.1,1.1-0.3
		c0.3-0.2,0.4-0.5,0.5-0.7c0-0.3,0.1-0.8,0.1-1.4v-4.6h1.7v4.4c0,1,0,1.7-0.1,2.1c-0.1,0.4-0.3,0.8-0.5,1c-0.3,0.3-0.6,0.5-1,0.7
		c-0.4,0.2-0.9,0.3-1.6,0.3c-0.8,0-1.4-0.1-1.8-0.3c-0.4-0.2-0.7-0.4-1-0.7c-0.2-0.3-0.4-0.6-0.5-0.9c-0.1-0.5-0.2-1.2-0.2-2.1V40.4
		z"/>
	<path class="st32" d="M149.3,44.1c0.3,0,0.6,0,0.8-0.1c0.2-0.1,0.4-0.2,0.5-0.4c0.1-0.2,0.2-0.4,0.2-0.6c0-0.3-0.1-0.6-0.3-0.8
		c-0.2-0.2-0.4-0.3-0.7-0.4c-0.1,0-0.3,0-0.5,0v-1.4c0.8,0,1.3,0.1,1.5,0.2c0.5,0.1,0.9,0.4,1.2,0.8c0.3,0.4,0.5,1,0.5,1.6
		c0,0.5-0.1,0.9-0.3,1.3c-0.2,0.4-0.4,0.7-0.7,0.8c-0.3,0.2-0.6,0.3-0.9,0.4c-0.3,0.1-0.8,0.1-1.3,0.1V44.1z M147.8,41.8v2.3h0.9
		c0.2,0,0.4,0,0.6,0v1.4c-0.1,0-0.3,0-0.4,0h-1.1v3.1h-1.7v-8.3h2.7c0.2,0,0.3,0,0.5,0v1.4c-0.2,0-0.4,0-0.7,0H147.8z"/>
</g>
</svg>
