<?xml version="1.0" encoding="utf-8"?>
<!-- Generator: Adobe Illustrator 22.0.1, SVG Export Plug-In . SVG Version: 6.00 Build 0)  -->
<svg version="1.1" id="图层_1" xmlns="http://www.w3.org/2000/svg" xmlns:xlink="http://www.w3.org/1999/xlink" x="0px" y="0px"
	 viewBox="0 0 87.9 58.9" style="enable-background:new 0 0 87.9 58.9;" xml:space="preserve">
<style type="text/css">
	.st0{fill-rule:evenodd;clip-rule:evenodd;fill:#2E82C5;}
	.st1{fill:#273897;}
	.st2{fill:#FE0000;}
	.st3{fill:#E60012;}
	.st4{fill-rule:evenodd;clip-rule:evenodd;fill:#FDD108;}
	.st5{fill-rule:evenodd;clip-rule:evenodd;fill:#231815;}
	.st6{fill-rule:evenodd;clip-rule:evenodd;fill:#727171;}
	.st7{fill:#231815;}
	.st8{fill:#F7B400;}
	.st9{fill:#FFFFFF;}
	.st10{fill-rule:evenodd;clip-rule:evenodd;fill:#0058A9;}
	.st11{fill:#3DAE2B;}
	.st12{fill-rule:evenodd;clip-rule:evenodd;fill:#0076C0;}
	.st13{fill-rule:evenodd;clip-rule:evenodd;fill:#EF8200;}
	.st14{fill:#07529B;}
	.st15{fill:url(#SVGID_1_);}
	.st16{fill:url(#SVGID_2_);}
	.st17{fill:url(#SVGID_3_);}
	.st18{fill:url(#SVGID_4_);}
	.st19{fill:url(#SVGID_5_);}
	.st20{clip-path:url(#SVGID_6_);}
	.st21{clip-path:url(#SVGID_7_);}
	.st22{fill:#0C73B9;}
	.st23{fill:#005BAB;}
	.st24{fill:#0A5FA6;}
	.st25{opacity:0.5;fill:#E50012;}
	.st26{fill:#FFFEFA;}
	.st27{opacity:0.5;fill:#2CA6E0;}
	.st28{fill:#69C146;}
	.st29{fill:#009844;}
	.st30{fill:#F29600;}
	.st31{fill:#E50012;}
	.st32{fill:#161D29;}
	.st33{fill:#00913A;}
	.st34{fill-rule:evenodd;clip-rule:evenodd;fill:#B42E82;}
</style>
<g id="_x32_49a48_1_">
	<g>
		<path d="M21.1,8.2c2.9,0,5.9,0,8.8,0c1.5,0,2.5,0.7,3.1,2c0.2,0.4,0.3,0.8,0.3,1.3c0,1.2,0,2.4,0,3.6c0,1.1,0.9,2.2,2,2.5
			c0.4,0.1,0.9,0.1,1.3,0.1c4.9,0,9.8,0,14.7,0c0.8,0,1.6,0.2,2.2,0.7c0.8,0.6,1.2,1.4,1.2,2.4c0,1.2,0,2.5,0,3.7
			c0,1.7-1.5,3.2-3.2,3.2c-5,0-10.1,0-15.1,0c-0.7,0-1.3,0-1.9,0.5c-0.8,0.6-1.2,1.3-1.2,2.3c0,1.2,0,2.3,0,3.5
			c0,1.1-0.5,2.1-1.5,2.7c-0.5,0.3-1.1,0.5-1.8,0.5c-5.9,0-11.8,0-17.7,0c-1.9,0-3.3-1.4-3.3-3.3c0-1.1-0.1-2.2,0-3.3
			c0.1-1.9,1.2-3.3,3.3-3.3c5.9,0,11.8,0,17.7,0c1.5,0,3-1.2,2.9-2.9c0-1.1,0-2.2,0-3.3c0.1-1.4-1.1-2.6-2.4-2.8
			c-0.6-0.1-1.2-0.1-1.8-0.1c-5.5,0-11,0-16.5,0c-1.7,0-3.1-1.5-3.1-3.1c0-1.2,0-2.4,0-3.6c0-1.7,1.5-3.1,3.2-3.1
			C15.1,8.2,18.1,8.2,21.1,8.2z"/>
		<path d="M66.4,27.2c2.9,0,5.9,0,8.8,0c1.9,0,3.3,1.4,3.3,3.3c0,1.1,0,2.3,0,3.4c0.1,2-1.7,3.3-3.3,3.3c-5.6,0-11.1,0-16.7,0
			c-0.4,0-0.8,0-1.1,0c-1.7,0-3.1-1.5-3.1-3.2c0-1.2,0-2.4,0-3.6c0-1.7,1.4-3.1,3.2-3.1C60.4,27.2,63.4,27.2,66.4,27.2z"/>
		<path d="M66.4,18c-3.1,0-6.2,0-9.3,0c-1.2,0-2.5-1.1-2.7-2.2c-0.1-0.5-0.1-0.9-0.1-1.4c0-1,0-2.1,0-3.1c0-1.7,1.4-3.1,3-3.1
			c6.1,0,12.1,0,18.2,0c1.6,0,3,1.5,3,3c0,1.3,0,2.6,0,3.8c0,1.3-1.2,3-3,3C72.5,18,69.4,18,66.4,18z"/>
		<path d="M72.5,50.7c-1.5,0-3.1,0-4.6,0c-0.7,0-0.8-0.1-0.8-0.8c0-0.1,0-0.2,0-0.3c0-0.6,0.2-0.8,0.8-0.8c2.8,0,5.7,0,8.5,0
			c0.2,0,0.6,0.1,0.6-0.2c0-0.4-0.4-0.2-0.6-0.2c-2.5,0-5.1,0-7.6,0c-1.3,0-1.9-0.6-1.9-1.9c0-0.4,0-0.7,0.1-1.1
			c0.3-0.9,1-1.2,1.8-1.2c3.1,0,6.1,0,9.2,0c0.6,0,0.7,0.2,0.7,0.8c0,1,0,1.1-1.1,1.1c-2.7,0-5.5,0-8.2,0c-0.2,0-0.6-0.1-0.6,0.2
			c0,0.3,0.4,0.2,0.6,0.2c2.5,0,4.9,0,7.4,0c0.5,0,1.1,0.1,1.5,0.4c0.2,0.2,0.4,0.4,0.5,0.6c0.2,0.7,0.2,1.4,0,2.1
			c-0.3,0.7-1,1-1.7,1C75.6,50.7,74.1,50.7,72.5,50.7z"/>
		<path d="M14.8,44.3c1.1,0,2.3,0,3.4,0c0.5,0,1,0.1,1.4,0.3c0.8,0.3,1.1,1,1.1,1.8c0,1.1,0.1,2.3,0,3.4c-0.1,1-0.1,1-1.1,1
			c-0.1,0-0.2,0-0.3,0c-0.5,0-0.6-0.1-0.6-0.6c0-1.1,0-2.3,0-3.4c0-0.5,0-0.6-0.5-0.6c-2.3,0-4.5,0-6.8,0c-0.2,0-0.4-0.1-0.5,0.2
			c-0.1,0.3-0.1,0.6,0,0.9c0.1,0.2,0.3,0.1,0.5,0.1c1.8,0,3.7,0,5.5,0c0.7,0,0.8,0.1,0.8,0.8c0,0.9,0,1-0.9,1c-1.8,0-3.6,0-5.4,0
			c-0.4,0-0.5,0.1-0.5,0.5c0,1.1,0,1.1-1.1,1.1c-0.9,0-0.9-0.1-0.9-0.9c0-1.1,0-2.1,0-3.2c0-0.8,0.2-1.5,0.9-1.9
			c0.5-0.3,1-0.4,1.6-0.4C12.5,44.3,13.7,44.3,14.8,44.3z"/>
		<path d="M46.1,44.3c1.1,0,2.2,0,3.3,0c0.3,0,0.6,0,1,0.1c1.1,0.2,1.7,1,1.7,2.1c0,1.2,0,2.4,0,3.5c0,0.6-0.1,0.7-0.7,0.7
			c-1.2,0-1.2,0-1.2-1.2c0-1,0-1.9,0-2.9c0-0.4-0.1-0.5-0.5-0.5c-2.3,0-4.6,0-7,0c-0.5,0-0.4,0.3-0.5,0.7c0,0.3,0,0.6,0.5,0.6
			c1.9,0,3.8,0,5.7,0c0.7,0,0.7,0.1,0.7,0.7c0,1,0,1-1,1c-1.8,0-3.5,0-5.3,0c-0.4,0-0.5,0.1-0.5,0.5c0,1.1,0,1.1-1.1,1.1
			c-0.1,0-0.3,0-0.4,0c-0.3,0-0.5-0.2-0.5-0.5c0-1.4,0-2.8,0-4.2c0-0.8,0.7-1.4,1.6-1.6c0.3-0.1,0.7-0.1,1-0.1
			C43.9,44.3,45,44.3,46.1,44.3z"/>
		<path d="M32.4,50.7c-1.4,0-2.8,0-4.2,0c-0.9,0-1.6-0.3-2-1.2c-0.1-0.2-0.2-0.4-0.2-0.6c0-1.3,0-2.6,0-3.9c0-0.5,0.1-0.6,0.6-0.6
			c1.3,0,1.3,0,1.3,1.3c0,1,0,1.9,0,2.9c0,0.3,0.1,0.5,0.4,0.5c1.7-0.1,3.3,0,5,0c0.9,0,1.9,0,2.8,0c0.3,0,0.5-0.1,0.5-0.5
			c0-1.2,0-2.3,0-3.5c0-0.5,0.1-0.6,0.6-0.7c1.2-0.1,1.3,0,1.3,1.2c0,1.1,0,2.2,0,3.3c0.1,1.3-0.9,1.9-2,2
			C35.2,50.7,33.8,50.7,32.4,50.7z"/>
		<path d="M53.5,46.1c0-0.4,0-0.8,0-1.2c0-0.2,0-0.3,0.2-0.4c0.2-0.2,1.4-0.2,1.6-0.1c0.2,0.1,0.2,0.3,0.2,0.5c0,0.6,0,1.3,0,1.9
			c0,0.4,0.1,0.5,0.6,0.5c2.1,0.1,4.2,0,6.4,0c1.2,0,1.2,0,1.2-1.2c0-0.4,0-0.8,0-1.3c0-0.3,0.1-0.5,0.4-0.5c0.4-0.1,0.8-0.1,1.1,0
			c0.3,0.1,0.5,0.3,0.5,0.6c0,0.7,0,1.5,0,2.2c-0.1,1.2-1,2-2.2,2c-0.8,0-1.6,0-2.4,0c-0.4,0-0.5,0.1-0.5,0.5c0,1.2,0,1.1-1.1,1.1
			c-0.7,0-0.7-0.1-0.7-0.7c0-1,0.1-0.9-0.9-0.9c-0.7,0-1.4,0.1-2.1,0c-1.2-0.1-1.9-0.6-2.1-1.7c0-0.1,0-0.3,0-0.4
			C53.5,46.7,53.5,46.4,53.5,46.1z"/>
		<path d="M24.3,47.5c0,0.9,0,1.7,0,2.6c0,0.5-0.1,0.6-0.6,0.6c-1.3,0-1.3,0-1.3-1.3c0-1.5,0-2.9,0-4.4c0-0.6,0.1-0.7,0.7-0.7
			c1.1-0.1,1.2,0,1.2,1.2C24.3,46.1,24.3,46.8,24.3,47.5C24.3,47.5,24.3,47.5,24.3,47.5z"/>
		<path d="M31.4,46.2c0-0.5,0-0.9,0-1.4c0-0.3,0.2-0.5,0.5-0.5c0,0,0,0,0,0c1.2-0.2,1.4,0,1.4,1.2c0,0.7,0,1.4,0,2.1
			c0,0.5-0.1,0.6-0.6,0.6c-1.4,0-1.2,0-1.2-1.2C31.4,46.7,31.4,46.5,31.4,46.2C31.4,46.2,31.4,46.2,31.4,46.2z"/>
	</g>
</g>
</svg>
