<?xml version="1.0" encoding="utf-8"?>
<!-- Generator: Adobe Illustrator 22.0.1, SVG Export Plug-In . SVG Version: 6.00 Build 0)  -->
<svg version="1.1" id="图层_1" xmlns="http://www.w3.org/2000/svg" xmlns:xlink="http://www.w3.org/1999/xlink" x="0px" y="0px"
	 viewBox="0 0 147.3 50.9" style="enable-background:new 0 0 147.3 50.9;" xml:space="preserve">
<style type="text/css">
	.st0{fill-rule:evenodd;clip-rule:evenodd;fill:#2E82C5;}
	.st1{fill:#273897;}
	.st2{fill:#FE0000;}
	.st3{fill:#E60012;}
	.st4{fill-rule:evenodd;clip-rule:evenodd;fill:#FDD108;}
	.st5{fill-rule:evenodd;clip-rule:evenodd;fill:#231815;}
	.st6{fill-rule:evenodd;clip-rule:evenodd;fill:#727171;}
	.st7{fill:#231815;}
	.st8{fill:#F7B400;}
	.st9{fill:#FFFFFF;}
	.st10{fill-rule:evenodd;clip-rule:evenodd;fill:#0058A9;}
	.st11{fill:#3DAE2B;}
	.st12{fill-rule:evenodd;clip-rule:evenodd;fill:#0076C0;}
	.st13{fill-rule:evenodd;clip-rule:evenodd;fill:#EF8200;}
	.st14{fill:#07529B;}
	.st15{fill:url(#SVGID_1_);}
	.st16{fill:url(#SVGID_2_);}
	.st17{fill:url(#SVGID_3_);}
	.st18{fill:url(#SVGID_4_);}
	.st19{fill:url(#SVGID_5_);}
	.st20{clip-path:url(#SVGID_6_);}
	.st21{clip-path:url(#SVGID_7_);}
	.st22{fill:#0C73B9;}
	.st23{fill:#005BAB;}
	.st24{fill:#0A5FA6;}
	.st25{opacity:0.5;fill:#E50012;}
	.st26{fill:#FFFEFA;}
	.st27{opacity:0.5;fill:#2CA6E0;}
	.st28{fill:#69C146;}
	.st29{fill:#009844;}
	.st30{fill:#F29600;}
	.st31{fill:#E50012;}
	.st32{fill:#161D29;}
	.st33{fill:#00913A;}
	.st34{fill-rule:evenodd;clip-rule:evenodd;fill:#B42E82;}
</style>
<g>
	<g>
		<path class="st0" d="M38.4,20C36.4,14,30,9.5,23,9.9C16.1,10.3,10,15.2,8.5,22.6c-1.4,6.7,2.3,13.9,8.6,16.9
			c6.3,3,13,1.2,16.5-2.1c-0.3-0.5-0.6-1-0.8-1.5c-1-1.7-2.2-2.1-3.9-1.2c-1.7,0.9-3.4,1.2-5.3,1.2c-6-0.1-10.7-5.3-10.3-11.2
			c0.3-3.3,1.7-6,4.4-8c2.3-1.6,4.8-2.2,7.6-1.8c2.2,0.3,4.2,1.2,5.8,2.8c0.3,0.3,0.4,0.5-0.1,0.7c-1.3,0.7-2.5,1.4-3.8,2.2
			c-1.9,1.1-3.8,2.2-5.7,3.4c-1.1,0.7-1.5,1.8-1.1,2.9c0.6,1.7,2.3,2.2,3.9,1.3c1.6-1,3.3-1.9,4.9-2.9C32.3,23.5,35.4,21.7,38.4,20z
			"/>
		<path class="st0" d="M35.6,32.3c0.8-0.5,1.7-0.9,2.4-1.4c0.8-0.6,1.2-1.4,0.9-2.4c-0.4-1-0.9-2-1.5-3c-1.5,0.9-2.9,1.7-4.4,2.5
			C33.9,29.5,34.7,30.8,35.6,32.3z"/>
	</g>
	<g>
		<path class="st0" d="M81.6,15.6c0,1.2,0,2.3,0,3.5c-1.9,0-3.7,0-5.6,0c0,3.5,0,7,0,10.5c0.4,0,0.7,0,1.2,0c0-2.5,0-5.1,0-7.7
			c1.5,0,2.9,0,4.4,0c0,4,0,8,0,12.1c-1.9,0-3.7,0-5.6,0c0,1.2,0,2.3,0,3.5c1.8,0,3.7,0,5.6,0c0,1.2,0,2.3,0,3.5
			c-3.6,0-7.2,0-10.8,0c0-2.3,0-4.6,0-6.9c-0.5,0-0.8-0.1-1.3-0.1c0-1.4,0-2.8,0-4.3c0.4,0,0.8,0,1.2-0.1c0-3.5,0-6.9,0-10.4
			c-0.8,0-1.6,0-2.5,0c0,1.6,0,3.2,0,4.8c0.4,0,0.8,0.1,1.2,0.1c0,1.1,0,2.2,0,3.4c-0.4,0-0.8,0.1-1.3,0.1c0,4.5,0,8.9,0,13.4
			c-2.3,0-4.5,0-6.8,0c0-1.1,0-2.2,0-3.4c0.4,0,0.9-0.1,1.3-0.1c0-3.3,0-6.6,0-9.9c-1.2,0-2.4,0-3.6,0c0-1.2,0-2.3,0-3.5
			c1.2,0,2.4,0,3.6,0c0-1.7,0-3.3,0-4.9c-0.7,0-1.4,0-2.2,0c0-1.2,0-2.3,0-3.5c0.7,0,1.4,0,2.2,0c0-0.7,0-1.4,0-2.1
			c-0.7,0-1.5,0-2.2,0c0-1.2,0-2.3,0-3.5c3,0,6,0,9,0c0,1.1,0,2.3,0,3.4c-0.4,0-0.8,0.1-1.2,0.1c0,0.7,0,1.3,0,2c0.8,0,1.6,0,2.5,0
			c0-1.8,0-3.7,0-5.5c1.8,0,3.4,0,5.2,0c0,1.8,0,3.6,0,5.5C77.8,15.6,79.7,15.6,81.6,15.6z"/>
		<path class="st0" d="M137.5,10.1c-7.1,9.1-14.2,18.2-21.3,27.3c5.7,0,11.4,0,17.1,0c0-2.6,0-5.1,0-7.8c2,0,3.8,0,5.7,0
			c0,3.8,0,7.5,0,11.3c-10.8,0-21.5,0-32.3,0c0-1.1,0-2.3,0-3.4c0.7,0,1.3,0,2,0c0.3,0,0.6-0.2,0.8-0.4c4.4-5.7,8.9-11.3,13.3-17
			c2.5-3.2,5.1-6.5,7.6-9.7c0.1-0.2,0.4-0.4,0.6-0.4c2.1,0,4.1,0,6.2,0C137.2,10,137.3,10.1,137.5,10.1z"/>
		<path class="st0" d="M77.3,13.5c0-1.2,0-2.3,0-3.4c10.5,0,21,0,31.6,0c0,1.1,0.1,2.2-0.1,3.3c-0.1,0.6-0.7,1.1-1.2,1.6
			c-2.1,2.5-4.2,5-6.3,7.6c-0.8,1-1.7,2-2.5,3c-0.3,0.3-0.5,0.8-0.5,1.2c0,4.4,0,8.8,0,13.3c0,0.3,0,0.6,0,0.9c-4.7,0-9.4,0-14.1,0
			c0-1.1,0-2.2,0-3.4c2.7,0,5.5,0,8.3,0c0-6.1,0-12.1,0-18.3c1.3,0,2.5,0,3.7,0c0.3,0,0.7-0.2,0.9-0.4c1.5-1.6,3-3.3,4.5-5
			c0.1-0.1,0.1-0.1,0.3-0.3C93.7,13.5,85.5,13.5,77.3,13.5z"/>
		<path class="st0" d="M54.9,21.3c0,5.4,0,10.8,0,16.2c1.4,0,2.8,0,4.2,0c0,1.2,0,2.3,0,3.5c-3.2,0-6.5,0-9.8,0c0-6.5,0-13.1,0-19.7
			C51.1,21.3,53,21.3,54.9,21.3z"/>
		<path class="st0" d="M122.3,10c-1,1.3-2,2.5-2.9,3.7c-2.3,2.9-4.6,5.8-6.9,8.6c-0.2,0.2-0.4,0.4-0.6,0.4c-2.1,0-4.2,0-6.2,0
			c-0.1,0-0.1,0-0.3-0.1c0.8-1,1.6-2.1,2.4-3.1c2.3-2.9,4.6-5.8,6.9-8.7c0.5-0.6,0.9-0.9,1.8-0.9c1.6,0.1,3.3,0,4.9,0
			C121.6,10,121.9,10,122.3,10z"/>
		<path class="st0" d="M59.5,18.5c-1.1,0-2.2,0-3.3,0c0-1.2,0-2.5,0-3.8c-0.9,0-1.8,0-2.7,0c0,1.2,0,2.5,0,3.8c-1.5,0-2.8,0-4.3,0
			c0-2.8,0-5.6,0-8.4c1.4,0,2.8,0,4.2,0c0,0.4,0.1,0.8,0.1,1.3c2,0,4,0,6,0C59.5,13.8,59.5,16.1,59.5,18.5z"/>
	</g>
</g>
</svg>
