<?xml version="1.0" encoding="utf-8"?>
<!-- Generator: Adobe Illustrator 22.0.1, SVG Export Plug-In . SVG Version: 6.00 Build 0)  -->
<svg version="1.1" id="图层_1" xmlns="http://www.w3.org/2000/svg" xmlns:xlink="http://www.w3.org/1999/xlink" x="0px" y="0px"
	 viewBox="0 0 123.1 47.8" style="enable-background:new 0 0 123.1 47.8;" xml:space="preserve">
<style type="text/css">
	.st0{fill-rule:evenodd;clip-rule:evenodd;fill:#2E82C5;}
	.st1{fill:#273897;}
	.st2{fill:#FE0000;}
	.st3{fill:#E60012;}
	.st4{fill-rule:evenodd;clip-rule:evenodd;fill:#FDD108;}
	.st5{fill-rule:evenodd;clip-rule:evenodd;fill:#231815;}
	.st6{fill-rule:evenodd;clip-rule:evenodd;fill:#727171;}
	.st7{fill:#231815;}
	.st8{fill:#F7B400;}
	.st9{fill:#FFFFFF;}
	.st10{fill-rule:evenodd;clip-rule:evenodd;fill:#0058A9;}
	.st11{fill:#3DAE2B;}
	.st12{fill-rule:evenodd;clip-rule:evenodd;fill:#0076C0;}
	.st13{fill-rule:evenodd;clip-rule:evenodd;fill:#EF8200;}
	.st14{fill:#07529B;}
	.st15{fill:url(#SVGID_1_);}
	.st16{fill:url(#SVGID_2_);}
	.st17{fill:url(#SVGID_3_);}
	.st18{fill:url(#SVGID_4_);}
	.st19{fill:url(#SVGID_5_);}
	.st20{clip-path:url(#SVGID_6_);}
	.st21{clip-path:url(#SVGID_7_);}
	.st22{fill:#0C73B9;}
	.st23{fill:#005BAB;}
	.st24{fill:#0A5FA6;}
	.st25{opacity:0.5;fill:#E50012;}
	.st26{fill:#FFFEFA;}
	.st27{opacity:0.5;fill:#2CA6E0;}
	.st28{fill:#69C146;}
	.st29{fill:#009844;}
	.st30{fill:#F29600;}
	.st31{fill:#E50012;}
	.st32{fill:#161D29;}
	.st33{fill:#00913A;}
	.st34{fill-rule:evenodd;clip-rule:evenodd;fill:#B42E82;}
</style>
<g>
	<g>
		<g>
			<g>
				<g>
					<g>
						<path class="st3" d="M113.5,11.4c-2.5,2.3-5.4,4.2-8.8,4.7c-1.2,0.1-2.9,0.2-4.1-0.2c0.6-0.9,1.4-1.9,2.2-2.7
							c5.2,0.6,9.8-1.9,13.3-5.4l0.1,0C115.6,9.1,114.5,10.3,113.5,11.4z"/>
						<path class="st3" d="M62.3,18.3L62,18.5l-2.7-0.1c-0.3-0.2,0.1-0.4,0.1-0.7l1.2-2l0.4-0.1l2.5,0.1c0.2,0.1,0.1,0.3,0,0.4
							L62.3,18.3z"/>
						<path class="st3" d="M53.9,40.9c-2.4-1.3-4.9-2.2-7.7-2.4c-1.5,0.1-3.3,0.3-4.3,1.7c-0.2,0.2-0.3,0.5-0.6,0.4
							c-3.3-4.6-9-3.6-13.4-2.7c-3.7,0.8-7.6,2-11.4,2.4c-3.3,0.3-6.8-0.8-8.4-3.9C6,32.5,7.2,27.8,8.7,24.2
							c2.6-5.9,7.3-11,12.6-14.5c2.5-1.5,5.3-2.9,8.3-2.7c0.7,0.1,1.5,0.5,1.9,1.2c0.9,1.6-0.1,3.5-1.1,4.7
							c-0.5,0.4-1.1,0.9-1.8,0.7c-0.2-0.1-0.4-0.3-0.5-0.6c-0.3-1,0.5-2,1.2-2.5c0.4-0.2,0.9-0.3,1.3-0.3c0.2-0.3,0.3-0.8,0.1-1.2
							c-0.5-0.8-1.4-0.6-2.1-0.5c-3.4,1-6,3.6-8.4,6.3c-4,4.5-7.3,9.7-8.5,15.6c-0.3,2.5-0.2,5.1,1.8,6.8c4.4,3.3,10.2,0.6,14.9-0.3
							c6.6-1.4,14.2-3.7,20.6,0.1c1.9,1.1,3.6,2.3,5.1,3.8C54.1,40.9,53.9,40.9,53.9,40.9z"/>
						<path class="st3" d="M50.8,28c-0.1,0.3-0.3,0.6-0.1,0.9c0.1,0.3,0.5,0.2,0.7,0.1c2-1.1,3.4-3.3,4.8-5.1c0.2-0.1,0.5-0.2,0.7,0
							c0.2,0.2-0.1,0.4-0.2,0.6c-1.9,2.6-3.8,5.3-6.4,7c-0.8,0.5-1.8,1-2.8,0.7c-0.6-0.3-0.9-1-0.8-1.6l0.1-1l-0.2,0
							c-1.4,1.2-2.9,3-4.9,2.5c-0.8-0.2-1.2-1-1.3-1.8c-0.1-1,0.3-1.9,0.5-2.8l0,0c-2.3,2.1-4.9,5-8.3,4.5c-0.8-0.2-1.5-0.8-1.9-1.6
							c-0.9-2.5,0.3-5,1.5-7.1c0.2-0.3,0.4-0.6,0.5-0.9l0-0.1c-0.6,0.2-1.3,0.3-1.9,0.4c-1.2,1.8-2.2,3.7-3.7,5.3
							c-1.6,1.6-3.4,3.5-5.7,3.9c-0.8,0.2-1.6-0.1-2.2-0.7c-1.2-1.9-0.2-4.4,0.5-6.3c1.8-3.8,4.9-7.5,8.7-9.3c1-0.4,2.2-0.7,3.2-0.1
							c0.9,0.7,1.1,2,0.8,3.1c-0.2,1-0.7,2-1,2.9c0.2,0.2,0.5,0,0.8-0.1c3.1-1.1,4.8-4.6,8-5.7c0.9-0.4,2.2-0.5,3.1,0
							c0.6,0.3,1,1,1,1.7c0,1.6-0.9,3.4-2.5,4c-0.4,0-0.8,0-0.9-0.4c-0.3-0.9,0.3-1.7,0.8-2.2c0.4-0.4,0.9-0.6,1.5-0.5
							c0.2-0.2,0.2-0.5,0.2-0.8c-0.1-0.2-0.2-0.5-0.5-0.6c-0.7-0.1-1.4,0.1-2,0.6c-3,2.3-5.1,5.6-6.3,9c-0.3,0.8-0.4,1.9,0.1,2.6
							c0.3,0.5,0.8,0.7,1.3,0.7c1-0.1,2-0.8,2.7-1.3c4.4-3.8,6.8-9.5,11.8-12.4c1-0.4,2.4-0.8,3.3,0c0.2,0.2,0.3,0.5,0.5,0.4
							c0.3-0.3,0.4-0.7,0.8-0.9h2.6c0.2,0,0.3,0.3,0.2,0.4L50.8,28z M53.6,17.5c-0.1-0.3-0.3-0.5-0.5-0.6c-1.5,0.1-2.6,1.5-3.5,2.5
							c-2,2.6-4.1,5.1-4.9,8.2c-0.1,0.5-0.2,1.1,0.2,1.4c0.2,0.1,0.5,0.1,0.7,0.1c1.5-0.8,2.3-2.3,3.3-3.6
							C50.5,22.8,52,20.2,53.6,17.5z M30.9,20.1c0.3-1,0.8-2.4,0-3.3c-0.5-0.4-1.4-0.2-1.9,0.2c-0.9,0.6-1.8,1.7-1.5,3
							c0.3,0.9,1.1,1.4,2,1.6c0.3,0,0.6,0.2,0.8,0L30.9,20.1z M29.4,23c0-0.1,0.2-0.3,0-0.4c-1.2-0.3-2.4-1-3.1-2.2
							c0-0.1-0.2-0.1-0.2,0c-1.2,1.7-2.4,3.4-3.1,5.3c-0.3,0.9-0.8,2.1,0,2.9c0.3,0.4,1,0.3,1.4,0.2c1.4-0.7,2.6-2.2,3.5-3.4
							L29.4,23z"/>
						<path class="st3" d="M97.3,14.6c-2.9-1.5-5.5-3.4-8.4-4.7c-1.2-0.4-2.7-1-4-0.6l-0.2,0.2c0.2,2.2-0.6,4.2-1.5,6
							c-1.5,2.3-3.3,4.7-6,5.3c-0.7,0-1.3-0.1-1.7-0.7c-0.8-1.3,0-2.9,0.6-4.1c1.4-2.8,4-5.5,6.9-7c0.1-0.1,0.1-0.2,0-0.3
							c-1-0.3-2-0.1-2.8,0.3c-5,2.4-8.8,6.9-12.3,11.3c-2.9,4.2-5.6,8.6-6.2,13.7c-0.1,1.5,0.3,3,1.6,3.8c1.8,1,3.8-0.3,5.3-1.4
							c2.8-2.5,4.9-5.6,5.4-9.3c0-0.6,0-1.4-0.6-1.8c-1.1-0.3-2.2,0.7-2.8,1.6c-0.8,1.1-1.4,2.4-1.6,3.8c-0.4,0.4-1,0.5-1.5,0.7
							c-1,0.6-1.8,1.3-2.6,2.2c-0.1,0-0.2,0-0.2-0.1c0.2-1.5,0.7-3,1.3-4.4c1.2-2.7,3.8-5.2,6.8-5.5c0.7,0,1.5,0.3,1.9,1
							c0.7,1.4,0.3,3.3-0.2,4.7c-1.6,4.3-5,8.5-9.2,10.5c-2.1,0.8-4.5,0.9-6.3-0.8c-2.2-2.2-2-6-1-8.7c1.4-4.5,4.1-8.7,7.2-12.4
							c4-4.7,8.8-9,14.7-10.6c1.4-0.3,3.3-0.4,4.4,0.8c0.7-0.1,1.3-0.4,2-0.6c2.6-0.8,5.3-0.2,7.6,0.9c2.1,1,4.1,2.2,6.1,3.3
							C99,13,98.1,13.8,97.3,14.6z M83.8,11.3c0-0.4,0.2-1.2-0.2-1.4c-3.1,1.5-5.6,4.3-7.1,7.4c-0.3,0.7-0.7,1.9-0.1,2.5
							c0.3,0.2,0.7,0.2,1,0.2c1.3-0.4,2.3-1.5,3.2-2.5C82.3,15.7,83.3,13.6,83.8,11.3z"/>
						<path class="st3" d="M104.7,33c-0.8,1.3-1.8,2.6-2.3,4.1c0,0.2,0,0.5,0.1,0.6c0.2,0.2,0.5,0.2,0.7,0c2-1.1,3.5-3.4,4.8-5.3
							c0.2-0.1,0.5-0.1,0.7-0.1c0.2,0.2-0.1,0.5-0.2,0.7c-2.1,2.9-4.4,6.3-7.9,7.6c-0.5,0.1-1.4,0.2-1.8-0.4
							c-0.6-0.6-0.4-1.6-0.3-2.4l0,0c-1.2,1.1-2.5,2.4-4,2.8c-0.7,0.1-1.5,0-2-0.6c-0.6-0.8-0.5-2.1-0.3-3.1l-0.1,0
							c-1.3,1.4-2.6,2.9-4.3,3.4c-0.8,0.2-1.6-0.1-2.1-0.6c-1-1.2-0.5-3.1-0.1-4.4c0.3-1.3,0.8-2.6,1.2-3.8l-0.1-0.1
							c-0.6,0.2-1.3,0.1-2,0.2c-1.9,3.2-4.3,6.7-7.7,8.4c-0.8,0.4-1.9,0.7-2.7,0.3c-1.2-0.6-1.3-2-1.1-3.2c0.3-2.1,1.2-3.9,2.2-5.7
							c2-2.9,4.4-6.1,7.7-7.4c0.8-0.3,1.9-0.5,2.7-0.1c1.1,0.7,1,2,0.8,3.2c-0.3,1.2-0.8,2.4-1.3,3.5c0.1,0.3,0.4,0.1,0.6,0.1
							c0.5-0.1,1-0.2,1.4-0.4c3.9-7.9,9.2-15.7,16.6-21.2c1.2-0.8,2.6-1.8,4.2-1.6c0.3,0.1,0.7,0.4,0.8,0.8c0.3,1.6-0.6,2.8-1.3,4.1
							c-0.2,0.1-0.5,0.2-0.7,0.1c-0.2-0.1,0-0.3,0-0.5c0.5-1,1.2-2,1.1-3.2c-0.1-0.2-0.2-0.3-0.4-0.3c-1.7,0.6-2.8,1.9-4.1,3.1
							c-4.1,4.1-7.1,9-10.1,13.9c-0.5,0.8-1,1.6-1.3,2.5c0.7-0.2,1.2-0.8,1.9-1.2c3.8-3.1,7.3-6.8,10.4-10.7
							c0.2-0.2,0.5-0.2,0.8-0.2c0.2,0.2,0,0.4-0.1,0.5c-3.9,5.2-8.7,9.9-13.9,13.4c-0.9,2-1.8,4-2.2,6.2c-0.1,0.5-0.1,1,0.2,1.4
							c0.2,0.2,0.4,0.3,0.7,0.2c1.7-0.7,2.5-2.5,3.6-3.8c2.3-3.4,4.9-7.3,8.6-9.4c0.8-0.4,2.1-0.7,2.9-0.2c0.3,0.2,0.5,0.5,0.9,0.8
							c0.5-0.2,0.4-1.2,1.2-1l2.5,0c0.2,0,0.2,0.3,0.1,0.4L104.7,33z M85.6,27.7c0.1-0.8,0.3-1.9-0.5-2.4c-0.5-0.2-1.1,0-1.5,0.3
							c-1.1,0.6-1.9,1.7-1.7,3.1c0.2,0.8,0.9,1.6,1.7,2c0.2,0.1,0.5,0.3,0.7,0.1C84.9,29.8,85.3,28.8,85.6,27.7z M83.7,31.7
							c-1.2-0.5-2.4-1.3-3-2.6l-0.1,0c-1.3,1.7-2.6,3.6-3.3,5.6c-0.2,0.8-0.6,1.8-0.1,2.6c0.2,0.3,0.7,0.4,1.1,0.4
							c1.5-0.4,2.5-1.8,3.5-3C82.5,33.6,83.3,32.8,83.7,31.7z M105,25.8c-0.6-0.2-1.1,0.1-1.5,0.4c-2.6,2-4.3,4.7-6,7.4
							c-0.6,1.1-1.2,2.4-1.2,3.7c0,0.2,0.2,0.4,0.4,0.5c0.8,0.3,1.4-0.5,2-0.9c2.6-3.1,4.4-6.8,6.6-10.2
							C105.4,26.3,105.2,26,105,25.8z"/>
					</g>
				</g>
			</g>
		</g>
	</g>
</g>
</svg>
