<?xml version="1.0" encoding="utf-8"?>
<!-- Generator: Adobe Illustrator 22.0.1, SVG Export Plug-In . SVG Version: 6.00 Build 0)  -->
<svg version="1.1" id="图层_1" xmlns="http://www.w3.org/2000/svg" xmlns:xlink="http://www.w3.org/1999/xlink" x="0px" y="0px"
	 viewBox="0 0 127.1 46.1" style="enable-background:new 0 0 127.1 46.1;" xml:space="preserve">
<style type="text/css">
	.st0{fill-rule:evenodd;clip-rule:evenodd;fill:#2E82C5;}
	.st1{fill:#273897;}
	.st2{fill:#FE0000;}
	.st3{fill:#E60012;}
	.st4{fill-rule:evenodd;clip-rule:evenodd;fill:#FDD108;}
	.st5{fill-rule:evenodd;clip-rule:evenodd;fill:#231815;}
	.st6{fill-rule:evenodd;clip-rule:evenodd;fill:#727171;}
	.st7{fill:#231815;}
	.st8{fill:#F7B400;}
	.st9{fill:#FFFFFF;}
	.st10{fill-rule:evenodd;clip-rule:evenodd;fill:#0058A9;}
	.st11{fill:#3DAE2B;}
	.st12{fill-rule:evenodd;clip-rule:evenodd;fill:#0076C0;}
	.st13{fill-rule:evenodd;clip-rule:evenodd;fill:#EF8200;}
	.st14{fill:#07529B;}
	.st15{fill:url(#SVGID_1_);}
	.st16{fill:url(#SVGID_2_);}
	.st17{fill:url(#SVGID_3_);}
	.st18{fill:url(#SVGID_4_);}
	.st19{fill:url(#SVGID_5_);}
	.st20{clip-path:url(#SVGID_6_);}
	.st21{clip-path:url(#SVGID_7_);}
	.st22{fill:#0C73B9;}
	.st23{fill:#005BAB;}
	.st24{fill:#0A5FA6;}
	.st25{opacity:0.5;fill:#E50012;}
	.st26{fill:#FFFEFA;}
	.st27{opacity:0.5;fill:#2CA6E0;}
	.st28{fill:#69C146;}
	.st29{fill:#009844;}
	.st30{fill:#F29600;}
	.st31{fill:#E50012;}
	.st32{fill:#161D29;}
	.st33{fill:#00913A;}
	.st34{fill-rule:evenodd;clip-rule:evenodd;fill:#B42E82;}
</style>
<g>
	<path class="st7" d="M61.9,17.2c0-0.2-0.2-0.3-0.3-0.3h-1.2c-0.1,0-0.1,0-0.2,0.1c0,0.1-0.1,0.1-0.1,0.2l0.6,8.1
		c0,0.2,0.2,0.3,0.3,0.3h1.2c0.1,0,0.1,0,0.2-0.1c0,0,0.1-0.1,0.1-0.2L61.9,17.2L61.9,17.2z"/>
	<path class="st7" d="M48.6,18.2c0,0,0-0.1,0-0.2c0,0-0.1-0.1-0.2-0.1H47c-0.1,0-0.2,0.1-0.3,0.2L45.1,25c0,0.1,0,0.1,0,0.2
		c0,0,0.1,0.1,0.2,0.1h1.4c0.1,0,0.2-0.1,0.3-0.2L48.6,18.2L48.6,18.2z"/>
	<path class="st7" d="M61.7,10.9h-2.5L58.3,10c0,0,0,0,0,0c-0.1-0.1-0.3-0.2-0.5-0.2c-0.2,0-0.4,0.1-0.5,0.2l-0.9,0.9h-5.1L50.4,10
		c-0.1-0.1-0.3-0.2-0.5-0.2c-0.2,0-0.4,0.1-0.5,0.2l0,0l-0.9,0.9H46c-0.1,0-0.3,0.1-0.3,0.3v1c0,0.2,0.1,0.3,0.3,0.3h15.7
		c0.1,0,0.3-0.1,0.3-0.3v-1C62,11.1,61.8,10.9,61.7,10.9L61.7,10.9z"/>
	<path class="st7" d="M54.2,15.1h-1.3l0.2-1c0-0.1,0-0.2,0-0.2c0-0.1-0.1-0.1-0.2-0.1h-1.4c-0.2,0-0.3,0.1-0.3,0.2L51,15.1h-4.6
		c-0.2,0-0.3,0.1-0.3,0.3v1c0,0.1,0.1,0.3,0.3,0.3h4.2l-2.5,10.2c0,0.1,0,0.2,0,0.2c0,0.1,0.1,0.1,0.2,0.1h1.4
		c0.2,0,0.3-0.1,0.3-0.2l2.5-10.2c0,0,1.5,0,1.6,0c2,0,3.2,1.4,3.2,3.2v2.6c0,2-1.4,3.2-3.2,3.2h-1c-0.2,0-0.3,0.1-0.4,0.3l-0.2,1
		c0,0.1,0.1,0.3,0.3,0.3h1.3c2.8,0,5-1.6,5-4.7v-2.6C59.1,17,57.1,15.1,54.2,15.1L54.2,15.1z"/>
	<path class="st7" d="M84.7,14.8h10.4c0.2,0,0.3-0.1,0.3-0.3v-1c0-0.2-0.1-0.3-0.3-0.3H84.7c0.3-1,1.2-1.6,2.3-1.6h7.4
		c1.3,0,2.4,1.1,2.4,2.4c0,1.3-1.1,2.4-2.4,2.4H87C85.9,16.4,85,15.7,84.7,14.8L84.7,14.8z M95.1,19.3h-9.2l0.5-1.3h8.3
		c2.2,0,3.9-1.7,3.9-3.9c0-2.2-1.7-3.9-3.9-3.9h-8c-2.2,0-3.9,1.7-3.9,3.9c0,1.4,0.8,2.7,1.9,3.4l-2.5,6.1c0,0-0.2,0.3,0.3,0.3h1.2
		c0.2,0,0.4-0.1,0.4-0.3l1.2-2.8h2.3l-2.5,6.1c0,0-0.1,0.3,0.3,0.3h1.3c0.2,0,0.4-0.1,0.4-0.3l2.5-6.1h2.3l-2.5,6.1
		c0,0-0.1,0.3,0.3,0.3H91c0.2,0,0.4-0.1,0.4-0.3l2.5-6.1h0.8c1.2,0,2.3,1,2.3,2.3v0.4c0,1.2-0.9,2.3-2.3,2.3h-0.3
		c-0.2,0-0.3,0.1-0.4,0.3l-0.4,0.9c-0.1,0.1,0,0.3,0.3,0.3h1.2c2.1,0,3.6-1.7,3.6-3.7V23C98.8,21,97.2,19.3,95.1,19.3L95.1,19.3z"/>
	<path class="st7" d="M76.7,10.9h-2.9L72.9,10c-0.1-0.1-0.3-0.2-0.5-0.2c-0.2,0-0.4,0.1-0.5,0.2c0,0,0,0,0,0l-0.9,0.9h-2.9
		c-2.5,0-3.9,1.3-3.9,3.6V15c0,0.1,0.1,0.3,0.3,0.3h1.3c0.1,0,0.3-0.1,0.3-0.3v-0.3c0-1.5,0.7-2.2,2.4-2.2h7.7
		c1.7,0,2.4,0.7,2.4,2.2V15c0,0.1,0.1,0.3,0.3,0.3h1.3c0.1,0,0.3-0.1,0.3-0.3v-0.5C80.6,12.3,79.2,10.9,76.7,10.9L76.7,10.9z"/>
	<path class="st7" d="M80.3,16.5H64.5c-0.2,0-0.3,0.1-0.3,0.3v1c0,0.2,0.1,0.3,0.3,0.3h9.6v4.1c0,2.1-1.3,3.4-3.4,3.4h-3.1
		c-0.2,0-0.3,0.1-0.4,0.3l-0.2,1c0,0.1,0.1,0.3,0.3,0.3h3.9c0,0,0,0,0,0c2.6,0,4.8-2,4.8-4.8v-4.3h4.3c0.1,0,0.3-0.1,0.3-0.3v-1
		C80.6,16.7,80.5,16.5,80.3,16.5L80.3,16.5z"/>
	<path class="st7" d="M105.5,21.4V14c0-0.1-0.1-0.3-0.2-0.3h-1.3c-0.1,0-0.2,0.1-0.2,0.3v7.4l-3,5.5c0,0,0,0,0,0.1
		c0,0.1,0.1,0.2,0.2,0.2h1.4c0.2,0,0.3-0.1,0.4-0.2l1.9-3.5l1.9,3.5c0.1,0.1,0.2,0.2,0.4,0.2h1.4c0.1,0,0.2-0.1,0.2-0.2
		c0,0,0,0,0-0.1L105.5,21.4L105.5,21.4z"/>
	<path class="st7" d="M106.8,13.8c0-1.2-0.9-2.1-2.1-2.1c-1.2,0-2.1,0.9-2.1,2.1l0,7.8c0,0.1-0.1,0.3-0.3,0.3h-1.1
		c-0.2,0-0.3-0.1-0.3-0.3v-7.8c0-2.1,1.7-3.8,3.8-3.8c2.1,0,3.8,1.7,3.8,3.8v7.8c0,0.1-0.1,0.3-0.3,0.3h-1.1c-0.1,0-0.3-0.1-0.3-0.3
		L106.8,13.8L106.8,13.8z"/>
	<path class="st7" d="M114.2,13.7H113c-0.1,0-0.3,0.1-0.3,0.3v8.9c0,0.4-0.3,0.7-0.7,0.7c-0.4,0-0.7-0.3-0.7-0.7V14
		c0-0.1-0.1-0.3-0.3-0.3h-1.1c-0.1,0-0.3,0.1-0.3,0.3v8.9c0,1.3,1.1,2.4,2.4,2.4c1.3,0,2.4-1.1,2.4-2.4V14
		C114.5,13.8,114.3,13.7,114.2,13.7L114.2,13.7z"/>
	<path class="st7" d="M113.5,10.6h-2.2v-0.5c0-0.2-0.1-0.3-0.3-0.3h-1.1c-0.1,0-0.3,0.1-0.3,0.3V12c0,0,0,0.3,0.3,0.3h3
		c1.9,0,2.9,1.3,2.9,2.8v8.7c0,1.9-1.4,1.8-1.4,1.8h-0.2c-0.2,0-0.3,0.1-0.4,0.3l-0.4,0.9c-0.1,0.1,0,0.3,0.3,0.3h0.8
		c1.8,0,3-1.1,3-3.3v-9.2C117.5,12.5,115.9,10.6,113.5,10.6L113.5,10.6z"/>
	<path class="st7" d="M59.2,30.3h-1.1c-0.1,0-0.2,0.1-0.2,0.2c0,3.5,0,3.8,0,3.9c0,0.9-0.8,1.3-1.8,1.3c-0.9,0-1.8-0.4-1.8-1.3
		c0-0.1,0-0.4,0-3.9c0-0.1-0.1-0.2-0.2-0.2H53c-0.1,0-0.2,0.1-0.2,0.2v3.9c0,1.8,1.5,2.5,3.3,2.5c1.8,0,3.3-0.7,3.3-2.5v-3.9
		C59.4,30.4,59.3,30.3,59.2,30.3L59.2,30.3z"/>
	<path class="st7" d="M69.6,30.3h1.1c0.1,0,0.2,0.1,0.2,0.2v6c0,0.1-0.1,0.2-0.2,0.2c-0.3,0-0.8,0-1.1,0c-0.1,0-0.2-0.1-0.2-0.2
		c0-1,0-5,0-6C69.4,30.4,69.5,30.3,69.6,30.3L69.6,30.3z"/>
	<path class="st7" d="M90.1,35.1L90.1,35.1c0.5,0,0.9,0.4,0.9,0.9l0,0c0,0.5-0.4,0.9-0.9,0.9h0c-0.5,0-0.9-0.4-0.9-0.9l0,0
		C89.2,35.5,89.6,35.1,90.1,35.1L90.1,35.1z"/>
	<path class="st7" d="M102.6,35.8c-1.4,0-1.9-1-1.9-2.2c0-1.2,0.5-2.2,1.9-2.2c1.5,0,1.9,1,1.9,2.2
		C104.5,34.8,104.1,35.8,102.6,35.8L102.6,35.8z M102.6,30.2c-2.6,0-3.6,1.5-3.6,3.3c0,1.9,1,3.4,3.6,3.4c2.7,0,3.6-1.5,3.6-3.4
		C106.2,31.7,105.2,30.2,102.6,30.2L102.6,30.2z"/>
	<path class="st7" d="M98.1,31.3v-0.7c0-0.1-0.1-0.2-0.2-0.2c-3.7-0.6-5.7,1-5.7,3.2c0,2.1,1.6,3.9,5.7,3.2c0.1,0,0.2-0.1,0.2-0.2
		v-0.7c0-0.1-0.1-0.2-0.3-0.2c-1.5,0.2-4.1,0.2-4.1-2.1c0-2.2,2.7-2.3,4.1-2C98,31.5,98.1,31.4,98.1,31.3L98.1,31.3z"/>
	<path class="st7" d="M62.6,32.8v3.8c0,0.1-0.1,0.2-0.2,0.2h-1.1c-0.1,0-0.2-0.1-0.2-0.2v-6c0-0.1,0.1-0.2,0.2-0.2h1.1
		c0.1,0,0.2,0.1,0.2,0.2v0.2c0.5-0.3,1.1-0.6,1.9-0.6c2.4,0,3.3,1.2,3.3,2.5v3.9c0,0.1-0.1,0.2-0.2,0.2h-1.1c-0.1,0-0.2-0.1-0.2-0.2
		c0-0.7,0-3.9,0-3.9c0-1.4-1.8-1.3-1.8-1.3v0c0,0,0,0,0,0C64.4,31.4,62.6,31.3,62.6,32.8L62.6,32.8z"/>
	<path class="st7" d="M74.2,32.8v3.8c0,0.1-0.1,0.2-0.2,0.2h-1.1c-0.1,0-0.2-0.1-0.2-0.2v-6c0-0.1,0.1-0.2,0.2-0.2H74
		c0.1,0,0.2,0.1,0.2,0.2v0.2c0.4-0.3,1.1-0.6,1.9-0.6c2.4,0,3.3,1.2,3.3,2.5v3.9c0,0.1-0.1,0.2-0.2,0.2H78c-0.1,0-0.2-0.1-0.2-0.2
		c0-0.7,0-3.9,0-3.9c0-1.4-1.8-1.3-1.8-1.3v0c0,0,0,0,0,0C76,31.4,74.2,31.3,74.2,32.8L74.2,32.8z"/>
	<path class="st7" d="M46.7,32.2c-0.3-1.2,2.5-1,3.9-0.7c0.1,0,0.3,0,0.3-0.2c0-0.2,0-0.5,0-0.7c0-0.1-0.1-0.2-0.2-0.2
		c-3.1-0.5-5.8-0.2-5.6,2c0.2,2.2,4.5,1.2,4.6,2.5c0,1.2-2.6,1-4.2,0.5c-0.2-0.1-0.4,0-0.4,0.2c0,0.2,0,0.6,0,0.7
		c0,0.1,0.1,0.2,0.1,0.2c1.9,0.7,6.3,0.8,6.1-1.7C51.2,32.3,47,33.2,46.7,32.2L46.7,32.2z"/>
	<path class="st7" d="M117.5,36.6c0,0.1-0.1,0.2-0.2,0.2h-1.1c-0.1,0-0.2-0.1-0.2-0.2v-4c0-0.6-0.5-1.1-1.3-1.1
		c-0.8,0-1.3,0.5-1.3,1.1v4c0,0.1-0.1,0.2-0.2,0.2H112c-0.1,0-0.2-0.1-0.2-0.2l0-4c0-0.6-0.6-1.1-1.3-1.1c-0.8,0-1.4,0.5-1.4,1.1v4
		c0,0.1-0.1,0.2-0.2,0.2h-1.1c-0.1,0-0.2-0.1-0.2-0.2v-6c0-0.2,0.1-0.3,0.3-0.3h0.9c0.2,0,0.3,0.2,0.3,0.3l0,0.1
		c0.4-0.3,1-0.5,1.6-0.5c0.9,0,1.6,0.4,2.1,0.9c0.4-0.4,1.2-0.9,2.1-0.9c1.5,0,2.7,0.9,2.7,2V36.6L117.5,36.6z"/>
	<path class="st7" d="M84.1,35.8c-1.3,0-1.8-1-1.8-2.2c0-1.1,0.5-2.2,1.8-2.2c1.4,0,1.8,1.1,1.8,2.2C85.9,34.7,85.5,35.8,84.1,35.8
		L84.1,35.8z M87.3,30.3h-1.1c-0.2,0-0.2,0.1-0.2,0.2v0.1c-0.5-0.3-1.1-0.4-1.8-0.4l0,0c0,0,0,0,0,0c0,0,0,0,0,0l0,0
		c-2.4,0-3.3,1.8-3.3,3.4c0,1.6,0.9,3.3,3.3,3.3v0c0,0,0,0,0,0c0,0,0,0,0,0v0c0.7,0,1.3-0.2,1.8-0.4c0,0.3,0,0.7,0,0.7
		c0,1.3-1.1,1.7-2.4,1.7c-0.8,0-1.4-0.3-1.9-0.4c-0.2-0.1-0.3,0-0.3,0.2v0.8c0,0.1,0,0.2,0.2,0.2c0.6,0.2,1.6,0.4,2.4,0.3
		c1.8,0,3.5-0.8,3.5-3v-6.5C87.5,30.4,87.4,30.3,87.3,30.3L87.3,30.3z"/>
	<path class="st8" d="M39.6,19.6l-2.9-2.9v-4.2c0-1.5-1.2-2.7-2.7-2.7h-4.2l-2.9-2.9c-0.5-0.5-1.2-0.8-1.8-0.8h-0.2
		c-0.7,0-1.3,0.3-1.8,0.8l-2.9,2.9H16c-1.5,0-2.7,1.2-2.7,2.7v4.2l-2.9,2.9c-0.5,0.5-0.8,1.2-0.8,1.9c0,0.7,0.3,1.4,0.8,1.9l2.9,2.9
		v4.2c0,1.5,1.2,2.7,2.7,2.7h4.2l2.9,2.9c1.1,1.1,2.8,1.1,3.8,0l2.9-2.9H34c1.5,0,2.7-1.2,2.7-2.7v-4.2l2.9-2.9
		C40.7,22.3,40.7,20.6,39.6,19.6L39.6,19.6z"/>
	<path class="st9" d="M29.5,23.6c-0.3-2.3-2.2-4-4.6-4c-2.4,0-4.3,1.8-4.6,4c-1.9,0.1-3.4,1.6-3.4,3.5c0,2,1.6,3.5,3.5,3.5h8.9
		c2,0,3.5-1.6,3.5-3.5C33,25.2,31.5,23.7,29.5,23.6L29.5,23.6z"/>
	<path d="M28.6,19.5c0,0.6,0.5,1.1,1.1,1.1c0.6,0,1.1-0.5,1.1-1.1c0-0.6-0.5-1.1-1.1-1.1C29.2,18.3,28.6,18.8,28.6,19.5L28.6,19.5z"
		/>
	<path d="M19,19.5c0,0.6,0.5,1.1,1.1,1.1c0.6,0,1.1-0.5,1.1-1.1c0-0.6-0.5-1.1-1.1-1.1C19.5,18.3,19,18.8,19,19.5L19,19.5z"/>
	<path d="M27.8,23.6h-5.6c-0.5,0-1,0.7-0.2,1.3l1.8,1.4c0,0,0.5,0.4,1.2,0.4c0.7,0,1.2-0.4,1.2-0.4l1.8-1.4
		C28.7,24.3,28.3,23.6,27.8,23.6L27.8,23.6z"/>
</g>
</svg>
