<?xml version="1.0" encoding="utf-8"?>
<!-- Generator: Adobe Illustrator 22.0.1, SVG Export Plug-In . SVG Version: 6.00 Build 0)  -->
<svg version="1.1" id="图层_1" xmlns="http://www.w3.org/2000/svg" xmlns:xlink="http://www.w3.org/1999/xlink" x="0px" y="0px"
	 viewBox="0 0 116.9 41.6" style="enable-background:new 0 0 116.9 41.6;" xml:space="preserve">
<style type="text/css">
	.st0{fill-rule:evenodd;clip-rule:evenodd;fill:#2E82C5;}
	.st1{fill:#273897;}
	.st2{fill:#FE0000;}
	.st3{fill:#E60012;}
	.st4{fill-rule:evenodd;clip-rule:evenodd;fill:#FDD108;}
	.st5{fill-rule:evenodd;clip-rule:evenodd;fill:#231815;}
	.st6{fill-rule:evenodd;clip-rule:evenodd;fill:#727171;}
	.st7{fill:#231815;}
	.st8{fill:#F7B400;}
	.st9{fill:#FFFFFF;}
	.st10{fill-rule:evenodd;clip-rule:evenodd;fill:#0058A9;}
	.st11{fill:#3DAE2B;}
	.st12{fill-rule:evenodd;clip-rule:evenodd;fill:#0076C0;}
	.st13{fill-rule:evenodd;clip-rule:evenodd;fill:#EF8200;}
	.st14{fill:#07529B;}
	.st15{fill:url(#SVGID_1_);}
	.st16{fill:url(#SVGID_2_);}
	.st17{fill:url(#SVGID_3_);}
	.st18{fill:url(#SVGID_4_);}
	.st19{fill:url(#SVGID_5_);}
	.st20{clip-path:url(#SVGID_6_);}
	.st21{clip-path:url(#SVGID_7_);}
	.st22{fill:#0C73B9;}
	.st23{fill:#005BAB;}
	.st24{fill:#0A5FA6;}
	.st25{opacity:0.5;fill:#E50012;}
	.st26{fill:#FFFEFA;}
	.st27{opacity:0.5;fill:#2CA6E0;}
	.st28{fill:#69C146;}
	.st29{fill:#009844;}
	.st30{fill:#F29600;}
	.st31{fill:#E50012;}
	.st32{fill:#161D29;}
	.st33{fill:#00913A;}
	.st34{fill-rule:evenodd;clip-rule:evenodd;fill:#B42E82;}
</style>
<g>
	<path class="st34" d="M50,23.9c0-1-0.2-1.9-0.2-3.2c0-9.3,7.6-17,16.8-17c9.3,0,16.8,7.6,16.8,17c0,9.3-7.4,17-16.8,17
		c-7,0-12.9-4.3-15.6-10.6c-1.2,0-2.6,0-4,0c-4.3,0-8.4-0.2-12-0.7l0,0V34h15.8v3.3H31.6V25.8c-4.5-0.9-7.4-2.6-7.4-4.3
		c0-1.7,2.2-3.6,7.4-4.5V6.9L10.3,37.3H6L28.7,4.5h22.1v3.6H34.9v8.4c2.4-0.2,5.3-0.4,8.6-0.4c-3.4,0-6.2,0.4-8.6,0.9v6.3
		c3.4,0.4,7.7,0.9,12.4,0.9c1,0,1.9,0,2.7,0V23.9L50,23.9z M110.9,4.5v32.8h-3.6L88.6,10.7v26.6h-3.4V4.5h3.4l18.7,26.8V4.5H110.9
		L110.9,4.5z M54.9,27c8.6-0.9,14.8-2.9,14.8-5.5c0-2.2-2.9-4-12.2-5c5.5,0.7,9.3,2.4,9.3,3.9c0,1.7-5.5,3.1-13.2,3.6
		c-0.2-1-0.2-1.9-0.2-3.2c0-7.4,6-13.4,13.2-13.4c7.4,0,13.4,6,13.4,13.4c0,7.5-6,13.7-13.4,13.7C61.5,34.4,57,31.3,54.9,27L54.9,27
		L54.9,27z M31.6,22.5c-2.4-0.5-3.8-1.4-3.8-2.2c0-0.7,1.4-1.7,3.8-2.4V22.5L31.6,22.5z"/>
</g>
</svg>
