<?xml version="1.0" encoding="utf-8"?>
<!-- Generator: Adobe Illustrator 22.0.1, SVG Export Plug-In . SVG Version: 6.00 Build 0)  -->
<svg version="1.1" id="图层_1" xmlns="http://www.w3.org/2000/svg" xmlns:xlink="http://www.w3.org/1999/xlink" x="0px" y="0px"
	 viewBox="0 0 71.8 62.9" style="enable-background:new 0 0 71.8 62.9;" xml:space="preserve">
<style type="text/css">
	.st0{fill-rule:evenodd;clip-rule:evenodd;fill:#2E82C5;}
	.st1{fill:#273897;}
	.st2{fill:#FE0000;}
	.st3{fill:#E60012;}
	.st4{fill-rule:evenodd;clip-rule:evenodd;fill:#FDD108;}
	.st5{fill-rule:evenodd;clip-rule:evenodd;fill:#231815;}
	.st6{fill-rule:evenodd;clip-rule:evenodd;fill:#727171;}
	.st7{fill:#231815;}
	.st8{fill:#F7B400;}
	.st9{fill:#FFFFFF;}
	.st10{fill-rule:evenodd;clip-rule:evenodd;fill:#0058A9;}
	.st11{fill:#3DAE2B;}
	.st12{fill-rule:evenodd;clip-rule:evenodd;fill:#0076C0;}
	.st13{fill-rule:evenodd;clip-rule:evenodd;fill:#EF8200;}
	.st14{fill:#07529B;}
	.st15{fill:url(#SVGID_1_);}
	.st16{fill:url(#SVGID_2_);}
	.st17{fill:url(#SVGID_3_);}
	.st18{fill:url(#SVGID_4_);}
	.st19{fill:url(#SVGID_5_);}
	.st20{clip-path:url(#SVGID_6_);}
	.st21{clip-path:url(#SVGID_7_);}
	.st22{fill:#0C73B9;}
	.st23{fill:#005BAB;}
	.st24{fill:#0A5FA6;}
	.st25{opacity:0.5;fill:#E50012;}
	.st26{fill:#FFFEFA;}
	.st27{opacity:0.5;fill:#2CA6E0;}
	.st28{fill:#69C146;}
	.st29{fill:#009844;}
	.st30{fill:#F29600;}
	.st31{fill:#E50012;}
	.st32{fill:#161D29;}
	.st33{fill:#00913A;}
	.st34{fill-rule:evenodd;clip-rule:evenodd;fill:#B42E82;}
</style>
<g>
	<rect x="7.6" y="3.1" class="st29" width="56.7" height="56.7"/>
	<path class="st9" d="M15.2,5.6h40.6c0,0,3.6-0.3,3.6,3.4c0,5.2-3.6,39.6-4.2,42.9c-0.6,3.3-0.4,4.3-4.3,4.3c-3.9,0-7.3,0-7.3,0v1.7
		H28.4v-2.3h-9.5c0,0-3.4,0.8-3.4-3.6s-3.1-39.8-3.1-43C12.4,5.8,13.1,5.6,15.2,5.6z"/>
	<path class="st30" d="M20.3,11.5h28.3c0,0-8.4,4-12.8,11.1H20.3L20.3,11.5z"/>
	<path class="st31" d="M52.8,11.6v11.6c0,0-6.4,2.9-8.6,8.9H32.9C32.9,32.1,36.6,18.3,52.8,11.6z"/>
	<path class="st31" d="M30,43.4c0,0-0.4,5.3-0.4,8.8c0,3.5,0,4.5,0,4.5h12.5v-9c0,0,0-2.4,0.1-4.3L30,43.4z"/>
	<path class="st29" d="M45.4,46.1v0.8h-0.3v-2h0.7c0.2,0,0.4,0.1,0.5,0.2c0.1,0.1,0.2,0.3,0.2,0.5c0,0.2-0.1,0.3-0.2,0.4
		c-0.1,0.1-0.2,0.1-0.4,0.1l0.7,0.8h-0.3l-0.7-0.8H45.4z M46.2,45.6c0-0.1,0-0.3-0.1-0.3c-0.1-0.1-0.2-0.1-0.4-0.1h-0.3v0.8h0.3
		c0.2,0,0.3,0,0.4-0.1C46.2,45.8,46.2,45.7,46.2,45.6z"/>
	<path class="st29" d="M45.7,43.9c-1.1,0-2,0.9-2,2c0,1.1,0.9,2,2,2c1.1,0,2-0.9,2-2C47.8,44.8,46.9,43.9,45.7,43.9z M45.7,47.6
		c-0.9,0-1.7-0.8-1.7-1.7c0-0.9,0.8-1.7,1.7-1.7c0.9,0,1.7,0.8,1.7,1.7C47.4,46.8,46.7,47.6,45.7,47.6z"/>
	<g>
		<polygon class="st29" points="19.9,34 19.5,34 19.5,34.4 19.5,41.8 19.5,42.2 19.9,42.2 23.5,42.2 23.9,42.2 23.9,41.8 23.9,41.2 
			23.9,40.7 23.5,40.7 21.8,40.7 21.8,38.5 23.5,38.5 23.9,38.5 23.9,38.1 23.9,37.5 23.9,37.1 23.5,37.1 21.8,37.1 21.8,35.4 
			23.5,35.4 23.9,35.4 23.9,35 23.9,34.4 23.9,34 23.5,34 		"/>
		<polygon class="st29" points="27.2,40.7 27.2,34.4 27.2,34 26.8,34 25.3,34 24.8,34 24.8,34.4 24.8,41.8 24.8,42.2 25.3,42.2 
			28.9,42.2 29.3,42.2 29.3,41.8 29.3,41.2 29.3,40.7 28.9,40.7 		"/>
		<polygon class="st29" points="30.7,34 30.2,34 30.2,34.4 30.2,41.8 30.2,42.2 30.7,42.2 34.2,42.2 34.7,42.2 34.7,41.8 34.7,41.2 
			34.7,40.7 34.2,40.7 32.6,40.7 32.6,38.5 34.2,38.5 34.7,38.5 34.7,38.1 34.7,37.5 34.7,37.1 34.2,37.1 32.6,37.1 32.6,35.4 
			34.2,35.4 34.7,35.4 34.7,35 34.7,34.4 34.7,34 34.2,34 		"/>
		<polygon class="st29" points="39.2,34 38.8,34 38.7,34.3 38.2,36.8 37.7,34.3 37.7,34 37.3,34 35.7,34 35.2,34 35.3,34.5 
			37.2,41.9 37.2,42.2 37.6,42.2 39,42.2 39.3,42.2 39.4,41.9 41.2,34.5 41.3,34 40.8,34 		"/>
		<polygon class="st29" points="42.6,34 42.1,34 42.1,34.4 42.1,41.8 42.1,42.2 42.6,42.2 46.2,42.2 46.6,42.2 46.6,41.8 46.6,41.2 
			46.6,40.7 46.2,40.7 44.5,40.7 44.5,38.5 46.2,38.5 46.6,38.5 46.6,38.1 46.6,37.5 46.6,37.1 46.2,37.1 44.5,37.1 44.5,35.4 
			46.2,35.4 46.6,35.4 46.6,35 46.6,34.4 46.6,34 46.2,34 		"/>
		<path class="st29" d="M52.6,34.6c-0.1-0.2-0.4-0.3-0.6-0.4c-0.4-0.2-0.9-0.2-1.6-0.2l0,0c0,0-0.1,0-0.1,0c-0.1,0-0.1,0-0.2,0v0
			c-0.5,0.1-0.5,0.2-0.5,0.2V34h-2.2v1.3h0v0.2v6.3v0.4h0.4h1.5h0.4v-0.4v-6.4h0.6v6.4v0.4h0.4h1.5h0.4v-0.4v-6.3v-0.2
			C52.9,35,52.8,34.8,52.6,34.6z"/>
	</g>
</g>
</svg>
