<?xml version="1.0" encoding="utf-8"?>
<!-- Generator: Adobe Illustrator 22.0.1, SVG Export Plug-In . SVG Version: 6.00 Build 0)  -->
<svg version="1.1" id="图层_1" xmlns="http://www.w3.org/2000/svg" xmlns:xlink="http://www.w3.org/1999/xlink" x="0px" y="0px"
	 viewBox="0 0 129.9 49.3" style="enable-background:new 0 0 129.9 49.3;" xml:space="preserve">
<style type="text/css">
	.st0{fill-rule:evenodd;clip-rule:evenodd;fill:#2E82C5;}
	.st1{fill:#273897;}
	.st2{fill:#FE0000;}
	.st3{fill:#E60012;}
	.st4{fill-rule:evenodd;clip-rule:evenodd;fill:#FDD108;}
	.st5{fill-rule:evenodd;clip-rule:evenodd;fill:#231815;}
	.st6{fill-rule:evenodd;clip-rule:evenodd;fill:#727171;}
	.st7{fill:#231815;}
	.st8{fill:#F7B400;}
	.st9{fill:#FFFFFF;}
	.st10{fill-rule:evenodd;clip-rule:evenodd;fill:#0058A9;}
	.st11{fill:#3DAE2B;}
	.st12{fill-rule:evenodd;clip-rule:evenodd;fill:#0076C0;}
	.st13{fill-rule:evenodd;clip-rule:evenodd;fill:#EF8200;}
	.st14{fill:#07529B;}
	.st15{fill:url(#SVGID_1_);}
	.st16{fill:url(#SVGID_2_);}
	.st17{fill:url(#SVGID_3_);}
	.st18{fill:url(#SVGID_4_);}
	.st19{fill:url(#SVGID_5_);}
	.st20{clip-path:url(#SVGID_6_);}
	.st21{clip-path:url(#SVGID_7_);}
	.st22{fill:#0C73B9;}
	.st23{fill:#005BAB;}
	.st24{fill:#0A5FA6;}
	.st25{opacity:0.5;fill:#E50012;}
	.st26{fill:#FFFEFA;}
	.st27{opacity:0.5;fill:#2CA6E0;}
	.st28{fill:#69C146;}
	.st29{fill:#009844;}
	.st30{fill:#F29600;}
	.st31{fill:#E50012;}
	.st32{fill:#161D29;}
	.st33{fill:#00913A;}
	.st34{fill-rule:evenodd;clip-rule:evenodd;fill:#B42E82;}
</style>
<g>
	<g>
		<path class="st23" d="M96.6,9.6c-0.2,0.2-6.1,8.8-6.1,8.8s-1-8.4-1-8.8h-7C82.6,10,84,21.8,84,22.1h11.3c0.1-0.1,4.8-7,7.3-10.5
			c0.7-1.1,1.3-1.9,1.4-2H96.6z"/>
		<path class="st23" d="M122.7,11.7c-1.2-1.7-4.1-2.6-8.2-2.6c-0.7,0-1.4,0-2.1,0c-4.5,0.4-7.9,1.9-9.6,4.5
			c-0.5,0.7-0.9,1.5-1.1,2.4c-0.4,1.6-0.3,2.9,0.5,3.9c0.2,0.2,0.4,0.5,0.7,0.7c1.4,1.2,4,1.9,7.6,1.9c0.7,0,1.4,0,2.1-0.1
			c5.8-0.4,9.7-2.9,10.8-6.8C123.6,14.1,123.4,12.7,122.7,11.7 M115.1,16.1c-0.7,2.4-1.5,3.6-2.8,4c-0.3,0-0.6,0.1-1,0.1
			c-0.8,0-1.4-0.3-1.8-0.7c-0.5-0.7-0.5-1.8,0.1-3.8c0.6-2.4,1.5-3.6,2.8-4c0.3-0.1,0.7-0.2,1-0.2c0.8,0,1.4,0.3,1.8,0.7
			C115.7,13,115.7,14.1,115.1,16.1"/>
		<path class="st23" d="M81.2,11.7C80,10.1,77.1,9.2,73,9.2c-0.7,0-1.4,0-2.1,0c-5.8,0.5-9.7,2.9-10.8,6.9c-0.1,0.4-0.2,0.8-0.2,1.1
			v1c0.1,0.6,0.3,1.2,0.7,1.8c1.2,1.7,4.1,2.6,8.3,2.6c0.7,0,1.4,0,2.1-0.1c5.8-0.4,9.7-2.9,10.8-6.8C82.1,14.1,82,12.7,81.2,11.7
			 M73.7,16.1c-0.6,2.4-1.5,3.6-2.8,4c-0.4,0-0.7,0.1-1,0.1c-0.8,0-1.4-0.3-1.8-0.7c-0.5-0.7-0.5-1.8,0-3.8c0.7-2.4,1.5-3.6,2.8-4
			c0.3-0.1,0.6-0.2,1-0.2c0.8,0,1.4,0.3,1.8,0.7C74.3,13,74.2,14.1,73.7,16.1"/>
		<path class="st23" d="M59.8,11.9c-0.1-0.3-0.1-0.5-0.3-0.8c-1-1.3-4-1.9-8.9-1.9c-3.6,0-7.2,0.5-9.8,1c0,0.1-2.2,7.3-3.2,10.5v1.5
			h7.2c0-0.1,3.2-10.6,3.2-10.6c2.7-0.2,3.5,0.1,3.8,0.6c0.2,0.3,0.4,0.6,0.2,1l-2.7,9h7.7l2.9-9.6V11.9z"/>
		<path class="st23" d="M11.9,3.4c-0.1,0.3-5.2,18.2-5.3,18.7h7.6c0-0.2,2.6-9.1,4.2-14.6c0.6-2.3,1.1-3.9,1.2-4.1H11.9z"/>
		<path class="st23" d="M37.5,11.8c-0.1-0.1-0.2-0.3-0.2-0.4c-1.1-1.5-3.6-2.2-7.3-2.2c-0.7,0-1.4,0-2,0c-4.6,0.4-8,2-9.6,4.8
			c-0.4,0.6-0.6,1.3-0.9,2c-0.5,1.8-0.3,3.2,0.4,4.3c0.1,0.2,0.3,0.4,0.5,0.6c1.7,1.5,4.9,1.8,6.8,1.8c1.1,0,2,0,2.9-0.1
			c3.5-0.3,5.4-0.9,5.8-1c0-0.1,1.2-2.9,1.4-3.5c-1,0.5-4.3,2.1-7.2,2.3H27c-1.2,0-1.9-0.2-2.6-0.7c-0.4-0.4-0.3-1.1-0.3-1.1
			s1.7-0.4,3.8-0.9c3.6-0.9,8.4-2,9.5-2.3c0.1,0,0.2,0,0.2,0c0.1-0.2,0.3-0.7,0.3-1.3C38,13,37.8,12.3,37.5,11.8 M31.5,13.8
			l-3.6,1.8l-3.6,1.8l0.9-3.7c0.4-1.3,1.3-2.2,2.7-2.5c0.3,0,0.7-0.1,1-0.1c1.3,0,1.9,0.5,2.2,0.9C31.4,12.4,31.7,13,31.5,13.8"/>
	</g>
	<g>
		<path class="st23" d="M76.3,42.3c1.8-2.1,4.5-2,4.5-2v-0.1c-1.9-0.3-3.4-0.2-4.5,0.1c-2,0.5-2.8,1.4-2.8,1.4
			c1.5,0.1,2.7,0.9,2.7,0.9C76.2,42.4,76.3,42.4,76.3,42.3 M65.6,36.2c1,0.8,1.2,2,1.2,2c1-0.6,1.9-1.1,2.5-1.6
			c0.7-0.5,1.2-0.9,1.2-0.9c-0.5,2.1-1.1,3.5-1.1,3.5h2.8c0.4-1.7,1-4,1-4c0.6,0.5,0.6,1.6,0.6,1.6c1.2-0.9,2.2-1.2,2.2-1.2
			c-0.7-1.7-1.9-2.9-1.9-2.9c0.4-0.1,1.9,0,2.2,0h0.1l0.6-2h-0.6c-0.8,0.1-1.8,0.1-1.8,0.1c0.2-0.7,0.7-2.2,0.7-2.2
			c-0.8,0.1-2.8,0.1-2.8,0.1c-0.2,1-0.5,2.2-0.5,2.2h-2.5c-0.9,0-1.5-0.1-1.5-0.1l-0.6,2c0.7,0,1.4,0,2,0h1.7
			c-0.6,0.6-1.2,1.1-1.7,1.5C67.5,35.6,65.6,36.2,65.6,36.2 M69.5,40.1c0-0.1-0.1-0.1-0.1-0.1c-1.5-0.3-2.4-0.7-2.4-0.7
			c-0.8,1.6-2,3.1-2.7,3.8c-0.3,0.3-0.5,0.5-0.5,0.5c0.2,0,0.3,0,0.5,0.1c0.8,0.3,1.6,0.9,1.6,0.9c1.4-1.1,3-3.7,3.4-4.4
			C69.5,40.1,69.5,40.1,69.5,40.1 M83,40.1c-0.5,0.2-0.9,0.3-1.1,0.3c0,0.1-0.1,0.1-0.1,0.1c0,0,0.1,0.1,0.1,0.2
			c0.4,0.5,0.8,1.1,1.1,1.5c0.8,1.5,1.2,2.7,1.2,2.7c0.8-0.6,2.7-1.4,2.7-1.4c-0.7-1.6-2.3-4.1-2.3-4.1C84,39.7,83.4,40,83,40.1
			 M88.9,29.3c-1,0.1-3.6,0.1-5.9,0.1h-1.1c-1.8-0.1-3.4-0.1-3.4-0.1l-0.1,0.1C78,31.4,77,34.8,76.3,37c-0.3,1.1-0.6,1.9-0.6,1.9
			L75.7,39l0.1,0h0.5c1.3-0.1,3.6-0.1,5.6-0.1H83c1.8,0.1,3.2,0.1,3.2,0.1h0.1C86.6,36.5,89,29.4,88.9,29.3H89H88.9z M84,37.1h-5.1
			l0.4-1.2h5L84,37.1z M84.7,34.7h-5.1l0.3-1.1H85L84.7,34.7z M85.4,32.3h-5l0.3-1.2h5.1L85.4,32.3z M79.5,41.4
			c-0.1,0.2-0.4,1.6-1.6,1.8c-0.4,0.1-0.9,0.1-1.5,0.1c-1.2,0-2.5,0-3.2-0.1c-1-0.1-0.8-0.6-0.6-1.1c0.2-0.5,0.7-2.2,0.7-2.2
			c-1.5,0.1-2.7,0-2.7,0c-0.3,1.5-0.8,2.6-1,3.7c-0.1,0.1-0.1,0.2-0.1,0.2c-0.1,0.4-0.1,0.7,0.1,0.9c0.2,0.4,0.8,0.5,2,0.6
			c1.2,0,3.2,0.1,4.9,0c0.9,0,1.7,0,2.3-0.1c1.6-0.3,2.4-1.4,2.5-1.6c0.1-0.2,0.6-0.9,0.8-1.2c0.1-0.1,0.2-0.2,0.2-0.2
			c0,0-0.1,0-0.2-0.1C80.5,42,79.5,41.4,79.5,41.4"/>
		<path class="st23" d="M54.9,29.5c0,0,2.1-0.6,2.7-0.9c0,0,1.1,3.3,1.2,3.5c0,0,1.3-0.4,3.2-3.4c0,0,1.5,0.8,2.3,0.9
			c0,0-1.4,1.7-2.2,2.5c0,0,1.6,0,2.7,0l-0.6,2c0,0-1.8-0.1-4.5,0c0,0-0.7,1.8-0.9,2.8c0,0,2.2,0.1,5.2-0.1l-0.6,2.1
			c0,0-2.6-0.1-4.8-0.1c0,0,0.7,4.5,3.9,5.1c0,0-1.9,1.4-2.3,2c0,0-3-1.6-3.6-4.9c0,0-2.3,3.3-6.6,4.7c0,0-0.5-1.2-1.1-1.9
			c0,0,2.5-0.6,3.8-1.7c1.3-1.1,2.3-2.4,2.5-3.3c0,0-2.1-0.1-4.4,0.1l0.6-2.1c0,0,0.5,0.1,4.6,0.1c0,0,0.8-2.5,0.9-2.8
			c0,0-2.4-0.1-4.5,0l0.6-2c0,0,2.3,0.1,2.9,0.1C55.9,32.1,55.6,30.7,54.9,29.5"/>
		<path class="st23" d="M44.4,29.3c0,0,4.9,0.2,9.4,0l-0.6,2c0,0-0.7-0.1-0.8,0c0,0-3,9.5-4,14.4h-2.8c0,0,0.7-1.7,1-3.3
			c0,0-4,0.7-5.7,1.1c0,0,0.2-1.1-0.1-2.2l1.2-0.2c0,0,1.9-6.6,2.8-9.8c0,0-0.9,0-1.2,0L44.4,29.3z M47.9,38.4h-2.4l-0.7,2.4
			c0.9-0.1,1.8-0.2,2.5-0.4L47.9,38.4z M48.9,35h-2.4L46,36.7h2.4L48.9,35z M49.9,31.3h-2.4l-0.6,2h2.4L49.9,31.3z"/>
	</g>
</g>
</svg>
