<?xml version="1.0" encoding="utf-8"?>
<!-- Generator: Adobe Illustrator 22.0.1, SVG Export Plug-In . SVG Version: 6.00 Build 0)  -->
<svg version="1.1" id="图层_1" xmlns="http://www.w3.org/2000/svg" xmlns:xlink="http://www.w3.org/1999/xlink" x="0px" y="0px"
	 viewBox="0 0 107 107" style="enable-background:new 0 0 107 107;" xml:space="preserve">
<style type="text/css">
	.st0{fill:#0297D5;}
</style>
<g>
	<path d="M51.8,100c-2,0-3.9-0.8-5.3-2.2L2.7,54c-1.4-1.4-2.2-3.3-2.2-5.3c0-2,0.8-3.9,2.2-5.3l31.6-31.6c1.4-1.4,3.3-2.2,5.3-2.2
		c2,0,3.9,0.8,5.3,2.2l43.8,43.8c2.9,2.9,2.9,7.7,0,10.7L57.2,97.8C55.8,99.2,53.9,100,51.8,100z M39.6,13.8c-0.9,0-1.7,0.3-2.3,1
		L5.7,46.3c-0.6,0.6-1,1.4-1,2.3c0,0.9,0.3,1.7,1,2.3l43.8,43.8c1.2,1.2,3.4,1.2,4.6,0l31.6-31.6c0.6-0.6,1-1.4,1-2.3
		c0-0.9-0.3-1.7-1-2.3L41.9,14.8C41.3,14.1,40.5,13.8,39.6,13.8z"/>
	<path d="M81.2,72.9c-0.5,0-1.1-0.2-1.5-0.6c-0.8-0.8-0.8-2.2,0-3l22.6-22.6c0.6-0.6,1-1.4,1-2.3c0-0.9-0.3-1.7-1-2.3L73.5,13.2
		c-1.2-1.2-3.4-1.2-4.6,0L56.1,25.9c-0.8,0.8-2.2,0.8-3,0c-0.8-0.8-0.8-2.2,0-3l12.7-12.7c2.9-2.9,7.7-2.9,10.7,0L105.3,39
		c1.4,1.4,2.2,3.3,2.2,5.3s-0.8,3.9-2.2,5.3L82.7,72.2C82.3,72.7,81.8,72.9,81.2,72.9z"/>
	<path d="M61,93c-0.5,0-1.1-0.2-1.5-0.6l-24-24c-0.8-0.8-0.8-2.2,0-3c0.8-0.8,2.2-0.8,3,0l24,24c0.8,0.8,0.8,2.2,0,3
		C62.1,92.8,61.6,93,61,93z"/>
	<path d="M71.5,82.6c-0.5,0-1.1-0.2-1.5-0.6L48,60c-0.8-0.8-0.8-2.2,0-3c0.8-0.8,2.2-0.8,3,0l22,22c0.8,0.8,0.8,2.2,0,3
		C72.5,82.4,72,82.6,71.5,82.6z"/>
	<path d="M81.2,72.9c-0.5,0-1.1-0.2-1.5-0.6L60,52.5c-0.8-0.8-0.8-2.2,0-3c0.8-0.8,2.2-0.8,3,0l19.7,19.7c0.8,0.8,0.8,2.2,0,3
		C82.3,72.7,81.8,72.9,81.2,72.9z"/>
</g>
</svg>
