<?xml version="1.0" encoding="utf-8"?>
<!-- Generator: Adobe Illustrator 22.0.1, SVG Export Plug-In . SVG Version: 6.00 Build 0)  -->
<svg version="1.1" id="图层_1" xmlns="http://www.w3.org/2000/svg" xmlns:xlink="http://www.w3.org/1999/xlink" x="0px" y="0px"
	 viewBox="0 0 107 107" style="enable-background:new 0 0 107 107;" xml:space="preserve">
<style type="text/css">
	.st0{fill:#0297D5;}
</style>
<g>
	<path d="M92.5,107.5h-77c-8.3,0-15-6.3-15-14.1V32.4c0-7.8,6.7-14.2,15-14.2h77c8.3,0,15,6.3,15,14.2v60.9
		C107.5,101.2,100.8,107.5,92.5,107.5z M15.5,22.9c-5.6,0-10.1,4.3-10.1,9.5v60.9c0,5.2,4.5,9.5,10.1,9.5h77
		c5.6,0,10.1-4.3,10.1-9.5V32.4c0-5.2-4.5-9.5-10.1-9.5H15.5z"/>
	<path d="M63.1,70.7H43.4c-3.9,0-6.9-3.6-6.9-8.2v-6.9c0-4.6,3-8.2,6.9-8.2h19.7c3.9,0,6.9,3.6,6.9,8.2v6.9
		C70,67.1,67,70.7,63.1,70.7z M43.4,51.9c-0.8,0-2,1.4-2,3.6v6.9c0,2.2,1.2,3.6,2,3.6h19.7c0.8,0,2-1.4,2-3.6v-6.9
		c0-2.2-1.2-3.6-2-3.6H43.4z"/>
	<path d="M38.9,61.3c-0.3,0-0.6-0.1-0.9-0.2l-36-14c-1.3-0.5-1.8-1.8-1.3-3c0.5-1.2,1.9-1.7,3.2-1.3l36,14c1.3,0.5,1.8,1.8,1.3,3
		C40.8,60.8,39.9,61.3,38.9,61.3z"/>
	<path d="M67.6,61.3c-1,0-1.9-0.5-2.3-1.4c-0.5-1.2,0.1-2.5,1.3-3l36-14c1.3-0.5,2.7,0.1,3.2,1.3c0.5,1.2-0.1,2.5-1.3,3l-36,14
		C68.2,61.3,67.9,61.3,67.6,61.3z"/>
	<path d="M79.2,22.9c-1.4,0-2.5-1-2.5-2.3v-7.9c0-4.2-3.6-7.5-8-7.5H36.6c-4.4,0-8,3.4-8,7.5v7.9c0,1.3-1.1,2.3-2.5,2.3
		c-1.4,0-2.5-1-2.5-2.3v-7.9c0-6.7,5.8-12.2,12.9-12.2h32.2c7.1,0,12.9,5.5,12.9,12.2v7.9C81.6,21.8,80.5,22.9,79.2,22.9z"/>
</g>
</svg>
