<?xml version="1.0" encoding="UTF-8"?>
<svg width="106px" height="128px" viewBox="0 0 106 128" version="1.1" xmlns="http://www.w3.org/2000/svg" xmlns:xlink="http://www.w3.org/1999/xlink">
    <!-- Generator: Sketch 49.3 (51167) - http://www.bohemiancoding.com/sketch -->
    <title>group</title>
    <desc>Created with Sketch.</desc>
    <defs>
        <linearGradient x1="0%" y1="0%" x2="97.6404444%" y2="97.6404444%" id="linearGradient-1">
            <stop stop-color="#14A7DF" offset="0%"></stop>
            <stop stop-color="#1469D1" offset="100%"></stop>
        </linearGradient>
    </defs>
    <g id="Page-1" stroke="none" stroke-width="1" fill="none" fill-rule="evenodd">
        <g id="1-home" transform="translate(-195.000000, -735.000000)">
            <g id="Group-2" transform="translate(90.000000, 678.000000)">
                <g id="group" transform="translate(93.000000, 56.000000)">
                    <rect id="Rectangle" x="0" y="0" width="130" height="130"></rect>
                    <path d="M104,98 L114,98 C116.209139,98 118,99.790861 118,102 C118,104.209139 116.209139,106 114,106 L104,106 L104,116 C104,118.209139 102.209139,120 100,120 C97.790861,120 96,118.209139 96,116 L96,106 L86,106 C83.790861,106 82,104.209139 82,102 C82,99.790861 83.790861,98 86,98 L96,98 L96,88 C96,85.790861 97.790861,84 100,84 C102.209139,84 104,85.790861 104,88 L104,98 Z M88.4453844,128.643892 L15.4374161,128.643892 C13.537056,128.643892 12,127.096401 12,125.18314 L12,114.501397 C12,90.8951322 27.3426133,70.8340275 48.5260393,63.9125244 C38.3535234,58.1446051 31.4507447,47.1714904 31.4507447,34.5946128 C31.4507447,16.0809987 46.4300539,1 64.8188327,1 C83.2076115,1 98.1869207,16.0809987 98.1869207,34.5946128 C98.1869207,47.1714904 91.284142,58.1446051 81.1116261,63.9125244 C87.8111844,66.1044395 93.9305879,69.6140917 99.165404,74.136769 C84.4794324,75.5614188 73,87.9401268 73,103 C73,114.119853 79.258581,123.777936 88.4453873,128.643894 Z" id="Combined-Shape" fill="url(#linearGradient-1)" fill-rule="nonzero"></path>
                </g>
            </g>
        </g>
    </g>
</svg>